FiraSystem-Light.ufo
<glyph name="exclam" format="1">
  <advance width="240"/>
  <unicode hex="0021"/>
  <outline>
    <contour>
      <point x="89" y="685" type="line"/>
      <point x="94" y="218" type="line"/>
      <point x="145" y="218" type="line"/>
      <point x="150" y="685" type="line"/>
    </contour>
    <contour>
      <point x="93" y="83"/>
      <point x="73" y="62"/>
      <point x="73" y="36" type="curve" smooth="yes"/>
      <point x="73" y="10"/>
      <point x="93" y="-11"/>
      <point x="120" y="-11" type="curve" smooth="yes"/>
      <point x="148" y="-11"/>
      <point x="167" y="10"/>
      <point x="167" y="36" type="curve" smooth="yes"/>
      <point x="167" y="62"/>
      <point x="148" y="83"/>
      <point x="120" y="83" type="curve" smooth="yes"/>
    </contour>
  </outline>
</glyph>
<glyph name="numbersign" format="1">
  <advance width="556"/>
  <unicode hex="0023"/>
  <outline>
    <contour>
      <point x="415" y="685" type="line"/>
      <point x="323" y="0" type="line"/>
      <point x="376" y="0" type="line"/>
      <point x="468" y="685" type="line"/>
    </contour>
    <contour>
      <point x="42" y="226" type="line"/>
      <point x="42" y="181" type="line"/>
      <point x="478" y="181" type="line"/>
      <point x="478" y="226" type="line"/>
    </contour>
    <contour>
      <point x="182" y="685" type="line"/>
      <point x="91" y="0" type="line"/>
      <point x="143" y="0" type="line"/>
      <point x="235" y="685" type="line"/>
    </contour>
    <contour>
      <point x="79" y="508" type="line"/>
      <point x="79" y="462" type="line"/>
      <point x="515" y="462" type="line"/>
      <point x="515" y="508" type="line"/>
    </contour>
  </outline>
</glyph>
<glyph name="dollar" format="1">
  <advance width="556"/>
  <unicode hex="0024"/>
  <outline>
    <contour>
      <point x="249" y="0" type="line"/>
      <point x="249" y="-150" type="line"/>
      <point x="300" y="-150" type="line"/>
      <point x="300" y="4" type="line"/>
    </contour>
    <contour>
      <point x="249" y="843" type="line"/>
      <point x="249" y="674" type="line"/>
      <point x="300" y="675" type="line"/>
      <point x="300" y="843" type="line"/>
    </contour>
    <contour>
      <point x="153" y="689"/>
      <point x="74" y="619"/>
      <point x="74" y="524" type="curve" smooth="yes"/>
      <point x="74" y="428"/>
      <point x="131" y="381"/>
      <point x="266" y="339" type="curve" smooth="yes"/>
      <point x="386" y="301"/>
      <point x="426" y="268"/>
      <point x="426" y="186" type="curve" smooth="yes"/>
      <point x="426" y="95"/>
      <point x="356" y="43"/>
      <point x="261" y="43" type="curve" smooth="yes"/>
      <point x="182" y="43"/>
      <point x="128" y="71"/>
      <point x="81" y="114" type="curve"/>
      <point x="47" y="76" type="line"/>
      <point x="101" y="26"/>
      <point x="170" y="-7"/>
      <point x="262" y="-7" type="curve" smooth="yes"/>
      <point x="398" y="-7"/>
      <point x="486" y="72"/>
      <point x="486" y="188" type="curve" smooth="yes"/>
      <point x="486" y="307"/>
      <point x="413" y="350"/>
      <point x="290" y="387" type="curve" smooth="yes"/>
      <point x="169" y="424"/>
      <point x="132" y="455"/>
      <point x="132" y="525" type="curve" smooth="yes"/>
      <point x="132" y="596"/>
      <point x="190" y="640"/>
      <point x="272" y="640" type="curve" smooth="yes"/>
      <point x="335" y="640"/>
      <point x="382" y="622"/>
      <point x="430" y="577" type="curve"/>
      <point x="465" y="615" type="line"/>
      <point x="412" y="662"/>
      <point x="359" y="689"/>
      <point x="270" y="689" type="curve" smooth="yes"/>
    </contour>
    <contour>
      <point x="273" y="3" type="move" name="bottom"/>
    </contour>
  </outline>
</glyph>
<glyph name="percent" format="1">
  <advance width="900"/>
  <unicode hex="0025"/>
  <outline>
    <contour>
      <point x="201" y="4" type="line"/>
      <point x="243" y="-24" type="line"/>
      <point x="706" y="696" type="line"/>
      <point x="664" y="723" type="line"/>
    </contour>
    <contour>
      <point x="328" y="654"/>
      <point x="353" y="596"/>
      <point x="353" y="534" type="curve" smooth="yes"/>
      <point x="353" y="470"/>
      <point x="328" y="413"/>
      <point x="256" y="413" type="curve"/>
      <point x="186" y="413"/>
      <point x="160" y="470"/>
      <point x="160" y="533" type="curve" smooth="yes"/>
      <point x="160" y="597"/>
      <point x="186" y="654"/>
      <point x="256" y="654" type="curve"/>
    </contour>
    <contour>
      <point x="167" y="696"/>
      <point x="107" y="632"/>
      <point x="107" y="533" type="curve" smooth="yes"/>
      <point x="107" y="434"/>
      <point x="169" y="371"/>
      <point x="256" y="371" type="curve"/>
      <point x="346" y="371"/>
      <point x="406" y="435"/>
      <point x="406" y="534" type="curve" smooth="yes"/>
      <point x="406" y="633"/>
      <point x="344" y="696"/>
      <point x="256" y="696" type="curve"/>
    </contour>
    <contour>
      <point x="715" y="272"/>
      <point x="740" y="215"/>
      <point x="740" y="152" type="curve" smooth="yes"/>
      <point x="740" y="88"/>
      <point x="715" y="31"/>
      <point x="644" y="31" type="curve"/>
      <point x="573" y="31"/>
      <point x="547" y="89"/>
      <point x="547" y="151" type="curve" smooth="yes"/>
      <point x="547" y="216"/>
      <point x="573" y="272"/>
      <point x="644" y="272" type="curve"/>
    </contour>
    <contour>
      <point x="554" y="314"/>
      <point x="494" y="250"/>
      <point x="494" y="151" type="curve" smooth="yes"/>
      <point x="494" y="52"/>
      <point x="556" y="-11"/>
      <point x="644" y="-11" type="curve"/>
      <point x="734" y="-11"/>
      <point x="793" y="53"/>
      <point x="793" y="152" type="curve" smooth="yes"/>
      <point x="793" y="251"/>
      <point x="731" y="314"/>
      <point x="644" y="314" type="curve"/>
    </contour>
  </outline>
</glyph>
<glyph name="ampersand" format="1">
  <advance width="743"/>
  <unicode hex="0026"/>
  <outline>
    <contour>
      <point x="198" y="696"/>
      <point x="134" y="630"/>
      <point x="134" y="544" type="curve" smooth="yes"/>
      <point x="134" y="474"/>
      <point x="169" y="432"/>
      <point x="234" y="370" type="curve"/>
      <point x="146" y="318"/>
      <point x="91" y="261"/>
      <point x="91" y="171" type="curve" smooth="yes"/>
      <point x="91" y="61"/>
      <point x="181" y="-11"/>
      <point x="300" y="-11" type="curve" smooth="yes"/>
      <point x="405" y="-11"/>
      <point x="471" y="31"/>
      <point x="524" y="94" type="curve"/>
      <point x="636" y="-11" type="line"/>
      <point x="679" y="22" type="line"/>
      <point x="554" y="137" type="line"/>
      <point x="590" y="195"/>
      <point x="618" y="263"/>
      <point x="639" y="346" type="curve"/>
      <point x="585" y="362" type="line"/>
      <point x="569" y="288"/>
      <point x="547" y="228"/>
      <point x="519" y="171" type="curve"/>
      <point x="314" y="364" type="line"/>
      <point x="408" y="417"/>
      <point x="467" y="467"/>
      <point x="467" y="548" type="curve" smooth="yes"/>
      <point x="467" y="634"/>
      <point x="399" y="696"/>
      <point x="301" y="696" type="curve" smooth="yes"/>
    </contour>
    <contour>
      <point x="489" y="127" type="line"/>
      <point x="442" y="71"/>
      <point x="388" y="37"/>
      <point x="304" y="37" type="curve" smooth="yes"/>
      <point x="214" y="37"/>
      <point x="149" y="91"/>
      <point x="149" y="172" type="curve" smooth="yes"/>
      <point x="149" y="243"/>
      <point x="191" y="292"/>
      <point x="268" y="338" type="curve"/>
    </contour>
    <contour>
      <point x="364" y="651"/>
      <point x="410" y="614"/>
      <point x="410" y="546" type="curve" smooth="yes"/>
      <point x="410" y="485"/>
      <point x="366" y="443"/>
      <point x="280" y="396" type="curve"/>
      <point x="208" y="463"/>
      <point x="190" y="494"/>
      <point x="190" y="545" type="curve" smooth="yes"/>
      <point x="190" y="603"/>
      <point x="232" y="651"/>
      <point x="301" y="651" type="curve" smooth="yes"/>
    </contour>
  </outline>
</glyph>
<glyph name="quotesingle" format="1">
  <advance width="204"/>
  <unicode hex="0027"/>
  <outline>
    <contour>
      <point x="124" y="434" type="line"/>
      <point x="132" y="685" type="line"/>
      <point x="71" y="685" type="line"/>
      <point x="80" y="434" type="line"/>
    </contour>
  </outline>
</glyph>
<glyph name="parenleft" format="1">
  <advance width="324"/>
  <unicode hex="0028"/>
  <outline>
    <contour>
      <point x="136" y="700"/>
      <point x="54" y="582"/>
      <point x="54" y="350" type="curve"/>
      <point x="54" y="118"/>
      <point x="136" y="0"/>
      <point x="233" y="-137" type="curve"/>
      <point x="270" y="-113" type="line"/>
      <point x="180" y="19"/>
      <point x="113" y="133"/>
      <point x="113" y="350" type="curve"/>
      <point x="113" y="568"/>
      <point x="180" y="681"/>
      <point x="270" y="813" type="curve"/>
      <point x="233" y="837" type="line"/>
    </contour>
  </outline>
</glyph>
<glyph name="parenright" format="1">
  <advance width="324"/>
  <unicode hex="0029"/>
  <outline>
    <contour>
      <point x="54" y="813" type="line"/>
      <point x="144" y="681"/>
      <point x="211" y="568"/>
      <point x="211" y="350" type="curve"/>
      <point x="211" y="133"/>
      <point x="144" y="19"/>
      <point x="54" y="-113" type="curve"/>
      <point x="91" y="-137" type="line"/>
      <point x="188" y="0"/>
      <point x="270" y="118"/>
      <point x="270" y="350" type="curve"/>
      <point x="270" y="582"/>
      <point x="188" y="700"/>
      <point x="91" y="837" type="curve"/>
    </contour>
  </outline>
</glyph>
<glyph name="asterisk" format="1">
  <advance width="436"/>
  <unicode hex="002A"/>
  <outline>
    <contour>
      <point x="214" y="526" type="line"/>
      <point x="303" y="387" type="line"/>
      <point x="349" y="420" type="line"/>
      <point x="244" y="548" type="line"/>
      <point x="218" y="552" type="line"/>
    </contour>
    <contour>
      <point x="190" y="736" type="line"/>
      <point x="198" y="569" type="line"/>
      <point x="218" y="552" type="line"/>
      <point x="238" y="569" type="line"/>
      <point x="246" y="736" type="line"/>
    </contour>
    <contour>
      <point x="231" y="574" type="line"/>
      <point x="218" y="552" type="line"/>
      <point x="242" y="540" type="line"/>
      <point x="402" y="582" type="line"/>
      <point x="384" y="634" type="line"/>
    </contour>
    <contour>
      <point x="34" y="582" type="line"/>
      <point x="194" y="540" type="line"/>
      <point x="218" y="552" type="line"/>
      <point x="205" y="574" type="line"/>
      <point x="51" y="633" type="line"/>
    </contour>
    <contour>
      <point x="192" y="548" type="line"/>
      <point x="87" y="419" type="line"/>
      <point x="133" y="387" type="line"/>
      <point x="223" y="525" type="line"/>
      <point x="218" y="552" type="line"/>
    </contour>
  </outline>
</glyph>
<glyph name="hyphen" format="1">
  <advance width="401"/>
  <unicode hex="002D"/>
  <outline>
    <contour>
      <point x="332" y="288" type="line"/>
      <point x="332" y="338" type="line"/>
      <point x="68" y="338" type="line"/>
      <point x="68" y="288" type="line"/>
    </contour>
  </outline>
</glyph>
<glyph name="period" format="1">
  <advance width="206"/>
  <unicode hex="002E"/>
  <outline>
    <contour>
      <point x="75" y="83"/>
      <point x="56" y="62"/>
      <point x="56" y="36" type="curve" smooth="yes"/>
      <point x="56" y="10"/>
      <point x="75" y="-11"/>
      <point x="103" y="-11" type="curve" smooth="yes"/>
      <point x="131" y="-11"/>
      <point x="150" y="10"/>
      <point x="150" y="36" type="curve" smooth="yes"/>
      <point x="150" y="62"/>
      <point x="131" y="83"/>
      <point x="103" y="83" type="curve" smooth="yes"/>
    </contour>
  </outline>
</glyph>
<glyph name="slash" format="1">
  <advance width="520"/>
  <unicode hex="002F"/>
  <outline>
    <contour>
      <point x="119" y="-87" type="line"/>
      <point x="169" y="-99" type="line"/>
      <point x="400" y="791" type="line"/>
      <point x="351" y="802" type="line"/>
    </contour>
  </outline>
</glyph>
<glyph name="zero" format="1">
  <advance width="556"/>
  <unicode hex="0030"/>
  <outline>
    <contour>
      <point x="140" y="696"/>
      <point x="66" y="578"/>
      <point x="66" y="343" type="curve" smooth="yes"/>
      <point x="66" y="108"/>
      <point x="140" y="-11"/>
      <point x="278" y="-11" type="curve" smooth="yes"/>
      <point x="416" y="-11"/>
      <point x="490" y="107"/>
      <point x="490" y="342" type="curve" smooth="yes"/>
      <point x="490" y="578"/>
      <point x="416" y="696"/>
      <point x="278" y="696" type="curve" smooth="yes"/>
    </contour>
    <contour>
      <point x="376" y="648"/>
      <point x="430" y="557"/>
      <point x="430" y="342" type="curve" smooth="yes"/>
      <point x="430" y="127"/>
      <point x="376" y="37"/>
      <point x="278" y="37" type="curve" smooth="yes"/>
      <point x="180" y="37"/>
      <point x="125" y="128"/>
      <point x="125" y="343" type="curve" smooth="yes"/>
      <point x="125" y="558"/>
      <point x="180" y="648"/>
      <point x="278" y="648" type="curve" smooth="yes"/>
    </contour>
  </outline>
</glyph>
<glyph name="one" format="1">
  <advance width="556"/>
  <unicode hex="0031"/>
  <outline>
    <contour>
      <point x="293" y="685" type="line"/>
      <point x="95" y="562" type="line"/>
      <point x="121" y="520" type="line"/>
      <point x="285" y="622" type="line"/>
      <point x="285" y="20" type="line"/>
      <point x="342" y="20" type="line"/>
      <point x="342" y="685" type="line"/>
    </contour>
    <contour>
      <point x="119" y="49" type="line"/>
      <point x="119" y="0" type="line"/>
      <point x="493" y="0" type="line"/>
      <point x="493" y="49" type="line"/>
    </contour>
  </outline>
</glyph>
<glyph name="two" format="1">
  <advance width="556"/>
  <unicode hex="0032"/>
  <outline>
    <contour>
      <point x="169" y="696"/>
      <point x="111" y="665"/>
      <point x="57" y="601" type="curve"/>
      <point x="97" y="571" type="line"/>
      <point x="138" y="620"/>
      <point x="183" y="647"/>
      <point x="256" y="647" type="curve" smooth="yes"/>
      <point x="340" y="647"/>
      <point x="392" y="594"/>
      <point x="392" y="509" type="curve" smooth="yes"/>
      <point x="392" y="392"/>
      <point x="334" y="312"/>
      <point x="67" y="48" type="curve"/>
      <point x="67" y="0" type="line"/>
      <point x="461" y="0" type="line"/>
      <point x="469" y="50" type="line"/>
      <point x="134" y="50" type="line"/>
      <point x="377" y="286"/>
      <point x="451" y="380"/>
      <point x="451" y="512" type="curve" smooth="yes"/>
      <point x="451" y="617"/>
      <point x="380" y="696"/>
      <point x="258" y="696" type="curve" smooth="yes"/>
    </contour>
  </outline>
</glyph>
<glyph name="three" format="1">
  <advance width="556"/>
  <unicode hex="0033"/>
  <outline>
    <contour>
      <point x="182" y="696"/>
      <point x="123" y="671"/>
      <point x="67" y="619" type="curve"/>
      <point x="99" y="584" type="line"/>
      <point x="150" y="629"/>
      <point x="194" y="648"/>
      <point x="255" y="648" type="curve" smooth="yes"/>
      <point x="335" y="648"/>
      <point x="396" y="600"/>
      <point x="396" y="520" type="curve" smooth="yes"/>
      <point x="396" y="425"/>
      <point x="319" y="385"/>
      <point x="250" y="385" type="curve" smooth="yes"/>
      <point x="209" y="385" type="line"/>
      <point x="202" y="339" type="line"/>
      <point x="255" y="339" type="line" smooth="yes"/>
      <point x="342" y="339"/>
      <point x="413" y="298"/>
      <point x="413" y="192" type="curve" smooth="yes"/>
      <point x="413" y="99"/>
      <point x="352" y="38"/>
      <point x="247" y="38" type="curve" smooth="yes"/>
      <point x="185" y="38"/>
      <point x="133" y="58"/>
      <point x="86" y="108" type="curve"/>
      <point x="48" y="76" type="line"/>
      <point x="101" y="18"/>
      <point x="168" y="-11"/>
      <point x="249" y="-11" type="curve" smooth="yes"/>
      <point x="384" y="-11"/>
      <point x="473" y="74"/>
      <point x="473" y="192" type="curve" smooth="yes"/>
      <point x="473" y="301"/>
      <point x="398" y="362"/>
      <point x="312" y="366" type="curve"/>
      <point x="393" y="378"/>
      <point x="453" y="435"/>
      <point x="453" y="526" type="curve" smooth="yes"/>
      <point x="453" y="622"/>
      <point x="376" y="696"/>
      <point x="257" y="696" type="curve" smooth="yes"/>
    </contour>
  </outline>
</glyph>
<glyph name="four" format="1">
  <advance width="556"/>
  <unicode hex="0034"/>
  <outline>
    <contour>
      <point x="59" y="218" type="line"/>
      <point x="59" y="175" type="line"/>
      <point x="496" y="175" type="line"/>
      <point x="496" y="223" type="line"/>
      <point x="120" y="223" type="line"/>
      <point x="310" y="676" type="line"/>
      <point x="262" y="696" type="line"/>
    </contour>
    <contour>
      <point x="357" y="426" type="line"/>
      <point x="351" y="212" type="line"/>
      <point x="351" y="0" type="line"/>
      <point x="406" y="0" type="line"/>
      <point x="406" y="426" type="line"/>
    </contour>
  </outline>
</glyph>
<glyph name="five" format="1">
  <advance width="556"/>
  <unicode hex="0035"/>
  <outline>
    <contour>
      <point x="106" y="685" type="line"/>
      <point x="106" y="353" type="line"/>
      <point x="151" y="353" type="line"/>
      <point x="190" y="373"/>
      <point x="221" y="384"/>
      <point x="270" y="384" type="curve" smooth="yes"/>
      <point x="354" y="384"/>
      <point x="412" y="336"/>
      <point x="412" y="220" type="curve" smooth="yes"/>
      <point x="412" y="106"/>
      <point x="353" y="38"/>
      <point x="253" y="38" type="curve"/>
      <point x="187" y="38"/>
      <point x="140" y="60"/>
      <point x="98" y="106" type="curve"/>
      <point x="62" y="72" type="line"/>
      <point x="111" y="19"/>
      <point x="171" y="-11"/>
      <point x="253" y="-11" type="curve"/>
      <point x="389" y="-11"/>
      <point x="472" y="83"/>
      <point x="472" y="219" type="curve" smooth="yes"/>
      <point x="472" y="353"/>
      <point x="399" y="431"/>
      <point x="283" y="431" type="curve" smooth="yes"/>
      <point x="233" y="431"/>
      <point x="195" y="418"/>
      <point x="162" y="398" type="curve"/>
      <point x="162" y="638" type="line"/>
      <point x="441" y="638" type="line"/>
      <point x="450" y="685" type="line"/>
    </contour>
  </outline>
</glyph>
<glyph name="six" format="1">
  <advance width="556"/>
  <unicode hex="0036"/>
  <outline>
    <contour>
      <point x="168" y="696"/>
      <point x="76" y="551"/>
      <point x="76" y="310" type="curve" smooth="yes"/>
      <point x="76" y="128"/>
      <point x="132" y="-11"/>
      <point x="294" y="-11" type="curve" smooth="yes"/>
      <point x="411" y="-11"/>
      <point x="495" y="78"/>
      <point x="495" y="229" type="curve" smooth="yes"/>
      <point x="495" y="374"/>
      <point x="413" y="443"/>
      <point x="308" y="443" type="curve"/>
      <point x="230" y="443"/>
      <point x="171" y="401"/>
      <point x="129" y="332" type="curve"/>
      <point x="129" y="273" type="line"/>
      <point x="167" y="346"/>
      <point x="226" y="396"/>
      <point x="301" y="396" type="curve"/>
      <point x="384" y="396"/>
      <point x="437" y="347"/>
      <point x="437" y="227" type="curve" smooth="yes"/>
      <point x="437" y="114"/>
      <point x="390" y="37"/>
      <point x="294" y="37" type="curve" smooth="yes"/>
      <point x="175" y="37"/>
      <point x="135" y="138"/>
      <point x="135" y="304" type="curve"/>
      <point x="134" y="327" type="line"/>
      <point x="135" y="517"/>
      <point x="200" y="648"/>
      <point x="320" y="648" type="curve" smooth="yes"/>
      <point x="361" y="648"/>
      <point x="392" y="638"/>
      <point x="423" y="617" type="curve"/>
      <point x="448" y="657" type="line"/>
      <point x="412" y="681"/>
      <point x="375" y="696"/>
      <point x="321" y="696" type="curve" smooth="yes"/>
    </contour>
  </outline>
</glyph>
<glyph name="seven" format="1">
  <advance width="556"/>
  <unicode hex="0037"/>
  <outline>
    <contour>
      <point x="82" y="685" type="line"/>
      <point x="82" y="637" type="line"/>
      <point x="415" y="637" type="line"/>
      <point x="140" y="10" type="line"/>
      <point x="192" y="-10" type="line"/>
      <point x="474" y="641" type="line"/>
      <point x="474" y="685" type="line"/>
    </contour>
  </outline>
</glyph>
<glyph name="eight" format="1">
  <advance width="556"/>
  <unicode hex="0038"/>
  <outline>
    <contour>
      <point x="180" y="696"/>
      <point x="88" y="636"/>
      <point x="88" y="524" type="curve" smooth="yes"/>
      <point x="88" y="443"/>
      <point x="128" y="397"/>
      <point x="217" y="361" type="curve"/>
      <point x="236" y="355" type="line"/>
      <point x="286" y="336" type="line" smooth="yes"/>
      <point x="392" y="298"/>
      <point x="437" y="264"/>
      <point x="437" y="176" type="curve" smooth="yes"/>
      <point x="437" y="87"/>
      <point x="371" y="37"/>
      <point x="277" y="37" type="curve" smooth="yes"/>
      <point x="183" y="37"/>
      <point x="118" y="85"/>
      <point x="118" y="176" type="curve" smooth="yes"/>
      <point x="118" y="266"/>
      <point x="161" y="318"/>
      <point x="263" y="354" type="curve"/>
      <point x="220" y="372" type="line"/>
      <point x="117" y="337"/>
      <point x="59" y="273"/>
      <point x="59" y="176" type="curve" smooth="yes"/>
      <point x="59" y="64"/>
      <point x="145" y="-11"/>
      <point x="276" y="-11" type="curve" smooth="yes"/>
      <point x="405" y="-11"/>
      <point x="496" y="62"/>
      <point x="496" y="178" type="curve" smooth="yes"/>
      <point x="496" y="276"/>
      <point x="443" y="327"/>
      <point x="335" y="367" type="curve"/>
      <point x="319" y="373" type="line"/>
      <point x="274" y="388" type="line" smooth="yes"/>
      <point x="179" y="423"/>
      <point x="145" y="454"/>
      <point x="145" y="523" type="curve" smooth="yes"/>
      <point x="145" y="607"/>
      <point x="201" y="650"/>
      <point x="278" y="650" type="curve" smooth="yes"/>
      <point x="356" y="650"/>
      <point x="411" y="606"/>
      <point x="411" y="523" type="curve" smooth="yes"/>
      <point x="411" y="453"/>
      <point x="376" y="412"/>
      <point x="292" y="371" type="curve"/>
      <point x="334" y="356" type="line"/>
      <point x="425" y="399"/>
      <point x="468" y="448"/>
      <point x="468" y="526" type="curve" smooth="yes"/>
      <point x="468" y="641"/>
      <point x="374" y="696"/>
      <point x="278" y="696" type="curve" smooth="yes"/>
    </contour>
  </outline>
</glyph>
<glyph name="nine" format="1">
  <advance width="556"/>
  <unicode hex="0039"/>
  <outline>
    <contour>
      <point x="150" y="696"/>
      <point x="59" y="614"/>
      <point x="59" y="470" type="curve" smooth="yes"/>
      <point x="59" y="337"/>
      <point x="138" y="256"/>
      <point x="246" y="256" type="curve"/>
      <point x="323" y="256"/>
      <point x="381" y="297"/>
      <point x="419" y="359" type="curve"/>
      <point x="419" y="413" type="line"/>
      <point x="376" y="344"/>
      <point x="327" y="303"/>
      <point x="256" y="303" type="curve"/>
      <point x="173" y="303"/>
      <point x="119" y="359"/>
      <point x="119" y="469" type="curve" smooth="yes"/>
      <point x="119" y="587"/>
      <point x="176" y="648"/>
      <point x="266" y="648" type="curve" smooth="yes"/>
      <point x="374" y="648"/>
      <point x="417" y="569"/>
      <point x="415" y="392" type="curve"/>
      <point x="414" y="360" type="line"/>
      <point x="408" y="168"/>
      <point x="298" y="80"/>
      <point x="117" y="26" type="curve"/>
      <point x="130" y="-19" type="line"/>
      <point x="356" y="48"/>
      <point x="474" y="145"/>
      <point x="474" y="417" type="curve" smooth="yes"/>
      <point x="474" y="592"/>
      <point x="409" y="696"/>
      <point x="266" y="696" type="curve" smooth="yes"/>
    </contour>
  </outline>
</glyph>
<glyph name="question" format="1">
  <advance width="447"/>
  <unicode hex="003F"/>
  <outline>
    <contour>
      <point x="155" y="696"/>
      <point x="95" y="666"/>
      <point x="41" y="604" type="curve"/>
      <point x="81" y="573" type="line"/>
      <point x="126" y="624"/>
      <point x="171" y="647"/>
      <point x="231" y="647" type="curve" smooth="yes"/>
      <point x="301" y="647"/>
      <point x="346" y="609"/>
      <point x="346" y="547" type="curve" smooth="yes"/>
      <point x="346" y="425"/>
      <point x="167" y="445"/>
      <point x="167" y="277" type="curve" smooth="yes"/>
      <point x="167" y="218" type="line"/>
      <point x="223" y="218" type="line"/>
      <point x="223" y="273" type="line" smooth="yes"/>
      <point x="223" y="417"/>
      <point x="406" y="397"/>
      <point x="406" y="550" type="curve" smooth="yes"/>
      <point x="406" y="628"/>
      <point x="344" y="696"/>
      <point x="234" y="696" type="curve" smooth="yes"/>
    </contour>
    <contour>
      <point x="171" y="83"/>
      <point x="151" y="62"/>
      <point x="151" y="36" type="curve" smooth="yes"/>
      <point x="151" y="10"/>
      <point x="171" y="-11"/>
      <point x="198" y="-11" type="curve" smooth="yes"/>
      <point x="226" y="-11"/>
      <point x="245" y="10"/>
      <point x="245" y="36" type="curve" smooth="yes"/>
      <point x="245" y="62"/>
      <point x="226" y="83"/>
      <point x="198" y="83" type="curve" smooth="yes"/>
    </contour>
  </outline>
</glyph>
<glyph name="at" format="1">
  <advance width="1020"/>
  <unicode hex="0040"/>
  <outline>
    <contour>
      <point x="262" y="696"/>
      <point x="85" y="493"/>
      <point x="85" y="242" type="curve" smooth="yes"/>
      <point x="85" y="-36"/>
      <point x="268" y="-205"/>
      <point x="524" y="-205" type="curve" smooth="yes"/>
      <point x="614" y="-205"/>
      <point x="670" y="-190"/>
      <point x="729" y="-169" type="curve"/>
      <point x="714" y="-123" type="line"/>
      <point x="659" y="-143"/>
      <point x="601" y="-156"/>
      <point x="525" y="-156" type="curve" smooth="yes"/>
      <point x="292" y="-156"/>
      <point x="143" y="0"/>
      <point x="143" y="242" type="curve" smooth="yes"/>
      <point x="143" y="466"/>
      <point x="294" y="647"/>
      <point x="526" y="647" type="curve" smooth="yes"/>
      <point x="754" y="647"/>
      <point x="877" y="500"/>
      <point x="877" y="306" type="curve" smooth="yes"/>
      <point x="877" y="120"/>
      <point x="821" y="58"/>
      <point x="753" y="58" type="curve" smooth="yes"/>
      <point x="702" y="58"/>
      <point x="670" y="97"/>
      <point x="670" y="190" type="curve"/>
      <point x="629" y="148" type="line"/>
      <point x="633" y="79"/>
      <point x="672" y="12"/>
      <point x="754" y="12" type="curve" smooth="yes"/>
      <point x="857" y="12"/>
      <point x="935" y="108"/>
      <point x="935" y="308" type="curve" smooth="yes"/>
      <point x="935" y="514"/>
      <point x="796" y="696"/>
      <point x="526" y="696" type="curve" smooth="yes"/>
    </contour>
    <contour>
      <point x="408" y="484"/>
      <point x="316" y="403"/>
      <point x="316" y="232" type="curve" smooth="yes"/>
      <point x="316" y="93"/>
      <point x="389" y="14"/>
      <point x="484" y="14" type="curve" smooth="yes"/>
      <point x="563" y="14"/>
      <point x="611" y="65"/>
      <point x="637" y="134" type="curve"/>
      <point x="619" y="173" type="line"/>
      <point x="605" y="123"/>
      <point x="563" y="59"/>
      <point x="490" y="59" type="curve" smooth="yes"/>
      <point x="419" y="59"/>
      <point x="373" y="117"/>
      <point x="373" y="232" type="curve" smooth="yes"/>
      <point x="373" y="366"/>
      <point x="430" y="440"/>
      <point x="527" y="440" type="curve" smooth="yes"/>
      <point x="562" y="440"/>
      <point x="589" y="432"/>
      <point x="617" y="419" type="curve"/>
      <point x="617" y="156" type="line"/>
      <point x="639" y="122" type="line"/>
      <point x="670" y="162" type="line"/>
      <point x="670" y="447" type="line"/>
      <point x="625" y="471"/>
      <point x="577" y="484"/>
      <point x="525" y="484" type="curve" smooth="yes"/>
    </contour>
  </outline>
</glyph>
<glyph name="A" format="1">
  <advance width="565"/>
  <unicode hex="0041"/>
  <outline>
    <contour>
      <point x="246" y="685" type="line"/>
      <point x="17" y="0" type="line"/>
      <point x="76" y="0" type="line"/>
      <point x="282" y="637" type="line"/>
      <point x="486" y="0" type="line"/>
      <point x="548" y="0" type="line"/>
      <point x="319" y="685" type="line"/>
    </contour>
    <contour>
      <point x="140" y="238" type="line"/>
      <point x="124" y="188" type="line"/>
      <point x="438" y="188" type="line"/>
      <point x="422" y="238" type="line"/>
    </contour>
    <contour>
      <point x="157" y="685" type="move" name="topleft"/>
    </contour>
    <contour>
      <point x="282" y="685" type="move" name="top"/>
    </contour>
    <contour>
      <point x="540" y="0" type="move" name="ogonek"/>
    </contour>
  </outline>
</glyph>
<glyph name="B" format="1">
  <advance width="597"/>
  <unicode hex="0042"/>
  <outline>
    <contour>
      <point x="111" y="685" type="line"/>
      <point x="111" y="0" type="line"/>
      <point x="298" y="0" type="line" smooth="yes"/>
      <point x="448" y="0"/>
      <point x="544" y="60"/>
      <point x="544" y="190" type="curve" smooth="yes"/>
      <point x="544" y="308"/>
      <point x="469" y="354"/>
      <point x="386" y="363" type="curve"/>
      <point x="457" y="376"/>
      <point x="512" y="425"/>
      <point x="512" y="514" type="curve" smooth="yes"/>
      <point x="512" y="630"/>
      <point x="420" y="685"/>
      <point x="264" y="685" type="curve" smooth="yes"/>
    </contour>
    <contour>
      <point x="385" y="636"/>
      <point x="451" y="602"/>
      <point x="451" y="510" type="curve" smooth="yes"/>
      <point x="451" y="430"/>
      <point x="392" y="384"/>
      <point x="309" y="384" type="curve" smooth="yes"/>
      <point x="159" y="384" type="line"/>
      <point x="159" y="336" type="line"/>
      <point x="316" y="336" type="line" smooth="yes"/>
      <point x="410" y="336"/>
      <point x="482" y="294"/>
      <point x="482" y="190" type="curve" smooth="yes"/>
      <point x="482" y="88"/>
      <point x="410" y="49"/>
      <point x="298" y="49" type="curve" smooth="yes"/>
      <point x="170" y="49" type="line"/>
      <point x="170" y="636" type="line"/>
      <point x="270" y="636" type="line" smooth="yes"/>
    </contour>
  </outline>
</glyph>
<glyph name="C" format="1">
  <advance width="550"/>
  <unicode hex="0043"/>
  <outline>
    <contour>
      <point x="191" y="696"/>
      <point x="66" y="577"/>
      <point x="66" y="343" type="curve" smooth="yes"/>
      <point x="66" y="112"/>
      <point x="184" y="-11"/>
      <point x="342" y="-11" type="curve" smooth="yes"/>
      <point x="427" y="-11"/>
      <point x="486" y="21"/>
      <point x="527" y="59" type="curve"/>
      <point x="495" y="99" type="line"/>
      <point x="455" y="67"/>
      <point x="415" y="41"/>
      <point x="344" y="41" type="curve" smooth="yes"/>
      <point x="224" y="41"/>
      <point x="128" y="135"/>
      <point x="128" y="343" type="curve" smooth="yes"/>
      <point x="128" y="561"/>
      <point x="227" y="646"/>
      <point x="347" y="646" type="curve" smooth="yes"/>
      <point x="403" y="646"/>
      <point x="442" y="630"/>
      <point x="487" y="594" type="curve"/>
      <point x="519" y="633" type="line"/>
      <point x="470" y="672"/>
      <point x="423" y="696"/>
      <point x="343" y="696" type="curve" smooth="yes"/>
    </contour>
    <contour>
      <point x="344" y="685" type="move" name="top"/>
    </contour>
    <contour>
      <point x="343" y="0" type="move" name="bottom"/>
    </contour>
  </outline>
</glyph>
<glyph name="D" format="1">
  <advance width="632"/>
  <unicode hex="0044"/>
  <outline>
    <contour>
      <point x="111" y="685" type="line"/>
      <point x="111" y="0" type="line"/>
      <point x="258" y="0" type="line" smooth="yes"/>
      <point x="398" y="0"/>
      <point x="565" y="64"/>
      <point x="565" y="348" type="curve" smooth="yes"/>
      <point x="565" y="630"/>
      <point x="406" y="685"/>
      <point x="247" y="685" type="curve" smooth="yes"/>
    </contour>
    <contour>
      <point x="375" y="636"/>
      <point x="503" y="600"/>
      <point x="503" y="348" type="curve" smooth="yes"/>
      <point x="503" y="102"/>
      <point x="380" y="49"/>
      <point x="261" y="49" type="curve" smooth="yes"/>
      <point x="170" y="49" type="line"/>
      <point x="170" y="636" type="line"/>
      <point x="254" y="636" type="line" smooth="yes"/>
    </contour>
    <contour>
      <point x="300" y="685" type="move" name="top"/>
    </contour>
    <contour>
      <point x="320" y="343" type="move" name="center"/>
    </contour>
  </outline>
</glyph>
<glyph name="E" format="1">
  <advance width="511"/>
  <unicode hex="0045"/>
  <outline>
    <contour>
      <point x="111" y="685" type="line"/>
      <point x="111" y="0" type="line"/>
      <point x="465" y="0" type="line"/>
      <point x="465" y="49" type="line"/>
      <point x="170" y="49" type="line"/>
      <point x="170" y="331" type="line"/>
      <point x="413" y="331" type="line"/>
      <point x="413" y="380" type="line"/>
      <point x="170" y="380" type="line"/>
      <point x="170" y="636" type="line"/>
      <point x="451" y="636" type="line"/>
      <point x="458" y="685" type="line"/>
    </contour>
    <contour>
      <point x="90" y="685" type="move" name="topleft"/>
    </contour>
    <contour>
      <point x="289" y="685" type="move" name="top"/>
    </contour>
    <contour>
      <point x="444" y="0" type="move" name="ogonek"/>
    </contour>
    <contour>
      <point x="286" y="0" type="move" name="bottom"/>
    </contour>
  </outline>
</glyph>
<glyph name="F" format="1">
  <advance width="480"/>
  <unicode hex="0046"/>
  <outline>
    <contour>
      <point x="111" y="685" type="line"/>
      <point x="111" y="0" type="line"/>
      <point x="170" y="0" type="line"/>
      <point x="170" y="319" type="line"/>
      <point x="408" y="319" type="line"/>
      <point x="408" y="367" type="line"/>
      <point x="170" y="367" type="line"/>
      <point x="170" y="636" type="line"/>
      <point x="445" y="636" type="line"/>
      <point x="452" y="685" type="line"/>
    </contour>
  </outline>
</glyph>
<glyph name="G" format="1">
  <advance width="618"/>
  <unicode hex="0047"/>
  <outline>
    <contour>
      <point x="207" y="696"/>
      <point x="66" y="580"/>
      <point x="66" y="345" type="curve" smooth="yes"/>
      <point x="66" y="108"/>
      <point x="179" y="-11"/>
      <point x="346" y="-11" type="curve" smooth="yes"/>
      <point x="424" y="-11"/>
      <point x="492" y="10"/>
      <point x="552" y="45" type="curve"/>
      <point x="552" y="369" type="line"/>
      <point x="352" y="369" type="line"/>
      <point x="359" y="319" type="line"/>
      <point x="493" y="319" type="line"/>
      <point x="493" y="75" type="line"/>
      <point x="451" y="51"/>
      <point x="406" y="39"/>
      <point x="349" y="39" type="curve" smooth="yes"/>
      <point x="214" y="39"/>
      <point x="128" y="135"/>
      <point x="128" y="345" type="curve" smooth="yes"/>
      <point x="128" y="563"/>
      <point x="243" y="646"/>
      <point x="351" y="646" type="curve" smooth="yes"/>
      <point x="413" y="646"/>
      <point x="456" y="629"/>
      <point x="504" y="591" type="curve"/>
      <point x="540" y="628" type="line"/>
      <point x="484" y="673"/>
      <point x="432" y="696"/>
      <point x="350" y="696" type="curve" smooth="yes"/>
    </contour>
    <contour>
      <point x="352" y="685" type="move" name="top"/>
    </contour>
    <contour>
      <point x="340" y="0" type="move" name="bottom"/>
    </contour>
  </outline>
</glyph>
<glyph name="H" format="1">
  <advance width="670"/>
  <unicode hex="0048"/>
  <outline>
    <contour>
      <point x="559" y="0" type="line"/>
      <point x="559" y="685" type="line"/>
      <point x="500" y="685" type="line"/>
      <point x="500" y="386" type="line"/>
      <point x="170" y="386" type="line"/>
      <point x="170" y="685" type="line"/>
      <point x="111" y="685" type="line"/>
      <point x="111" y="0" type="line"/>
      <point x="170" y="0" type="line"/>
      <point x="170" y="335" type="line"/>
      <point x="500" y="335" type="line"/>
      <point x="500" y="0" type="line"/>
    </contour>
    <contour>
      <point x="90" y="685" type="move" name="topleft"/>
    </contour>
    <contour>
      <point x="334" y="685" type="move" name="top"/>
    </contour>
    <contour>
      <point x="334" y="343" type="move" name="center"/>
    </contour>
    <contour>
      <point x="569" y="0" type="move" name="bottomright"/>
    </contour>
  </outline>
</glyph>
<glyph name="I" format="1">
  <advance width="282"/>
  <unicode hex="0049"/>
  <outline>
    <contour>
      <point x="111" y="685" type="line"/>
      <point x="111" y="0" type="line"/>
      <point x="171" y="0" type="line"/>
      <point x="171" y="685" type="line"/>
    </contour>
    <contour>
      <point x="90" y="685" type="move" name="topleft"/>
    </contour>
    <contour>
      <point x="141" y="685" type="move" name="top"/>
    </contour>
    <contour>
      <point x="181" y="0" type="move" name="ogonek"/>
    </contour>
  </outline>
</glyph>
<glyph name="J" format="1">
  <advance width="290"/>
  <unicode hex="004A"/>
  <outline>
    <contour>
      <point x="126" y="685" type="line"/>
      <point x="126" y="94" type="line" smooth="yes"/>
      <point x="126" y="2"/>
      <point x="104" y="-35"/>
      <point x="13" y="-75" type="curve"/>
      <point x="29" y="-118" type="line"/>
      <point x="141" y="-75"/>
      <point x="185" y="-29"/>
      <point x="185" y="91" type="curve" smooth="yes"/>
      <point x="185" y="685" type="line"/>
    </contour>
    <contour>
      <point x="154" y="685" type="move" name="top"/>
    </contour>
  </outline>
</glyph>
<glyph name="K" format="1">
  <advance width="546"/>
  <unicode hex="004B"/>
  <outline>
    <contour>
      <point x="461" y="685" type="line"/>
      <point x="174" y="367" type="line"/>
      <point x="474" y="0" type="line"/>
      <point x="546" y="0" type="line"/>
      <point x="244" y="370" type="line"/>
      <point x="529" y="685" type="line"/>
    </contour>
    <contour>
      <point x="111" y="685" type="line"/>
      <point x="111" y="0" type="line"/>
      <point x="170" y="0" type="line"/>
      <point x="170" y="685" type="line"/>
    </contour>
    <contour>
      <point x="307" y="685" type="move" name="top"/>
    </contour>
    <contour>
      <point x="307" y="0" type="move" name="bottom"/>
    </contour>
  </outline>
</glyph>
<glyph name="L" format="1">
  <advance width="474"/>
  <unicode hex="004C"/>
  <outline>
    <contour>
      <point x="111" y="685" type="line"/>
      <point x="111" y="0" type="line"/>
      <point x="448" y="0" type="line"/>
      <point x="457" y="53" type="line"/>
      <point x="170" y="53" type="line"/>
      <point x="170" y="685" type="line"/>
    </contour>
    <contour>
      <point x="141" y="685" type="move" name="top"/>
    </contour>
    <contour>
      <point x="282" y="0" type="move" name="bottom"/>
    </contour>
    <contour>
      <point x="204" y="685" type="move" name="topright"/>
    </contour>
    <contour>
      <point x="369" y="370" type="move" name="center"/>
    </contour>
  </outline>
</glyph>
<glyph name="M" format="1">
  <advance width="778"/>
  <unicode hex="004D"/>
  <outline>
    <contour>
      <point x="552" y="685" type="line"/>
      <point x="386" y="150" type="line"/>
      <point x="216" y="685" type="line"/>
      <point x="134" y="685" type="line"/>
      <point x="69" y="0" type="line"/>
      <point x="125" y="0" type="line"/>
      <point x="155" y="331" type="line"/>
      <point x="165" y="435"/>
      <point x="176" y="560"/>
      <point x="178" y="628" type="curve"/>
      <point x="357" y="81" type="line"/>
      <point x="413" y="81" type="line"/>
      <point x="586" y="628" type="line"/>
      <point x="590" y="565"/>
      <point x="601" y="439"/>
      <point x="612" y="329" type="curve" smooth="yes"/>
      <point x="644" y="0" type="line"/>
      <point x="701" y="0" type="line"/>
      <point x="635" y="685" type="line"/>
    </contour>
  </outline>
</glyph>
<glyph name="N" format="1">
  <advance width="672"/>
  <unicode hex="004E"/>
  <outline>
    <contour>
      <point x="505" y="685" type="line"/>
      <point x="505" y="267" type="line"/>
      <point x="505" y="179"/>
      <point x="511" y="94"/>
      <point x="513" y="65" type="curve"/>
      <point x="187" y="685" type="line"/>
      <point x="111" y="685" type="line"/>
      <point x="111" y="0" type="line"/>
      <point x="167" y="0" type="line"/>
      <point x="167" y="385" type="line"/>
      <point x="167" y="508"/>
      <point x="163" y="573"/>
      <point x="159" y="620" type="curve"/>
      <point x="484" y="0" type="line"/>
      <point x="561" y="0" type="line"/>
      <point x="561" y="685" type="line"/>
    </contour>
    <contour>
      <point x="345" y="685" type="move" name="top"/>
    </contour>
    <contour>
      <point x="337" y="0" type="move" name="bottom"/>
    </contour>
  </outline>
</glyph>
<glyph name="O" format="1">
  <advance width="691"/>
  <unicode hex="004F"/>
  <outline>
    <contour>
      <point x="181" y="696"/>
      <point x="66" y="567"/>
      <point x="66" y="341" type="curve" smooth="yes"/>
      <point x="66" y="113"/>
      <point x="180" y="-11"/>
      <point x="345" y="-11" type="curve" smooth="yes"/>
      <point x="514" y="-11"/>
      <point x="625" y="117"/>
      <point x="625" y="342" type="curve" smooth="yes"/>
      <point x="625" y="573"/>
      <point x="512" y="696"/>
      <point x="345" y="696" type="curve" smooth="yes"/>
    </contour>
    <contour>
      <point x="478" y="646"/>
      <point x="563" y="550"/>
      <point x="563" y="342" type="curve" smooth="yes"/>
      <point x="563" y="136"/>
      <point x="479" y="39"/>
      <point x="345" y="39" type="curve" smooth="yes"/>
      <point x="218" y="39"/>
      <point x="128" y="136"/>
      <point x="128" y="341" type="curve" smooth="yes"/>
      <point x="128" y="549"/>
      <point x="216" y="646"/>
      <point x="345" y="646" type="curve"/>
    </contour>
    <contour>
      <point x="107" y="685" type="move" name="topleft"/>
    </contour>
    <contour>
      <point x="339" y="685" type="move" name="top"/>
    </contour>
  </outline>
</glyph>
<glyph name="P" format="1">
  <advance width="570"/>
  <unicode hex="0050"/>
  <outline>
    <contour>
      <point x="170" y="636" type="line"/>
      <point x="271" y="636" type="line" smooth="yes"/>
      <point x="392" y="636"/>
      <point x="463" y="596"/>
      <point x="463" y="479" type="curve" smooth="yes"/>
      <point x="463" y="352"/>
      <point x="383" y="316"/>
      <point x="269" y="316" type="curve" smooth="yes"/>
      <point x="159" y="316" type="line"/>
      <point x="159" y="267" type="line"/>
      <point x="269" y="267" type="line" smooth="yes"/>
      <point x="417" y="267"/>
      <point x="525" y="326"/>
      <point x="525" y="480" type="curve" smooth="yes"/>
      <point x="525" y="622"/>
      <point x="431" y="685"/>
      <point x="271" y="685" type="curve" smooth="yes"/>
      <point x="111" y="685" type="line"/>
      <point x="111" y="0" type="line"/>
      <point x="170" y="0" type="line"/>
    </contour>
  </outline>
</glyph>
<glyph name="Q" format="1">
  <advance width="681"/>
  <unicode hex="0051"/>
  <outline>
    <contour>
      <point x="181" y="696"/>
      <point x="66" y="567"/>
      <point x="66" y="341" type="curve" smooth="yes"/>
      <point x="66" y="113"/>
      <point x="180" y="-9"/>
      <point x="345" y="-9" type="curve" smooth="yes"/>
      <point x="362" y="-9"/>
      <point x="378" y="-7"/>
      <point x="394" y="-5" type="curve"/>
      <point x="451" y="23" type="line"/>
      <point x="552" y="61"/>
      <point x="625" y="153"/>
      <point x="625" y="342" type="curve" smooth="yes"/>
      <point x="625" y="573"/>
      <point x="512" y="696"/>
      <point x="345" y="696" type="curve" smooth="yes"/>
    </contour>
    <contour>
      <point x="345" y="-9" type="line"/>
      <point x="467" y="-9"/>
      <point x="535" y="-27"/>
      <point x="610" y="-92" type="curve"/>
      <point x="649" y="-43" type="line"/>
      <point x="596" y="1"/>
      <point x="526" y="22"/>
      <point x="451" y="23" type="curve"/>
    </contour>
    <contour>
      <point x="478" y="646"/>
      <point x="563" y="550"/>
      <point x="563" y="342" type="curve" smooth="yes"/>
      <point x="563" y="136"/>
      <point x="479" y="39"/>
      <point x="345" y="39" type="curve" smooth="yes"/>
      <point x="218" y="39"/>
      <point x="128" y="136"/>
      <point x="128" y="341" type="curve" smooth="yes"/>
      <point x="128" y="549"/>
      <point x="216" y="646"/>
      <point x="345" y="646" type="curve"/>
    </contour>
  </outline>
</glyph>
<glyph name="R" format="1">
  <advance width="589"/>
  <unicode hex="0052"/>
  <outline>
    <contour>
      <point x="111" y="685" type="line"/>
      <point x="111" y="0" type="line"/>
      <point x="170" y="0" type="line"/>
      <point x="170" y="636" type="line"/>
      <point x="274" y="636" type="line" smooth="yes"/>
      <point x="407" y="636"/>
      <point x="458" y="591"/>
      <point x="458" y="499" type="curve" smooth="yes"/>
      <point x="458" y="399"/>
      <point x="394" y="356"/>
      <point x="285" y="356" type="curve" smooth="yes"/>
      <point x="159" y="356" type="line"/>
      <point x="159" y="308" type="line"/>
      <point x="313" y="308" type="line"/>
      <point x="443" y="326"/>
      <point x="520" y="379"/>
      <point x="520" y="499" type="curve" smooth="yes"/>
      <point x="520" y="620"/>
      <point x="442" y="685"/>
      <point x="277" y="685" type="curve" smooth="yes"/>
    </contour>
    <contour>
      <point x="302" y="318" type="line"/>
      <point x="485" y="0" type="line"/>
      <point x="556" y="0" type="line"/>
      <point x="363" y="325" type="line"/>
    </contour>
    <contour>
      <point x="294" y="685" type="move" name="top"/>
    </contour>
    <contour>
      <point x="307" y="0" type="move" name="bottom"/>
    </contour>
  </outline>
</glyph>
<glyph name="S" format="1">
  <advance width="539"/>
  <unicode hex="0053"/>
  <outline>
    <contour>
      <point x="148" y="696"/>
      <point x="67" y="625"/>
      <point x="67" y="528" type="curve" smooth="yes"/>
      <point x="67" y="430"/>
      <point x="125" y="382"/>
      <point x="262" y="340" type="curve" smooth="yes"/>
      <point x="384" y="302"/>
      <point x="424" y="268"/>
      <point x="424" y="185" type="curve" smooth="yes"/>
      <point x="424" y="92"/>
      <point x="354" y="39"/>
      <point x="257" y="39" type="curve" smooth="yes"/>
      <point x="177" y="39"/>
      <point x="122" y="68"/>
      <point x="74" y="113" type="curve"/>
      <point x="39" y="75" type="line"/>
      <point x="95" y="22"/>
      <point x="165" y="-11"/>
      <point x="258" y="-11" type="curve" smooth="yes"/>
      <point x="395" y="-11"/>
      <point x="485" y="70"/>
      <point x="485" y="187" type="curve" smooth="yes"/>
      <point x="485" y="308"/>
      <point x="410" y="352"/>
      <point x="286" y="390" type="curve" smooth="yes"/>
      <point x="164" y="427"/>
      <point x="126" y="459"/>
      <point x="126" y="530" type="curve" smooth="yes"/>
      <point x="126" y="601"/>
      <point x="185" y="646"/>
      <point x="269" y="646" type="curve" smooth="yes"/>
      <point x="332" y="646"/>
      <point x="378" y="627"/>
      <point x="428" y="582" type="curve"/>
      <point x="463" y="620" type="line"/>
      <point x="410" y="668"/>
      <point x="356" y="696"/>
      <point x="267" y="696" type="curve" smooth="yes"/>
    </contour>
    <contour>
      <point x="271" y="685" type="move" name="top"/>
    </contour>
    <contour>
      <point x="264" y="0" type="move" name="bottom"/>
    </contour>
  </outline>
</glyph>
<glyph name="T" format="1">
  <advance width="494"/>
  <unicode hex="0054"/>
  <outline>
    <contour>
      <point x="15" y="685" type="line"/>
      <point x="15" y="633" type="line"/>
      <point x="218" y="633" type="line"/>
      <point x="218" y="0" type="line"/>
      <point x="277" y="0" type="line"/>
      <point x="277" y="633" type="line"/>
      <point x="477" y="633" type="line"/>
      <point x="484" y="685" type="line"/>
    </contour>
    <contour>
      <point x="242" y="685" type="move" name="top"/>
    </contour>
    <contour>
      <point x="287" y="0" type="move" name="bottomright"/>
    </contour>
    <contour>
      <point x="248" y="0" type="move" name="bottom"/>
    </contour>
  </outline>
</glyph>
<glyph name="U" format="1">
  <advance width="651"/>
  <unicode hex="0055"/>
  <outline>
    <contour>
      <point x="491" y="685" type="line"/>
      <point x="491" y="218" type="line" smooth="yes"/>
      <point x="491" y="109"/>
      <point x="441" y="40"/>
      <point x="325" y="40" type="curve" smooth="yes"/>
      <point x="211" y="40"/>
      <point x="160" y="107"/>
      <point x="160" y="218" type="curve" smooth="yes"/>
      <point x="160" y="685" type="line"/>
      <point x="101" y="685" type="line"/>
      <point x="101" y="214" type="line" smooth="yes"/>
      <point x="101" y="82"/>
      <point x="173" y="-11"/>
      <point x="325" y="-11" type="curve" smooth="yes"/>
      <point x="476" y="-11"/>
      <point x="550" y="82"/>
      <point x="550" y="214" type="curve" smooth="yes"/>
      <point x="550" y="685" type="line"/>
    </contour>
    <contour>
      <point x="328" y="685" type="move" name="top"/>
    </contour>
    <contour>
      <point x="416" y="0" type="move" name="ogonek"/>
    </contour>
  </outline>
</glyph>
<glyph name="V" format="1">
  <advance width="546"/>
  <unicode hex="0056"/>
  <outline>
    <contour>
      <point x="469" y="685" type="line"/>
      <point x="274" y="61" type="line"/>
      <point x="80" y="685" type="line"/>
      <point x="17" y="685" type="line"/>
      <point x="240" y="0" type="line"/>
      <point x="306" y="0" type="line"/>
      <point x="529" y="685" type="line"/>
    </contour>
  </outline>
</glyph>
<glyph name="W" format="1">
  <advance width="809"/>
  <unicode hex="0057"/>
  <outline>
    <contour>
      <point x="722" y="685" type="line"/>
      <point x="591" y="54" type="line"/>
      <point x="437" y="685" type="line"/>
      <point x="372" y="685" type="line"/>
      <point x="221" y="54" type="line"/>
      <point x="90" y="685" type="line"/>
      <point x="31" y="685" type="line"/>
      <point x="181" y="0" type="line"/>
      <point x="254" y="0" type="line"/>
      <point x="404" y="619" type="line"/>
      <point x="554" y="0" type="line"/>
      <point x="628" y="0" type="line"/>
      <point x="778" y="685" type="line"/>
    </contour>
    <contour>
      <point x="405" y="685" type="move" name="top"/>
    </contour>
  </outline>
</glyph>
<glyph name="X" format="1">
  <advance width="511"/>
  <unicode hex="0058"/>
  <outline>
    <contour>
      <point x="31" y="685" type="line"/>
      <point x="219" y="368" type="line"/>
      <point x="254" y="330" type="line"/>
      <point x="436" y="0" type="line"/>
      <point x="503" y="0" type="line"/>
      <point x="289" y="371" type="line"/>
      <point x="255" y="406" type="line"/>
      <point x="98" y="685" type="line"/>
    </contour>
    <contour>
      <point x="411" y="685" type="line"/>
      <point x="255" y="406" type="line"/>
      <point x="219" y="368" type="line"/>
      <point x="11" y="0" type="line"/>
      <point x="74" y="0" type="line"/>
      <point x="254" y="330" type="line"/>
      <point x="289" y="371" type="line"/>
      <point x="475" y="685" type="line"/>
    </contour>
    <contour>
      <point x="467" y="0" type="move" name="bottomright"/>
    </contour>
  </outline>
</glyph>
<glyph name="Y" format="1">
  <advance width="522"/>
  <unicode hex="0059"/>
  <outline>
    <contour>
      <point x="445" y="685" type="line"/>
      <point x="263" y="319" type="line"/>
      <point x="79" y="685" type="line"/>
      <point x="13" y="685" type="line"/>
      <point x="232" y="267" type="line"/>
      <point x="232" y="0" type="line"/>
      <point x="291" y="0" type="line"/>
      <point x="291" y="268" type="line"/>
      <point x="508" y="685" type="line"/>
    </contour>
    <contour>
      <point x="11" y="685" type="move" name="topleft"/>
    </contour>
    <contour>
      <point x="260" y="685" type="move" name="top"/>
    </contour>
  </outline>
</glyph>
<glyph name="Z" format="1">
  <advance width="516"/>
  <unicode hex="005A"/>
  <outline>
    <contour>
      <point x="73" y="685" type="line"/>
      <point x="73" y="634" type="line"/>
      <point x="403" y="634" type="line"/>
      <point x="36" y="49" type="line"/>
      <point x="36" y="0" type="line"/>
      <point x="454" y="0" type="line"/>
      <point x="461" y="52" type="line"/>
      <point x="103" y="52" type="line"/>
      <point x="468" y="636" type="line"/>
      <point x="468" y="685" type="line"/>
    </contour>
    <contour>
      <point x="263" y="685" type="move" name="top"/>
    </contour>
  </outline>
</glyph>
<glyph name="bracketleft" format="1">
  <advance width="317"/>
  <unicode hex="005B"/>
  <outline>
    <contour>
      <point x="85" y="806" type="line"/>
      <point x="85" y="-112" type="line"/>
      <point x="250" y="-112" type="line"/>
      <point x="250" y="-66" type="line"/>
      <point x="138" y="-66" type="line"/>
      <point x="138" y="760" type="line"/>
      <point x="250" y="760" type="line"/>
      <point x="250" y="806" type="line"/>
    </contour>
  </outline>
</glyph>
<glyph name="backslash" format="1">
  <advance width="520"/>
  <unicode hex="005C"/>
  <outline>
    <contour>
      <point x="119" y="791" type="line"/>
      <point x="351" y="-99" type="line"/>
      <point x="400" y="-87" type="line"/>
      <point x="168" y="802" type="line"/>
    </contour>
  </outline>
</glyph>
<glyph name="bracketright" format="1">
  <advance width="317"/>
  <unicode hex="005D"/>
  <outline>
    <contour>
      <point x="67" y="806" type="line"/>
      <point x="67" y="760" type="line"/>
      <point x="179" y="760" type="line"/>
      <point x="179" y="-66" type="line"/>
      <point x="67" y="-66" type="line"/>
      <point x="67" y="-112" type="line"/>
      <point x="232" y="-112" type="line"/>
      <point x="232" y="806" type="line"/>
    </contour>
  </outline>
</glyph>
<glyph name="asciicircum" format="1">
  <advance width="530"/>
  <unicode hex="005E"/>
  <outline>
    <contour>
      <point x="241" y="832" type="line"/>
      <point x="57" y="527" type="line"/>
      <point x="121" y="527" type="line"/>
      <point x="265" y="776" type="line"/>
      <point x="409" y="527" type="line"/>
      <point x="473" y="527" type="line"/>
      <point x="289" y="832" type="line"/>
    </contour>
  </outline>
</glyph>
<glyph name="underscore" format="1">
  <advance width="520"/>
  <unicode hex="005F"/>
  <outline>
    <contour>
      <point x="492" y="-121" type="line"/>
      <point x="492" y="-71" type="line"/>
      <point x="29" y="-71" type="line"/>
      <point x="29" y="-121" type="line"/>
    </contour>
  </outline>
</glyph>
<glyph name="grave" format="1">
  <advance width="273"/>
  <unicode hex="0060"/>
  <outline>
    <contour>
      <point x="30" y="730" type="line"/>
      <point x="225" y="645" type="line"/>
      <point x="243" y="679" type="line"/>
      <point x="56" y="782" type="line"/>
    </contour>
    <contour>
      <point x="130" y="523" type="move" name="_top"/>
    </contour>
  </outline>
</glyph>
<glyph name="a" format="1">
  <advance width="536"/>
  <unicode hex="0061"/>
  <outline>
    <contour>
      <point x="205" y="534"/>
      <point x="153" y="521"/>
      <point x="95" y="499" type="curve"/>
      <point x="111" y="455" type="line"/>
      <point x="162" y="474"/>
      <point x="210" y="485"/>
      <point x="253" y="485" type="curve" smooth="yes"/>
      <point x="340" y="485"/>
      <point x="374" y="448"/>
      <point x="374" y="365" type="curve"/>
      <point x="374" y="117" type="line"/>
      <point x="379" y="93" type="line"/>
      <point x="384" y="26"/>
      <point x="412" y="0"/>
      <point x="462" y="-11" type="curve"/>
      <point x="475" y="29" type="line"/>
      <point x="446" y="40"/>
      <point x="431" y="57"/>
      <point x="431" y="116" type="curve" smooth="yes"/>
      <point x="431" y="369" type="line" smooth="yes"/>
      <point x="431" y="475"/>
      <point x="378" y="534"/>
      <point x="260" y="534" type="curve" smooth="yes"/>
    </contour>
    <contour>
      <point x="273" y="315" type="line"/>
      <point x="140" y="315"/>
      <point x="56" y="255"/>
      <point x="56" y="145" type="curve" smooth="yes"/>
      <point x="56" y="52"/>
      <point x="117" y="-11"/>
      <point x="219" y="-11" type="curve" smooth="yes"/>
      <point x="293" y="-11"/>
      <point x="351" y="22"/>
      <point x="388" y="89" type="curve"/>
      <point x="380" y="142" type="line"/>
      <point x="347" y="74"/>
      <point x="300" y="35"/>
      <point x="228" y="35" type="curve" smooth="yes"/>
      <point x="158" y="35"/>
      <point x="117" y="75"/>
      <point x="117" y="147" type="curve" smooth="yes"/>
      <point x="117" y="231"/>
      <point x="177" y="272"/>
      <point x="282" y="272" type="curve" smooth="yes"/>
      <point x="384" y="272" type="line"/>
      <point x="384" y="315" type="line"/>
    </contour>
    <contour>
      <point x="258" y="523" type="move" name="top"/>
    </contour>
    <contour>
      <point x="472" y="-11" type="move" name="ogonek"/>
    </contour>
  </outline>
</glyph>
<glyph name="b" format="1">
  <advance width="580"/>
  <unicode hex="0062"/>
  <outline>
    <contour>
      <point x="247" y="534"/>
      <point x="193" y="495"/>
      <point x="155" y="438" type="curve"/>
      <point x="156" y="386" type="line"/>
      <point x="194" y="441"/>
      <point x="237" y="486"/>
      <point x="309" y="486" type="curve" smooth="yes"/>
      <point x="399" y="486"/>
      <point x="450" y="419"/>
      <point x="450" y="264" type="curve" smooth="yes"/>
      <point x="450" y="112"/>
      <point x="395" y="37"/>
      <point x="302" y="37" type="curve" smooth="yes"/>
      <point x="238" y="37"/>
      <point x="189" y="76"/>
      <point x="156" y="131" type="curve"/>
      <point x="152" y="80" type="line"/>
      <point x="185" y="29"/>
      <point x="240" y="-11"/>
      <point x="313" y="-11" type="curve" smooth="yes"/>
      <point x="439" y="-11"/>
      <point x="511" y="96"/>
      <point x="511" y="264" type="curve" smooth="yes"/>
      <point x="511" y="438"/>
      <point x="440" y="534"/>
      <point x="321" y="534" type="curve" smooth="yes"/>
    </contour>
    <contour>
      <point x="106" y="736" type="line"/>
      <point x="106" y="0" type="line"/>
      <point x="156" y="0" type="line"/>
      <point x="163" y="85" type="line"/>
      <point x="163" y="743" type="line"/>
    </contour>
  </outline>
</glyph>
<glyph name="d" format="1">
  <advance width="585"/>
  <unicode hex="0064"/>
  <outline>
    <contour>
      <point x="146" y="534"/>
      <point x="69" y="420"/>
      <point x="69" y="259" type="curve" smooth="yes"/>
      <point x="69" y="93"/>
      <point x="144" y="-11"/>
      <point x="265" y="-11" type="curve" smooth="yes"/>
      <point x="346" y="-11"/>
      <point x="399" y="33"/>
      <point x="428" y="90" type="curve"/>
      <point x="428" y="145" type="line"/>
      <point x="391" y="77"/>
      <point x="349" y="37"/>
      <point x="274" y="37" type="curve" smooth="yes"/>
      <point x="185" y="37"/>
      <point x="131" y="114"/>
      <point x="130" y="260" type="curve" smooth="yes"/>
      <point x="129" y="407"/>
      <point x="192" y="486"/>
      <point x="284" y="486" type="curve" smooth="yes"/>
      <point x="354" y="486"/>
      <point x="397" y="445"/>
      <point x="430" y="395" type="curve"/>
      <point x="429" y="453" type="line"/>
      <point x="399" y="493"/>
      <point x="353" y="534"/>
      <point x="275" y="534" type="curve" smooth="yes"/>
    </contour>
    <contour>
      <point x="422" y="120" type="line"/>
      <point x="422" y="93" type="line"/>
      <point x="429" y="0" type="line"/>
      <point x="479" y="0" type="line"/>
      <point x="479" y="736" type="line"/>
      <point x="422" y="743" type="line"/>
    </contour>
    <contour>
      <point x="297" y="262" type="move" name="center"/>
    </contour>
    <contour>
      <point x="504" y="736" type="move" name="topright"/>
    </contour>
  </outline>
</glyph>
<glyph name="e" format="1">
  <advance width="538"/>
  <unicode hex="0065"/>
  <outline>
    <contour>
      <point x="146" y="534"/>
      <point x="64" y="424"/>
      <point x="64" y="257" type="curve" smooth="yes"/>
      <point x="64" y="89"/>
      <point x="149" y="-11"/>
      <point x="285" y="-11" type="curve" smooth="yes"/>
      <point x="355" y="-11"/>
      <point x="408" y="13"/>
      <point x="457" y="53" type="curve"/>
      <point x="429" y="89" type="line"/>
      <point x="384" y="55"/>
      <point x="346" y="38"/>
      <point x="289" y="38" type="curve" smooth="yes"/>
      <point x="194" y="38"/>
      <point x="126" y="103"/>
      <point x="124" y="260" type="curve"/>
      <point x="124" y="419"/>
      <point x="189" y="486"/>
      <point x="275" y="486" type="curve" smooth="yes"/>
      <point x="374" y="486"/>
      <point x="420" y="413"/>
      <point x="420" y="299" type="curve" smooth="yes"/>
      <point x="420" y="290"/>
      <point x="420" y="287"/>
      <point x="420" y="283" type="curve"/>
      <point x="115" y="283" type="line"/>
      <point x="115" y="239" type="line"/>
      <point x="475" y="239" type="line"/>
      <point x="476" y="249"/>
      <point x="477" y="265"/>
      <point x="477" y="281" type="curve" smooth="yes"/>
      <point x="477" y="435"/>
      <point x="408" y="534"/>
      <point x="273" y="534" type="curve" smooth="yes"/>
    </contour>
    <contour>
      <point x="276" y="523" type="move" name="top"/>
    </contour>
    <contour>
      <point x="385" y="5" type="move" name="ogonek"/>
    </contour>
    <contour>
      <point x="289" y="0" type="move" name="bottom"/>
    </contour>
  </outline>
</glyph>
<glyph name="f" format="1">
  <advance width="321"/>
  <unicode hex="0066"/>
  <outline>
    <contour>
      <point x="167" y="743"/>
      <point x="112" y="692"/>
      <point x="112" y="609" type="curve" smooth="yes"/>
      <point x="112" y="0" type="line"/>
      <point x="169" y="0" type="line"/>
      <point x="169" y="607" type="line" smooth="yes"/>
      <point x="169" y="669"/>
      <point x="200" y="695"/>
      <point x="260" y="695" type="curve" smooth="yes"/>
      <point x="293" y="695"/>
      <point x="325" y="688"/>
      <point x="359" y="672" type="curve"/>
      <point x="378" y="715" type="line"/>
      <point x="340" y="733"/>
      <point x="302" y="743"/>
      <point x="257" y="743" type="curve" smooth="yes"/>
    </contour>
    <contour>
      <point x="21" y="523" type="line"/>
      <point x="21" y="477" type="line"/>
      <point x="300" y="477" type="line"/>
      <point x="307" y="523" type="line"/>
    </contour>
  </outline>
</glyph>
<glyph name="g" format="1">
  <advance width="502"/>
  <unicode hex="0067"/>
  <outline>
    <contour>
      <point x="425" y="547"/>
      <point x="388" y="532"/>
      <point x="247" y="534" type="curve" smooth="yes"/>
      <point x="133" y="534"/>
      <point x="56" y="462"/>
      <point x="56" y="357" type="curve" smooth="yes"/>
      <point x="56" y="288"/>
      <point x="85" y="240"/>
      <point x="144" y="210" type="curve"/>
      <point x="108" y="187"/>
      <point x="87" y="156"/>
      <point x="87" y="121" type="curve" smooth="yes"/>
      <point x="87" y="71"/>
      <point x="129" y="29"/>
      <point x="216" y="29" type="curve" smooth="yes"/>
      <point x="301" y="29" type="line" smooth="yes"/>
      <point x="375" y="29"/>
      <point x="419" y="-2"/>
      <point x="419" y="-58" type="curve" smooth="yes"/>
      <point x="419" y="-120"/>
      <point x="373" y="-158"/>
      <point x="251" y="-158" type="curve" smooth="yes"/>
      <point x="125" y="-158"/>
      <point x="88" y="-129"/>
      <point x="87" y="-55" type="curve"/>
      <point x="33" y="-55" type="line"/>
      <point x="33" y="-159"/>
      <point x="93" y="-205"/>
      <point x="251" y="-205" type="curve" smooth="yes"/>
      <point x="403" y="-205"/>
      <point x="477" y="-149"/>
      <point x="477" y="-55" type="curve" smooth="yes"/>
      <point x="477" y="23"/>
      <point x="414" y="78"/>
      <point x="310" y="78" type="curve" smooth="yes"/>
      <point x="225" y="78" type="line" smooth="yes"/>
      <point x="162" y="78"/>
      <point x="141" y="102"/>
      <point x="141" y="133" type="curve" smooth="yes"/>
      <point x="141" y="157"/>
      <point x="157" y="179"/>
      <point x="181" y="193" type="curve"/>
      <point x="202" y="186"/>
      <point x="224" y="183"/>
      <point x="250" y="183" type="curve" smooth="yes"/>
      <point x="368" y="183"/>
      <point x="439" y="253"/>
      <point x="439" y="355" type="curve" smooth="yes"/>
      <point x="439" y="427"/>
      <point x="405" y="472"/>
      <point x="350" y="498" type="curve"/>
      <point x="413" y="498"/>
      <point x="459" y="502"/>
      <point x="494" y="513" type="curve"/>
      <point x="477" y="567" type="line"/>
    </contour>
    <contour>
      <point x="337" y="490"/>
      <point x="380" y="438"/>
      <point x="380" y="356" type="curve" smooth="yes"/>
      <point x="380" y="273"/>
      <point x="333" y="225"/>
      <point x="248" y="225" type="curve" smooth="yes"/>
      <point x="168" y="225"/>
      <point x="115" y="273"/>
      <point x="115" y="357" type="curve" smooth="yes"/>
      <point x="115" y="435"/>
      <point x="158" y="490"/>
      <point x="248" y="490" type="curve" smooth="yes"/>
    </contour>
    <contour>
      <point x="252" y="523" type="move" name="top"/>
    </contour>
  </outline>
</glyph>
<glyph name="h" format="1">
  <advance width="584"/>
  <unicode hex="0068"/>
  <outline>
    <contour>
      <point x="255" y="534"/>
      <point x="195" y="487"/>
      <point x="151" y="418" type="curve"/>
      <point x="163" y="380" type="line"/>
      <point x="206" y="443"/>
      <point x="255" y="487"/>
      <point x="326" y="487" type="curve" smooth="yes"/>
      <point x="390" y="487"/>
      <point x="425" y="451"/>
      <point x="425" y="366" type="curve" smooth="yes"/>
      <point x="425" y="0" type="line"/>
      <point x="482" y="0" type="line"/>
      <point x="482" y="373" type="line" smooth="yes"/>
      <point x="482" y="473"/>
      <point x="431" y="534"/>
      <point x="337" y="534" type="curve" smooth="yes"/>
    </contour>
    <contour>
      <point x="106" y="736" type="line"/>
      <point x="106" y="0" type="line"/>
      <point x="163" y="0" type="line"/>
      <point x="163" y="743" type="line"/>
    </contour>
    <contour>
      <point x="294" y="736" type="move" name="top"/>
    </contour>
    <contour>
      <point x="294" y="262" type="move" name="center"/>
    </contour>
  </outline>
</glyph>
<glyph name="k" format="1">
  <advance width="488"/>
  <unicode hex="006B"/>
  <outline>
    <contour>
      <point x="390" y="523" type="line"/>
      <point x="169" y="286" type="line"/>
      <point x="410" y="0" type="line"/>
      <point x="479" y="0" type="line"/>
      <point x="236" y="289" type="line"/>
      <point x="456" y="523" type="line"/>
    </contour>
    <contour>
      <point x="106" y="736" type="line"/>
      <point x="106" y="0" type="line"/>
      <point x="163" y="0" type="line"/>
      <point x="163" y="743" type="line"/>
    </contour>
    <contour>
      <point x="262" y="0" type="move" name="bottom"/>
    </contour>
  </outline>
</glyph>
<glyph name="l" format="1">
  <advance width="284"/>
  <unicode hex="006C"/>
  <outline>
    <contour>
      <point x="101" y="736" type="line"/>
      <point x="101" y="89" type="line" smooth="yes"/>
      <point x="101" y="21"/>
      <point x="135" y="-11"/>
      <point x="191" y="-11" type="curve" smooth="yes"/>
      <point x="213" y="-11"/>
      <point x="234" y="-5"/>
      <point x="253" y="3" type="curve"/>
      <point x="237" y="45" type="line"/>
      <point x="226" y="41"/>
      <point x="214" y="38"/>
      <point x="201" y="38" type="curve" smooth="yes"/>
      <point x="170" y="38"/>
      <point x="158" y="55"/>
      <point x="158" y="90" type="curve" smooth="yes"/>
      <point x="158" y="743" type="line"/>
    </contour>
    <contour>
      <point x="137" y="0" type="move" name="bottom"/>
    </contour>
    <contour>
      <point x="276" y="377" type="move" name="center"/>
    </contour>
    <contour>
      <point x="186" y="736" type="move" name="topright"/>
    </contour>
  </outline>
</glyph>
<glyph name="m" format="1">
  <advance width="852"/>
  <unicode hex="006D"/>
  <outline>
    <contour>
      <point x="248" y="534"/>
      <point x="191" y="487"/>
      <point x="151" y="419" type="curve"/>
      <point x="163" y="379" type="line"/>
      <point x="203" y="443"/>
      <point x="248" y="487"/>
      <point x="311" y="487" type="curve" smooth="yes"/>
      <point x="366" y="487"/>
      <point x="400" y="451"/>
      <point x="400" y="366" type="curve" smooth="yes"/>
      <point x="400" y="0" type="line"/>
      <point x="457" y="0" type="line"/>
      <point x="457" y="384" type="line"/>
      <point x="455" y="406" type="line"/>
      <point x="445" y="486"/>
      <point x="396" y="534"/>
      <point x="322" y="534" type="curve" smooth="yes"/>
    </contour>
    <contour>
      <point x="106" y="523" type="line"/>
      <point x="106" y="0" type="line"/>
      <point x="163" y="0" type="line"/>
      <point x="163" y="393" type="line"/>
      <point x="155" y="523" type="line"/>
    </contour>
    <contour>
      <point x="542" y="534"/>
      <point x="485" y="487"/>
      <point x="444" y="419" type="curve"/>
      <point x="457" y="379" type="line"/>
      <point x="497" y="443"/>
      <point x="542" y="487"/>
      <point x="605" y="487" type="curve" smooth="yes"/>
      <point x="659" y="487"/>
      <point x="694" y="451"/>
      <point x="694" y="366" type="curve" smooth="yes"/>
      <point x="694" y="0" type="line"/>
      <point x="751" y="0" type="line"/>
      <point x="751" y="373" type="line" smooth="yes"/>
      <point x="751" y="473"/>
      <point x="700" y="534"/>
      <point x="616" y="534" type="curve" smooth="yes"/>
    </contour>
  </outline>
</glyph>
<glyph name="n" format="1">
  <advance width="584"/>
  <unicode hex="006E"/>
  <outline>
    <contour>
      <point x="255" y="534"/>
      <point x="193" y="487"/>
      <point x="151" y="419" type="curve"/>
      <point x="163" y="379" type="line"/>
      <point x="206" y="443"/>
      <point x="255" y="487"/>
      <point x="327" y="487" type="curve" smooth="yes"/>
      <point x="391" y="487"/>
      <point x="425" y="452"/>
      <point x="425" y="366" type="curve" smooth="yes"/>
      <point x="425" y="0" type="line"/>
      <point x="482" y="0" type="line"/>
      <point x="482" y="373" type="line" smooth="yes"/>
      <point x="482" y="475"/>
      <point x="432" y="534"/>
      <point x="337" y="534" type="curve" smooth="yes"/>
    </contour>
    <contour>
      <point x="106" y="523" type="line"/>
      <point x="106" y="0" type="line"/>
      <point x="163" y="0" type="line"/>
      <point x="163" y="393" type="line"/>
      <point x="155" y="523" type="line"/>
    </contour>
    <contour>
      <point x="96" y="523" type="move" name="topleft"/>
    </contour>
    <contour>
      <point x="297" y="523" type="move" name="top"/>
    </contour>
    <contour>
      <point x="291" y="0" type="move" name="bottom"/>
    </contour>
  </outline>
</glyph>
<glyph name="o" format="1">
  <advance width="571"/>
  <unicode hex="006F"/>
  <outline>
    <contour>
      <point x="149" y="534"/>
      <point x="64" y="429"/>
      <point x="64" y="261" type="curve" smooth="yes"/>
      <point x="64" y="93"/>
      <point x="147" y="-11"/>
      <point x="285" y="-11" type="curve" smooth="yes"/>
      <point x="422" y="-11"/>
      <point x="507" y="94"/>
      <point x="507" y="263" type="curve" smooth="yes"/>
      <point x="507" y="434"/>
      <point x="424" y="534"/>
      <point x="286" y="534" type="curve" smooth="yes"/>
    </contour>
    <contour>
      <point x="387" y="486"/>
      <point x="446" y="411"/>
      <point x="446" y="263" type="curve" smooth="yes"/>
      <point x="446" y="113"/>
      <point x="386" y="37"/>
      <point x="285" y="37" type="curve" smooth="yes"/>
      <point x="184" y="37"/>
      <point x="125" y="114"/>
      <point x="125" y="261" type="curve" smooth="yes"/>
      <point x="125" y="411"/>
      <point x="186" y="486"/>
      <point x="286" y="486" type="curve" smooth="yes"/>
    </contour>
    <contour>
      <point x="286" y="523" type="move" name="top"/>
    </contour>
  </outline>
</glyph>
<glyph name="p" format="1">
  <advance width="580"/>
  <unicode hex="0070"/>
  <outline>
    <contour>
      <point x="249" y="534"/>
      <point x="191" y="495"/>
      <point x="152" y="435" type="curve"/>
      <point x="156" y="386" type="line"/>
      <point x="194" y="441"/>
      <point x="240" y="486"/>
      <point x="311" y="486" type="curve" smooth="yes"/>
      <point x="403" y="486"/>
      <point x="450" y="413"/>
      <point x="450" y="264" type="curve" smooth="yes"/>
      <point x="450" y="114"/>
      <point x="398" y="38"/>
      <point x="302" y="38" type="curve" smooth="yes"/>
      <point x="238" y="38"/>
      <point x="189" y="74"/>
      <point x="156" y="129" type="curve"/>
      <point x="154" y="74" type="line"/>
      <point x="186" y="25"/>
      <point x="241" y="-11"/>
      <point x="313" y="-11" type="curve" smooth="yes"/>
      <point x="442" y="-11"/>
      <point x="511" y="98"/>
      <point x="511" y="264" type="curve" smooth="yes"/>
      <point x="511" y="433"/>
      <point x="450" y="534"/>
      <point x="321" y="534" type="curve" smooth="yes"/>
    </contour>
    <contour>
      <point x="106" y="523" type="line"/>
      <point x="106" y="-205" type="line"/>
      <point x="163" y="-197" type="line"/>
      <point x="163" y="407" type="line"/>
      <point x="161" y="429" type="line"/>
      <point x="155" y="523" type="line"/>
    </contour>
  </outline>
</glyph>
<glyph name="q" format="1">
  <advance width="580"/>
  <unicode hex="0071"/>
  <outline>
    <contour>
      <point x="417" y="-197" type="line"/>
      <point x="474" y="-205" type="line"/>
      <point x="474" y="523" type="line"/>
      <point x="425" y="523" type="line"/>
      <point x="419" y="452" type="line"/>
      <point x="417" y="432" type="line"/>
    </contour>
    <contour>
      <point x="141" y="534"/>
      <point x="64" y="420"/>
      <point x="64" y="259" type="curve" smooth="yes"/>
      <point x="64" y="93"/>
      <point x="139" y="-11"/>
      <point x="261" y="-11" type="curve" smooth="yes"/>
      <point x="342" y="-11"/>
      <point x="394" y="33"/>
      <point x="424" y="90" type="curve"/>
      <point x="424" y="145" type="line"/>
      <point x="386" y="77"/>
      <point x="344" y="37"/>
      <point x="270" y="37" type="curve" smooth="yes"/>
      <point x="180" y="37"/>
      <point x="126" y="114"/>
      <point x="125" y="260" type="curve" smooth="yes"/>
      <point x="124" y="407"/>
      <point x="187" y="486"/>
      <point x="279" y="486" type="curve" smooth="yes"/>
      <point x="349" y="486"/>
      <point x="393" y="445"/>
      <point x="425" y="395" type="curve"/>
      <point x="425" y="453" type="line"/>
      <point x="395" y="493"/>
      <point x="348" y="534"/>
      <point x="270" y="534" type="curve" smooth="yes"/>
    </contour>
  </outline>
</glyph>
<glyph name="r" format="1">
  <advance width="373"/>
  <unicode hex="0072"/>
  <outline>
    <contour>
      <point x="232" y="534"/>
      <point x="183" y="487"/>
      <point x="155" y="391" type="curve"/>
      <point x="158" y="295" type="line"/>
      <point x="186" y="419"/>
      <point x="226" y="479"/>
      <point x="303" y="479" type="curve" smooth="yes"/>
      <point x="321" y="479"/>
      <point x="335" y="477"/>
      <point x="349" y="473" type="curve"/>
      <point x="360" y="528" type="line"/>
      <point x="347" y="531"/>
      <point x="329" y="534"/>
      <point x="308" y="534" type="curve" smooth="yes"/>
    </contour>
    <contour>
      <point x="106" y="523" type="line"/>
      <point x="106" y="0" type="line"/>
      <point x="163" y="0" type="line"/>
      <point x="163" y="333" type="line"/>
      <point x="160" y="395" type="line"/>
      <point x="155" y="523" type="line"/>
    </contour>
    <contour>
      <point x="233" y="523" type="move" name="top"/>
    </contour>
    <contour>
      <point x="134" y="0" type="move" name="bottom"/>
    </contour>
  </outline>
</glyph>
<glyph name="s" format="1">
  <advance width="464"/>
  <unicode hex="0073"/>
  <outline>
    <contour>
      <point x="135" y="534"/>
      <point x="60" y="477"/>
      <point x="60" y="398" type="curve" smooth="yes"/>
      <point x="60" y="325"/>
      <point x="105" y="283"/>
      <point x="217" y="254" type="curve" smooth="yes"/>
      <point x="325" y="225"/>
      <point x="355" y="201"/>
      <point x="355" y="137" type="curve" smooth="yes"/>
      <point x="355" y="74"/>
      <point x="301" y="37"/>
      <point x="225" y="37" type="curve" smooth="yes"/>
      <point x="160" y="37"/>
      <point x="115" y="57"/>
      <point x="71" y="93" type="curve"/>
      <point x="39" y="56" type="line"/>
      <point x="85" y="18"/>
      <point x="141" y="-11"/>
      <point x="226" y="-11" type="curve" smooth="yes"/>
      <point x="330" y="-11"/>
      <point x="415" y="44"/>
      <point x="415" y="141" type="curve" smooth="yes"/>
      <point x="415" y="230"/>
      <point x="361" y="268"/>
      <point x="246" y="298" type="curve" smooth="yes"/>
      <point x="153" y="323"/>
      <point x="119" y="346"/>
      <point x="119" y="398" type="curve" smooth="yes"/>
      <point x="119" y="453"/>
      <point x="166" y="486"/>
      <point x="236" y="486" type="curve" smooth="yes"/>
      <point x="289" y="486"/>
      <point x="328" y="471"/>
      <point x="373" y="437" type="curve"/>
      <point x="401" y="476" type="line"/>
      <point x="351" y="514"/>
      <point x="301" y="534"/>
      <point x="234" y="534" type="curve" smooth="yes"/>
    </contour>
    <contour>
      <point x="239" y="523" type="move" name="top"/>
    </contour>
    <contour>
      <point x="232" y="0" type="move" name="bottom"/>
    </contour>
  </outline>
</glyph>
<glyph name="t" format="1">
  <advance width="341"/>
  <unicode hex="0074"/>
  <outline>
    <contour>
      <point x="106" y="648" type="line"/>
      <point x="106" y="127" type="line" smooth="yes"/>
      <point x="106" y="35"/>
      <point x="155" y="-11"/>
      <point x="233" y="-11" type="curve" smooth="yes"/>
      <point x="276" y="-11"/>
      <point x="312" y="1"/>
      <point x="344" y="22" type="curve"/>
      <point x="320" y="62" type="line"/>
      <point x="294" y="47"/>
      <point x="269" y="38"/>
      <point x="240" y="38" type="curve" smooth="yes"/>
      <point x="187" y="38"/>
      <point x="163" y="69"/>
      <point x="163" y="130" type="curve" smooth="yes"/>
      <point x="163" y="655" type="line"/>
    </contour>
    <contour>
      <point x="18" y="523" type="line"/>
      <point x="18" y="477" type="line"/>
      <point x="291" y="477" type="line"/>
      <point x="298" y="523" type="line"/>
    </contour>
    <contour>
      <point x="227" y="0" type="move" name="bottom"/>
    </contour>
    <contour>
      <point x="167" y="262" type="move" name="center"/>
    </contour>
    <contour>
      <point x="193" y="739" type="move" name="topright"/>
    </contour>
  </outline>
</glyph>
<glyph name="u" format="1">
  <advance width="579"/>
  <unicode hex="0075"/>
  <outline>
    <contour>
      <point x="416" y="523" type="line"/>
      <point x="416" y="144" type="line"/>
      <point x="379" y="81"/>
      <point x="331" y="36"/>
      <point x="262" y="36" type="curve" smooth="yes"/>
      <point x="194" y="36"/>
      <point x="158" y="71"/>
      <point x="158" y="154" type="curve" smooth="yes"/>
      <point x="158" y="523" type="line"/>
      <point x="101" y="523" type="line"/>
      <point x="101" y="149" type="line" smooth="yes"/>
      <point x="101" y="46"/>
      <point x="156" y="-11"/>
      <point x="249" y="-11" type="curve" smooth="yes"/>
      <point x="330" y="-11"/>
      <point x="384" y="31"/>
      <point x="420" y="93" type="curve"/>
      <point x="424" y="0" type="line"/>
      <point x="473" y="0" type="line"/>
      <point x="473" y="523" type="line"/>
    </contour>
    <contour>
      <point x="287" y="523" type="move" name="top"/>
    </contour>
    <contour>
      <point x="483" y="0" type="move" name="ogonek"/>
    </contour>
  </outline>
</glyph>
<glyph name="v" format="1">
  <advance width="469"/>
  <unicode hex="0076"/>
  <outline>
    <contour>
      <point x="393" y="523" type="line"/>
      <point x="238" y="50" type="line"/>
      <point x="78" y="523" type="line"/>
      <point x="16" y="523" type="line"/>
      <point x="203" y="0" type="line"/>
      <point x="274" y="0" type="line"/>
      <point x="454" y="523" type="line"/>
    </contour>
  </outline>
</glyph>
<glyph name="w" format="1">
  <advance width="698"/>
  <unicode hex="0077"/>
  <outline>
    <contour>
      <point x="616" y="523" type="line"/>
      <point x="505" y="44" type="line"/>
      <point x="385" y="523" type="line"/>
      <point x="319" y="523" type="line"/>
      <point x="196" y="44" type="line"/>
      <point x="84" y="523" type="line"/>
      <point x="26" y="523" type="line"/>
      <point x="157" y="0" type="line"/>
      <point x="232" y="0" type="line"/>
      <point x="350" y="470" type="line"/>
      <point x="467" y="0" type="line"/>
      <point x="544" y="0" type="line"/>
      <point x="672" y="523" type="line"/>
    </contour>
    <contour>
      <point x="349" y="523" type="move" name="top"/>
    </contour>
  </outline>
</glyph>
<glyph name="x" format="1">
  <advance width="458"/>
  <unicode hex="0078"/>
  <outline>
    <contour>
      <point x="34" y="523" type="line"/>
      <point x="195" y="278" type="line"/>
      <point x="227" y="244" type="line"/>
      <point x="379" y="0" type="line"/>
      <point x="447" y="0" type="line"/>
      <point x="263" y="280" type="line"/>
      <point x="229" y="313" type="line"/>
      <point x="101" y="523" type="line"/>
    </contour>
    <contour>
      <point x="359" y="523" type="line"/>
      <point x="229" y="313" type="line"/>
      <point x="195" y="278" type="line"/>
      <point x="11" y="0" type="line"/>
      <point x="76" y="0" type="line"/>
      <point x="227" y="244" type="line"/>
      <point x="263" y="280" type="line"/>
      <point x="424" y="523" type="line"/>
    </contour>
    <contour>
      <point x="422" y="0" type="move" name="bottomright"/>
    </contour>
  </outline>
</glyph>
<glyph name="y" format="1">
  <advance width="467"/>
  <unicode hex="0079"/>
  <outline>
    <contour>
      <point x="391" y="523" type="line"/>
      <point x="236" y="42" type="line"/>
      <point x="77" y="523" type="line"/>
      <point x="16" y="523" type="line"/>
      <point x="197" y="0" type="line"/>
      <point x="217" y="0" type="line"/>
      <point x="183" y="-92"/>
      <point x="158" y="-134"/>
      <point x="53" y="-159" type="curve"/>
      <point x="59" y="-204" type="line"/>
      <point x="186" y="-179"/>
      <point x="233" y="-116"/>
      <point x="272" y="-2" type="curve" smooth="yes"/>
      <point x="452" y="523" type="line"/>
    </contour>
    <contour>
      <point x="229" y="523" type="move" name="top"/>
    </contour>
  </outline>
</glyph>
<glyph name="z" format="1">
  <advance width="422"/>
  <unicode hex="007A"/>
  <outline>
    <contour>
      <point x="52" y="523" type="line"/>
      <point x="52" y="473" type="line"/>
      <point x="321" y="473" type="line"/>
      <point x="28" y="44" type="line"/>
      <point x="28" y="0" type="line"/>
      <point x="379" y="0" type="line"/>
      <point x="386" y="49" type="line"/>
      <point x="95" y="49" type="line"/>
      <point x="388" y="478" type="line"/>
      <point x="388" y="523" type="line"/>
    </contour>
    <contour>
      <point x="216" y="523" type="move" name="top"/>
    </contour>
  </outline>
</glyph>
<glyph name="braceleft" format="1">
  <advance width="326"/>
  <unicode hex="007B"/>
  <outline>
    <contour>
      <point x="165" y="828"/>
      <point x="121" y="791"/>
      <point x="121" y="703" type="curve" smooth="yes"/>
      <point x="121" y="448" type="line" smooth="yes"/>
      <point x="121" y="394"/>
      <point x="94" y="373"/>
      <point x="45" y="373" type="curve"/>
      <point x="45" y="325" type="line"/>
      <point x="94" y="325"/>
      <point x="121" y="305"/>
      <point x="121" y="251" type="curve" smooth="yes"/>
      <point x="121" y="-4" type="line" smooth="yes"/>
      <point x="121" y="-92"/>
      <point x="165" y="-129"/>
      <point x="261" y="-129" type="curve"/>
      <point x="261" y="-85" type="line"/>
      <point x="198" y="-85"/>
      <point x="174" y="-61"/>
      <point x="174" y="-6" type="curve" smooth="yes"/>
      <point x="174" y="248" type="line" smooth="yes"/>
      <point x="174" y="317"/>
      <point x="148" y="336"/>
      <point x="99" y="349" type="curve"/>
      <point x="148" y="362"/>
      <point x="174" y="382"/>
      <point x="174" y="451" type="curve" smooth="yes"/>
      <point x="174" y="705" type="line" smooth="yes"/>
      <point x="174" y="760"/>
      <point x="198" y="784"/>
      <point x="261" y="784" type="curve"/>
      <point x="261" y="828" type="line"/>
    </contour>
  </outline>
</glyph>
<glyph name="braceright" format="1">
  <advance width="326"/>
  <unicode hex="007D"/>
  <outline>
    <contour>
      <point x="65" y="784" type="line"/>
      <point x="128" y="784"/>
      <point x="152" y="760"/>
      <point x="152" y="705" type="curve" smooth="yes"/>
      <point x="152" y="451" type="line" smooth="yes"/>
      <point x="152" y="382"/>
      <point x="178" y="362"/>
      <point x="227" y="349" type="curve"/>
      <point x="178" y="336"/>
      <point x="152" y="317"/>
      <point x="152" y="248" type="curve" smooth="yes"/>
      <point x="152" y="-6" type="line" smooth="yes"/>
      <point x="152" y="-61"/>
      <point x="128" y="-85"/>
      <point x="65" y="-85" type="curve"/>
      <point x="65" y="-129" type="line"/>
      <point x="161" y="-129"/>
      <point x="205" y="-92"/>
      <point x="205" y="-4" type="curve" smooth="yes"/>
      <point x="205" y="251" type="line" smooth="yes"/>
      <point x="205" y="305"/>
      <point x="232" y="325"/>
      <point x="281" y="325" type="curve"/>
      <point x="281" y="373" type="line"/>
      <point x="232" y="373"/>
      <point x="205" y="394"/>
      <point x="205" y="448" type="curve" smooth="yes"/>
      <point x="205" y="703" type="line" smooth="yes"/>
      <point x="205" y="791"/>
      <point x="161" y="828"/>
      <point x="65" y="828" type="curve"/>
    </contour>
  </outline>
</glyph>
<glyph name="exclamdown" format="1">
  <advance width="240"/>
  <unicode hex="00A1"/>
  <outline>
    <contour>
      <point x="95" y="249" type="line"/>
      <point x="91" y="-197" type="line"/>
      <point x="152" y="-197" type="line"/>
      <point x="147" y="249" type="line"/>
    </contour>
    <contour>
      <point x="92" y="474"/>
      <point x="73" y="453"/>
      <point x="73" y="427" type="curve" smooth="yes"/>
      <point x="73" y="401"/>
      <point x="92" y="380"/>
      <point x="120" y="380" type="curve" smooth="yes"/>
      <point x="148" y="380"/>
      <point x="167" y="401"/>
      <point x="167" y="427" type="curve" smooth="yes"/>
      <point x="167" y="453"/>
      <point x="148" y="474"/>
      <point x="120" y="474" type="curve" smooth="yes"/>
    </contour>
  </outline>
</glyph>
<glyph name="sterling" format="1">
  <advance width="556"/>
  <unicode hex="00A3"/>
  <outline>
    <contour>
      <point x="210" y="696"/>
      <point x="151" y="619"/>
      <point x="151" y="520" type="curve"/>
      <point x="151" y="169" type="line"/>
      <point x="151" y="99"/>
      <point x="131" y="75"/>
      <point x="68" y="48" type="curve"/>
      <point x="68" y="0" type="line"/>
      <point x="475" y="0" type="line"/>
      <point x="482" y="50" type="line"/>
      <point x="141" y="50" type="line"/>
      <point x="190" y="75"/>
      <point x="208" y="104"/>
      <point x="208" y="170" type="curve"/>
      <point x="208" y="519" type="line"/>
      <point x="208" y="596"/>
      <point x="248" y="647"/>
      <point x="331" y="647" type="curve" smooth="yes"/>
      <point x="391" y="647"/>
      <point x="425" y="628"/>
      <point x="458" y="590" type="curve"/>
      <point x="497" y="621" type="line"/>
      <point x="453" y="672"/>
      <point x="403" y="696"/>
      <point x="329" y="696" type="curve" smooth="yes"/>
    </contour>
    <contour>
      <point x="86" y="384" type="line"/>
      <point x="86" y="342" type="line"/>
      <point x="434" y="342" type="line"/>
      <point x="434" y="384" type="line"/>
    </contour>
  </outline>
</glyph>
<glyph name="yen" format="1">
  <advance width="556"/>
  <unicode hex="00A5"/>
  <outline>
    <contour>
      <point x="468" y="685" type="line"/>
      <point x="280" y="351" type="line"/>
      <point x="91" y="685" type="line"/>
      <point x="26" y="685" type="line"/>
      <point x="250" y="307" type="line"/>
      <point x="250" y="0" type="line"/>
      <point x="308" y="0" type="line"/>
      <point x="308" y="307" type="line"/>
      <point x="530" y="685" type="line"/>
    </contour>
    <contour>
      <point x="114" y="192" type="line"/>
      <point x="114" y="149" type="line"/>
      <point x="443" y="149" type="line"/>
      <point x="443" y="192" type="line"/>
    </contour>
    <contour>
      <point x="114" y="338" type="line"/>
      <point x="114" y="295" type="line"/>
      <point x="443" y="295" type="line"/>
      <point x="443" y="338" type="line"/>
    </contour>
  </outline>
</glyph>
<glyph name="section" format="1">
  <advance width="556"/>
  <unicode hex="00A7"/>
  <outline>
    <contour>
      <point x="190" y="696"/>
      <point x="116" y="644"/>
      <point x="116" y="557" type="curve" smooth="yes"/>
      <point x="116" y="476"/>
      <point x="162" y="442"/>
      <point x="286" y="403" type="curve" smooth="yes"/>
      <point x="390" y="369"/>
      <point x="409" y="344"/>
      <point x="409" y="293" type="curve" smooth="yes"/>
      <point x="409" y="254"/>
      <point x="389" y="220"/>
      <point x="339" y="189" type="curve"/>
      <point x="372" y="167" type="line"/>
      <point x="433" y="203"/>
      <point x="465" y="244"/>
      <point x="465" y="298" type="curve" smooth="yes"/>
      <point x="465" y="374"/>
      <point x="421" y="410"/>
      <point x="308" y="445" type="curve" smooth="yes"/>
      <point x="196" y="480"/>
      <point x="174" y="504"/>
      <point x="174" y="561" type="curve" smooth="yes"/>
      <point x="174" y="613"/>
      <point x="216" y="650"/>
      <point x="286" y="650" type="curve" smooth="yes"/>
      <point x="345" y="650"/>
      <point x="384" y="636"/>
      <point x="426" y="609" type="curve"/>
      <point x="451" y="647" type="line"/>
      <point x="408" y="676"/>
      <point x="362" y="696"/>
      <point x="287" y="696" type="curve" smooth="yes"/>
    </contour>
    <contour>
      <point x="127" y="429"/>
      <point x="91" y="383"/>
      <point x="91" y="328" type="curve" smooth="yes"/>
      <point x="91" y="248"/>
      <point x="143" y="215"/>
      <point x="255" y="180" type="curve" smooth="yes"/>
      <point x="363" y="145"/>
      <point x="384" y="124"/>
      <point x="384" y="69" type="curve" smooth="yes"/>
      <point x="384" y="13"/>
      <point x="340" y="-21"/>
      <point x="265" y="-21" type="curve" smooth="yes"/>
      <point x="204" y="-21"/>
      <point x="160" y="-8"/>
      <point x="119" y="20" type="curve"/>
      <point x="95" y="-21" type="line"/>
      <point x="139" y="-49"/>
      <point x="189" y="-68"/>
      <point x="263" y="-68" type="curve" smooth="yes"/>
      <point x="369" y="-68"/>
      <point x="442" y="-16"/>
      <point x="442" y="74" type="curve" smooth="yes"/>
      <point x="442" y="156"/>
      <point x="390" y="187"/>
      <point x="272" y="224" type="curve" smooth="yes"/>
      <point x="171" y="257"/>
      <point x="147" y="279"/>
      <point x="147" y="334" type="curve" smooth="yes"/>
      <point x="147" y="373"/>
      <point x="169" y="409"/>
      <point x="216" y="441" type="curve"/>
      <point x="184" y="463" type="line"/>
    </contour>
  </outline>
</glyph>
<glyph name="dieresis" format="1">
  <advance width="328"/>
  <unicode hex="00A8"/>
  <outline>
    <contour>
      <point x="235" y="741"/>
      <point x="219" y="724"/>
      <point x="219" y="702" type="curve" smooth="yes"/>
      <point x="219" y="680"/>
      <point x="235" y="663"/>
      <point x="258" y="663" type="curve" smooth="yes"/>
      <point x="281" y="663"/>
      <point x="297" y="680"/>
      <point x="297" y="702" type="curve" smooth="yes"/>
      <point x="297" y="724"/>
      <point x="281" y="741"/>
      <point x="258" y="741" type="curve" smooth="yes"/>
    </contour>
    <contour>
      <point x="47" y="741"/>
      <point x="30" y="724"/>
      <point x="30" y="702" type="curve" smooth="yes"/>
      <point x="30" y="680"/>
      <point x="47" y="663"/>
      <point x="69" y="663" type="curve" smooth="yes"/>
      <point x="92" y="663"/>
      <point x="109" y="680"/>
      <point x="109" y="702" type="curve" smooth="yes"/>
      <point x="109" y="724"/>
      <point x="92" y="741"/>
      <point x="69" y="741" type="curve" smooth="yes"/>
    </contour>
    <contour>
      <point x="164" y="523" type="move" name="_top"/>
    </contour>
    <contour>
      <point x="164" y="650" type="move" name="top"/>
    </contour>
  </outline>
</glyph>
<glyph name="copyright" format="1">
  <advance width="810"/>
  <unicode hex="00A9"/>
  <outline>
    <contour>
      <point x="238" y="736"/>
      <point x="109" y="606"/>
      <point x="109" y="435" type="curve" smooth="yes"/>
      <point x="109" y="262"/>
      <point x="238" y="134"/>
      <point x="405" y="134" type="curve"/>
      <point x="572" y="134"/>
      <point x="701" y="263"/>
      <point x="701" y="435" type="curve" smooth="yes"/>
      <point x="701" y="607"/>
      <point x="572" y="736"/>
      <point x="405" y="736" type="curve"/>
    </contour>
    <contour>
      <point x="334" y="615"/>
      <point x="259" y="558"/>
      <point x="259" y="436" type="curve" smooth="yes"/>
      <point x="259" y="323"/>
      <point x="320" y="255"/>
      <point x="407" y="255" type="curve" smooth="yes"/>
      <point x="456" y="255"/>
      <point x="489" y="273"/>
      <point x="514" y="294" type="curve"/>
      <point x="493" y="327" type="line"/>
      <point x="470" y="310"/>
      <point x="446" y="298"/>
      <point x="409" y="298" type="curve" smooth="yes"/>
      <point x="352" y="298"/>
      <point x="310" y="342"/>
      <point x="310" y="436" type="curve" smooth="yes"/>
      <point x="310" y="540"/>
      <point x="362" y="573"/>
      <point x="409" y="573" type="curve" smooth="yes"/>
      <point x="440" y="573"/>
      <point x="462" y="565"/>
      <point x="483" y="548" type="curve"/>
      <point x="508" y="581" type="line"/>
      <point x="480" y="603"/>
      <point x="451" y="615"/>
      <point x="407" y="615" type="curve" smooth="yes"/>
    </contour>
    <contour>
      <point x="551" y="697"/>
      <point x="657" y="587"/>
      <point x="657" y="435" type="curve" smooth="yes"/>
      <point x="657" y="284"/>
      <point x="551" y="173"/>
      <point x="406" y="173" type="curve"/>
      <point x="260" y="173"/>
      <point x="153" y="283"/>
      <point x="153" y="435" type="curve" smooth="yes"/>
      <point x="153" y="585"/>
      <point x="260" y="697"/>
      <point x="406" y="697" type="curve"/>
    </contour>
  </outline>
</glyph>
<glyph name="ordfeminine" format="1">
  <advance width="500"/>
  <unicode hex="00AA"/>
  <outline>
    <contour>
      <point x="200" y="685"/>
      <point x="157" y="675"/>
      <point x="111" y="659" type="curve"/>
      <point x="125" y="617" type="line"/>
      <point x="166" y="631"/>
      <point x="205" y="639"/>
      <point x="238" y="639" type="curve" smooth="yes"/>
      <point x="306" y="639"/>
      <point x="332" y="614"/>
      <point x="332" y="555" type="curve"/>
      <point x="332" y="372" type="line"/>
      <point x="338" y="350" type="line"/>
      <point x="343" y="301"/>
      <point x="367" y="282"/>
      <point x="409" y="274" type="curve"/>
      <point x="421" y="313" type="line"/>
      <point x="399" y="321"/>
      <point x="387" y="332"/>
      <point x="387" y="374" type="curve" smooth="yes"/>
      <point x="387" y="559" type="line" smooth="yes"/>
      <point x="387" y="642"/>
      <point x="344" y="685"/>
      <point x="244" y="685" type="curve" smooth="yes"/>
    </contour>
    <contour>
      <point x="255" y="521" type="line"/>
      <point x="147" y="521"/>
      <point x="79" y="476"/>
      <point x="79" y="392" type="curve" smooth="yes"/>
      <point x="79" y="321"/>
      <point x="128" y="274"/>
      <point x="211" y="274" type="curve" smooth="yes"/>
      <point x="269" y="274"/>
      <point x="316" y="298"/>
      <point x="346" y="347" type="curve"/>
      <point x="337" y="394" type="line"/>
      <point x="312" y="347"/>
      <point x="275" y="318"/>
      <point x="221" y="318" type="curve" smooth="yes"/>
      <point x="170" y="318"/>
      <point x="138" y="345"/>
      <point x="138" y="395" type="curve" smooth="yes"/>
      <point x="138" y="454"/>
      <point x="184" y="481"/>
      <point x="263" y="481" type="curve" smooth="yes"/>
      <point x="341" y="481" type="line"/>
      <point x="341" y="521" type="line"/>
    </contour>
    <contour>
      <point x="435" y="0" type="line"/>
      <point x="435" y="50" type="line"/>
      <point x="81" y="50" type="line"/>
      <point x="81" y="0" type="line"/>
    </contour>
  </outline>
</glyph>
<glyph name="registered" format="1">
  <advance width="639"/>
  <unicode hex="00AE"/>
  <outline>
    <contour>
      <point x="185" y="736"/>
      <point x="80" y="628"/>
      <point x="80" y="495" type="curve" smooth="yes"/>
      <point x="80" y="360"/>
      <point x="185" y="257"/>
      <point x="319" y="257" type="curve"/>
      <point x="454" y="257"/>
      <point x="559" y="365"/>
      <point x="559" y="498" type="curve" smooth="yes"/>
      <point x="559" y="633"/>
      <point x="454" y="736"/>
      <point x="319" y="736" type="curve"/>
    </contour>
    <contour>
      <point x="309" y="485" type="line"/>
      <point x="379" y="364" type="line"/>
      <point x="429" y="364" type="line"/>
      <point x="349" y="491" type="line"/>
    </contour>
    <contour>
      <point x="434" y="700"/>
      <point x="520" y="613"/>
      <point x="520" y="498" type="curve" smooth="yes"/>
      <point x="520" y="384"/>
      <point x="432" y="293"/>
      <point x="319" y="293" type="curve"/>
      <point x="207" y="293"/>
      <point x="120" y="380"/>
      <point x="120" y="495" type="curve" smooth="yes"/>
      <point x="120" y="609"/>
      <point x="207" y="700"/>
      <point x="319" y="700" type="curve"/>
    </contour>
    <contour>
      <point x="236" y="636" type="line"/>
      <point x="236" y="364" type="line"/>
      <point x="278" y="364" type="line"/>
      <point x="278" y="602" type="line"/>
      <point x="311" y="602" type="line" smooth="yes"/>
      <point x="353" y="602"/>
      <point x="376" y="590"/>
      <point x="376" y="555" type="curve" smooth="yes"/>
      <point x="376" y="522"/>
      <point x="353" y="510"/>
      <point x="317" y="510" type="curve" smooth="yes"/>
      <point x="269" y="510" type="line"/>
      <point x="269" y="476" type="line"/>
      <point x="319" y="476" type="line"/>
      <point x="338" y="478" type="line"/>
      <point x="386" y="486"/>
      <point x="418" y="509"/>
      <point x="418" y="555" type="curve" smooth="yes"/>
      <point x="418" y="609"/>
      <point x="382" y="636"/>
      <point x="305" y="636" type="curve" smooth="yes"/>
    </contour>
  </outline>
</glyph>
<glyph name="acute" format="1">
  <advance width="275"/>
  <unicode hex="00B4"/>
  <outline>
    <contour>
      <point x="30" y="679" type="line"/>
      <point x="48" y="645" type="line"/>
      <point x="243" y="730" type="line"/>
      <point x="218" y="782" type="line"/>
    </contour>
    <contour>
      <point x="147" y="523" type="move" name="_top"/>
    </contour>
  </outline>
</glyph>
<glyph name="paragraph" format="1">
  <advance width="707"/>
  <unicode hex="00B6"/>
  <outline>
    <contour>
      <point x="333" y="684" type="line"/>
      <point x="321" y="645" type="line"/>
      <point x="321" y="-206" type="line"/>
      <point x="374" y="-197" type="line"/>
      <point x="374" y="637" type="line"/>
      <point x="503" y="637" type="line"/>
      <point x="503" y="-206" type="line"/>
      <point x="556" y="-197" type="line"/>
      <point x="556" y="685" type="line"/>
    </contour>
    <contour>
      <point x="187" y="684"/>
      <point x="101" y="614"/>
      <point x="101" y="490" type="curve" smooth="yes"/>
      <point x="101" y="381"/>
      <point x="165" y="294"/>
      <point x="339" y="294" type="curve"/>
      <point x="333" y="684" type="line"/>
    </contour>
  </outline>
</glyph>
<glyph name="cedilla" format="1">
  <advance width="245"/>
  <unicode hex="00B8"/>
  <outline>
    <contour>
      <point x="85" y="16" type="line"/>
      <point x="74" y="-96" type="line"/>
      <point x="137" y="-96"/>
      <point x="163" y="-111"/>
      <point x="163" y="-140" type="curve" smooth="yes"/>
      <point x="163" y="-172"/>
      <point x="139" y="-186"/>
      <point x="108" y="-186" type="curve" smooth="yes"/>
      <point x="82" y="-186"/>
      <point x="64" y="-179"/>
      <point x="48" y="-170" type="curve"/>
      <point x="30" y="-206" type="line"/>
      <point x="48" y="-218"/>
      <point x="75" y="-227"/>
      <point x="110" y="-227" type="curve" smooth="yes"/>
      <point x="166" y="-227"/>
      <point x="215" y="-196"/>
      <point x="215" y="-140" type="curve" smooth="yes"/>
      <point x="215" y="-99"/>
      <point x="187" y="-69"/>
      <point x="123" y="-64" type="curve"/>
      <point x="123" y="16" type="line"/>
    </contour>
    <contour>
      <point x="108" y="0" type="move" name="_bottom"/>
    </contour>
  </outline>
</glyph>
<glyph name="ordmasculine" format="1">
  <advance width="500"/>
  <unicode hex="00BA"/>
  <outline>
    <contour>
      <point x="138" y="685"/>
      <point x="68" y="606"/>
      <point x="68" y="479" type="curve" smooth="yes"/>
      <point x="68" y="352"/>
      <point x="135" y="274"/>
      <point x="248" y="274" type="curve" smooth="yes"/>
      <point x="361" y="274"/>
      <point x="430" y="353"/>
      <point x="430" y="481" type="curve" smooth="yes"/>
      <point x="430" y="611"/>
      <point x="362" y="685"/>
      <point x="249" y="685" type="curve" smooth="yes"/>
    </contour>
    <contour>
      <point x="327" y="639"/>
      <point x="371" y="587"/>
      <point x="371" y="481" type="curve" smooth="yes"/>
      <point x="371" y="373"/>
      <point x="326" y="320"/>
      <point x="249" y="320" type="curve" smooth="yes"/>
      <point x="172" y="320"/>
      <point x="127" y="374"/>
      <point x="127" y="479" type="curve" smooth="yes"/>
      <point x="127" y="587"/>
      <point x="174" y="639"/>
      <point x="250" y="639" type="curve" smooth="yes"/>
    </contour>
    <contour>
      <point x="426" y="0" type="line"/>
      <point x="426" y="50" type="line"/>
      <point x="72" y="50" type="line"/>
      <point x="72" y="0" type="line"/>
    </contour>
  </outline>
</glyph>
<glyph name="questiondown" format="1">
  <advance width="447"/>
  <unicode hex="00BF"/>
  <outline>
    <contour>
      <point x="292" y="-206"/>
      <point x="352" y="-176"/>
      <point x="406" y="-114" type="curve"/>
      <point x="366" y="-83" type="line"/>
      <point x="321" y="-134"/>
      <point x="276" y="-157"/>
      <point x="216" y="-157" type="curve" smooth="yes"/>
      <point x="146" y="-157"/>
      <point x="101" y="-118"/>
      <point x="101" y="-62" type="curve" smooth="yes"/>
      <point x="101" y="60"/>
      <point x="279" y="44"/>
      <point x="279" y="200" type="curve" smooth="yes"/>
      <point x="279" y="249" type="line"/>
      <point x="223" y="249" type="line"/>
      <point x="223" y="204" type="line" smooth="yes"/>
      <point x="223" y="72"/>
      <point x="41" y="89"/>
      <point x="41" y="-65" type="curve" smooth="yes"/>
      <point x="41" y="-137"/>
      <point x="103" y="-206"/>
      <point x="213" y="-206" type="curve" smooth="yes"/>
    </contour>
    <contour>
      <point x="277" y="380"/>
      <point x="296" y="401"/>
      <point x="296" y="427" type="curve" smooth="yes"/>
      <point x="296" y="453"/>
      <point x="277" y="474"/>
      <point x="249" y="474" type="curve" smooth="yes"/>
      <point x="221" y="474"/>
      <point x="202" y="453"/>
      <point x="202" y="427" type="curve" smooth="yes"/>
      <point x="202" y="401"/>
      <point x="221" y="380"/>
      <point x="249" y="380" type="curve" smooth="yes"/>
    </contour>
  </outline>
</glyph>
<glyph name="AE" format="1">
  <advance width="783"/>
  <unicode hex="00C6"/>
  <outline>
    <contour>
      <point x="268" y="685" type="line"/>
      <point x="0" y="0" type="line"/>
      <point x="60" y="0" type="line"/>
      <point x="302" y="638" type="line"/>
      <point x="461" y="0" type="line"/>
      <point x="737" y="0" type="line"/>
      <point x="737" y="49" type="line"/>
      <point x="508" y="49" type="line"/>
      <point x="357" y="636" type="line"/>
      <point x="682" y="636" type="line"/>
      <point x="689" y="685" type="line"/>
    </contour>
    <contour>
      <point x="138" y="234" type="line"/>
      <point x="118" y="184" type="line"/>
      <point x="426" y="184" type="line"/>
      <point x="414" y="234" type="line"/>
    </contour>
    <contour>
      <point x="411" y="379" type="line"/>
      <point x="424" y="330" type="line"/>
      <point x="681" y="330" type="line"/>
      <point x="681" y="379" type="line"/>
    </contour>
    <contour>
      <point x="456" y="685" type="move" name="top"/>
    </contour>
  </outline>
</glyph>
<glyph name="Eth" format="1">
  <advance width="635"/>
  <unicode hex="00D0"/>
  <outline>
    <contour>
      <point x="114" y="376" type="line"/>
      <point x="23" y="376" type="line"/>
      <point x="23" y="330" type="line"/>
      <point x="349" y="330" type="line"/>
      <point x="349" y="376" type="line"/>
    </contour>
    <contour>
      <point x="114" y="685" type="line"/>
      <point x="114" y="0" type="line"/>
      <point x="261" y="0" type="line" smooth="yes"/>
      <point x="401" y="0"/>
      <point x="568" y="64"/>
      <point x="568" y="348" type="curve" smooth="yes"/>
      <point x="568" y="630"/>
      <point x="409" y="685"/>
      <point x="250" y="685" type="curve" smooth="yes"/>
    </contour>
    <contour>
      <point x="378" y="636"/>
      <point x="506" y="600"/>
      <point x="506" y="348" type="curve" smooth="yes"/>
      <point x="506" y="102"/>
      <point x="383" y="49"/>
      <point x="264" y="49" type="curve" smooth="yes"/>
      <point x="173" y="49" type="line"/>
      <point x="173" y="636" type="line"/>
      <point x="257" y="636" type="line" smooth="yes"/>
    </contour>
  </outline>
</glyph>
<glyph name="Oslash" format="1">
  <advance width="691"/>
  <unicode hex="00D8"/>
  <outline>
    <contour>
      <point x="181" y="696"/>
      <point x="66" y="567"/>
      <point x="66" y="341" type="curve" smooth="yes"/>
      <point x="66" y="113"/>
      <point x="180" y="-11"/>
      <point x="345" y="-11" type="curve" smooth="yes"/>
      <point x="514" y="-11"/>
      <point x="625" y="117"/>
      <point x="625" y="342" type="curve" smooth="yes"/>
      <point x="625" y="573"/>
      <point x="512" y="696"/>
      <point x="345" y="696" type="curve" smooth="yes"/>
    </contour>
    <contour>
      <point x="478" y="646"/>
      <point x="563" y="554"/>
      <point x="563" y="342" type="curve" smooth="yes"/>
      <point x="563" y="136"/>
      <point x="479" y="39"/>
      <point x="345" y="39" type="curve" smooth="yes"/>
      <point x="218" y="39"/>
      <point x="128" y="131"/>
      <point x="128" y="341" type="curve" smooth="yes"/>
      <point x="128" y="549"/>
      <point x="216" y="646"/>
      <point x="345" y="646" type="curve"/>
    </contour>
    <contour>
      <point x="421" y="684" type="line"/>
      <point x="413" y="643" type="line"/>
      <point x="238" y="57" type="line"/>
      <point x="222" y="22" type="line"/>
      <point x="183" y="-105" type="line"/>
      <point x="234" y="-120" type="line"/>
      <point x="268" y="2" type="line"/>
      <point x="277" y="43" type="line"/>
      <point x="451" y="630" type="line"/>
      <point x="467" y="664" type="line"/>
      <point x="508" y="796" type="line"/>
      <point x="456" y="810" type="line"/>
    </contour>
    <contour>
      <point x="339" y="697" type="move" name="top"/>
    </contour>
  </outline>
</glyph>
<glyph name="Thorn" format="1">
  <advance width="570"/>
  <unicode hex="00DE"/>
  <outline>
    <contour>
      <point x="152" y="563" type="line"/>
      <point x="170" y="514" type="line"/>
      <point x="271" y="514" type="line" smooth="yes"/>
      <point x="392" y="514"/>
      <point x="463" y="473"/>
      <point x="463" y="355" type="curve" smooth="yes"/>
      <point x="463" y="222"/>
      <point x="383" y="186"/>
      <point x="269" y="186" type="curve" smooth="yes"/>
      <point x="159" y="186" type="line"/>
      <point x="159" y="137" type="line"/>
      <point x="269" y="137" type="line" smooth="yes"/>
      <point x="417" y="137"/>
      <point x="525" y="196"/>
      <point x="525" y="356" type="curve" smooth="yes"/>
      <point x="525" y="500"/>
      <point x="431" y="563"/>
      <point x="271" y="563" type="curve" smooth="yes"/>
    </contour>
    <contour>
      <point x="111" y="685" type="line"/>
      <point x="111" y="0" type="line"/>
      <point x="170" y="0" type="line"/>
      <point x="170" y="685" type="line"/>
    </contour>
  </outline>
</glyph>
<glyph name="germandbls" format="1">
  <advance width="582"/>
  <unicode hex="00DF"/>
  <outline>
    <contour>
      <point x="181" y="743"/>
      <point x="106" y="671"/>
      <point x="106" y="540" type="curve" smooth="yes"/>
      <point x="106" y="0" type="line"/>
      <point x="163" y="0" type="line"/>
      <point x="163" y="538" type="line" smooth="yes"/>
      <point x="163" y="648"/>
      <point x="216" y="696"/>
      <point x="293" y="696" type="curve" smooth="yes"/>
      <point x="356" y="696"/>
      <point x="402" y="663"/>
      <point x="402" y="607" type="curve" smooth="yes"/>
      <point x="402" y="511"/>
      <point x="286" y="508"/>
      <point x="286" y="421" type="curve" smooth="yes"/>
      <point x="286" y="305"/>
      <point x="475" y="307"/>
      <point x="475" y="156" type="curve" smooth="yes"/>
      <point x="475" y="78"/>
      <point x="431" y="37"/>
      <point x="367" y="37" type="curve" smooth="yes"/>
      <point x="331" y="37"/>
      <point x="310" y="44"/>
      <point x="293" y="52" type="curve"/>
      <point x="275" y="12" type="line"/>
      <point x="299" y="-1"/>
      <point x="327" y="-11"/>
      <point x="371" y="-11" type="curve" smooth="yes"/>
      <point x="465" y="-11"/>
      <point x="533" y="55"/>
      <point x="533" y="155" type="curve" smooth="yes"/>
      <point x="533" y="331"/>
      <point x="341" y="338"/>
      <point x="341" y="424" type="curve" smooth="yes"/>
      <point x="341" y="490"/>
      <point x="457" y="501"/>
      <point x="457" y="609" type="curve" smooth="yes"/>
      <point x="457" y="686"/>
      <point x="392" y="743"/>
      <point x="294" y="743" type="curve" smooth="yes"/>
    </contour>
  </outline>
</glyph>
<glyph name="ae" format="1">
  <advance width="849"/>
  <unicode hex="00E6"/>
  <outline>
    <contour>
      <point x="464" y="534"/>
      <point x="397" y="440"/>
      <point x="377" y="280" type="curve"/>
      <point x="375" y="256" type="line"/>
      <point x="376" y="88"/>
      <point x="460" y="-11"/>
      <point x="596" y="-11" type="curve" smooth="yes"/>
      <point x="666" y="-11"/>
      <point x="719" y="13"/>
      <point x="767" y="53" type="curve"/>
      <point x="740" y="89" type="line"/>
      <point x="695" y="55"/>
      <point x="656" y="38"/>
      <point x="599" y="38" type="curve" smooth="yes"/>
      <point x="505" y="38"/>
      <point x="437" y="103"/>
      <point x="435" y="260" type="curve"/>
      <point x="435" y="419"/>
      <point x="499" y="486"/>
      <point x="588" y="486" type="curve" smooth="yes"/>
      <point x="685" y="486"/>
      <point x="731" y="413"/>
      <point x="731" y="299" type="curve" smooth="yes"/>
      <point x="731" y="290"/>
      <point x="731" y="287"/>
      <point x="731" y="283" type="curve"/>
      <point x="426" y="283" type="line"/>
      <point x="426" y="239" type="line"/>
      <point x="785" y="239" type="line"/>
      <point x="786" y="249"/>
      <point x="787" y="265"/>
      <point x="787" y="281" type="curve" smooth="yes"/>
      <point x="787" y="435"/>
      <point x="719" y="534"/>
      <point x="587" y="534" type="curve" smooth="yes"/>
    </contour>
    <contour>
      <point x="274" y="315" type="line"/>
      <point x="141" y="315"/>
      <point x="56" y="255"/>
      <point x="56" y="145" type="curve" smooth="yes"/>
      <point x="56" y="52"/>
      <point x="118" y="-11"/>
      <point x="220" y="-11" type="curve" smooth="yes"/>
      <point x="302" y="-11"/>
      <point x="362" y="22"/>
      <point x="419" y="111" type="curve"/>
      <point x="403" y="160" type="line"/>
      <point x="351" y="73"/>
      <point x="301" y="35"/>
      <point x="229" y="35" type="curve" smooth="yes"/>
      <point x="160" y="35"/>
      <point x="118" y="75"/>
      <point x="118" y="147" type="curve" smooth="yes"/>
      <point x="118" y="231"/>
      <point x="178" y="272"/>
      <point x="283" y="272" type="curve" smooth="yes"/>
      <point x="386" y="272" type="line"/>
      <point x="386" y="315" type="line"/>
    </contour>
    <contour>
      <point x="206" y="534"/>
      <point x="154" y="521"/>
      <point x="97" y="499" type="curve"/>
      <point x="112" y="455" type="line"/>
      <point x="164" y="474"/>
      <point x="211" y="485"/>
      <point x="254" y="485" type="curve"/>
      <point x="341" y="485"/>
      <point x="375" y="448"/>
      <point x="375" y="365" type="curve"/>
      <point x="375" y="258" type="line"/>
      <point x="432" y="259" type="line"/>
      <point x="432" y="369" type="line"/>
      <point x="425" y="471"/>
      <point x="380" y="534"/>
      <point x="261" y="534" type="curve"/>
    </contour>
    <contour>
      <point x="423" y="523" type="move" name="top"/>
    </contour>
  </outline>
</glyph>
<glyph name="eth" format="1">
  <advance width="561"/>
  <unicode hex="00F0"/>
  <outline>
    <contour>
      <point x="128" y="699" type="line"/>
      <point x="180" y="689"/>
      <point x="229" y="668"/>
      <point x="271" y="641" type="curve"/>
      <point x="366" y="573"/>
      <point x="412" y="486"/>
      <point x="424" y="370" type="curve"/>
      <point x="426" y="343" type="line"/>
      <point x="427" y="325"/>
      <point x="428" y="308"/>
      <point x="428" y="282" type="curve" smooth="yes"/>
      <point x="428" y="121"/>
      <point x="368" y="37"/>
      <point x="272" y="37" type="curve" smooth="yes"/>
      <point x="179" y="37"/>
      <point x="123" y="108"/>
      <point x="123" y="233" type="curve" smooth="yes"/>
      <point x="123" y="337"/>
      <point x="168" y="421"/>
      <point x="266" y="421" type="curve" smooth="yes"/>
      <point x="335" y="421"/>
      <point x="390" y="384"/>
      <point x="433" y="321" type="curve"/>
      <point x="430" y="377" type="line"/>
      <point x="387" y="433"/>
      <point x="333" y="468"/>
      <point x="259" y="468" type="curve" smooth="yes"/>
      <point x="131" y="468"/>
      <point x="64" y="353"/>
      <point x="64" y="233" type="curve" smooth="yes"/>
      <point x="64" y="82"/>
      <point x="147" y="-11"/>
      <point x="273" y="-11" type="curve" smooth="yes"/>
      <point x="399" y="-11"/>
      <point x="486" y="90"/>
      <point x="486" y="280" type="curve" smooth="yes"/>
      <point x="486" y="473"/>
      <point x="430" y="590"/>
      <point x="308" y="675" type="curve"/>
      <point x="255" y="710"/>
      <point x="200" y="732"/>
      <point x="141" y="744" type="curve"/>
    </contour>
    <contour>
      <point x="276" y="679" type="line"/>
      <point x="257" y="659" type="line"/>
      <point x="170" y="571" type="line"/>
      <point x="212" y="552" type="line"/>
      <point x="294" y="634" type="line"/>
      <point x="315" y="655" type="line"/>
      <point x="390" y="731" type="line"/>
      <point x="355" y="761" type="line"/>
    </contour>
  </outline>
</glyph>
<glyph name="oslash" format="1">
  <advance width="571"/>
  <unicode hex="00F8"/>
  <outline>
    <contour>
      <point x="149" y="534"/>
      <point x="64" y="429"/>
      <point x="64" y="261" type="curve" smooth="yes"/>
      <point x="64" y="93"/>
      <point x="147" y="-11"/>
      <point x="285" y="-11" type="curve" smooth="yes"/>
      <point x="422" y="-11"/>
      <point x="507" y="94"/>
      <point x="507" y="263" type="curve" smooth="yes"/>
      <point x="507" y="434"/>
      <point x="424" y="534"/>
      <point x="286" y="534" type="curve" smooth="yes"/>
    </contour>
    <contour>
      <point x="387" y="486"/>
      <point x="446" y="419"/>
      <point x="446" y="263" type="curve" smooth="yes"/>
      <point x="446" y="113"/>
      <point x="386" y="37"/>
      <point x="285" y="37" type="curve" smooth="yes"/>
      <point x="184" y="37"/>
      <point x="125" y="105"/>
      <point x="125" y="261" type="curve" smooth="yes"/>
      <point x="125" y="411"/>
      <point x="186" y="486"/>
      <point x="286" y="486" type="curve" smooth="yes"/>
    </contour>
    <contour>
      <point x="349" y="525" type="line"/>
      <point x="340" y="484" type="line"/>
      <point x="196" y="52" type="line"/>
      <point x="180" y="24" type="line"/>
      <point x="134" y="-111" type="line"/>
      <point x="182" y="-125" type="line"/>
      <point x="225" y="3" type="line"/>
      <point x="232" y="37" type="line"/>
      <point x="375" y="469" type="line"/>
      <point x="395" y="507" type="line"/>
      <point x="437" y="634" type="line"/>
      <point x="389" y="648" type="line"/>
    </contour>
    <contour>
      <point x="286" y="523" type="move" name="top"/>
    </contour>
  </outline>
</glyph>
<glyph name="thorn" format="1">
  <advance width="580"/>
  <unicode hex="00FE"/>
  <outline>
    <contour>
      <point x="249" y="534"/>
      <point x="190" y="495"/>
      <point x="152" y="434" type="curve"/>
      <point x="156" y="386" type="line"/>
      <point x="194" y="441"/>
      <point x="240" y="486"/>
      <point x="311" y="486" type="curve" smooth="yes"/>
      <point x="403" y="486"/>
      <point x="450" y="413"/>
      <point x="450" y="264" type="curve" smooth="yes"/>
      <point x="450" y="114"/>
      <point x="398" y="38"/>
      <point x="302" y="38" type="curve" smooth="yes"/>
      <point x="238" y="38"/>
      <point x="189" y="74"/>
      <point x="156" y="129" type="curve"/>
      <point x="154" y="74" type="line"/>
      <point x="186" y="25"/>
      <point x="241" y="-11"/>
      <point x="313" y="-11" type="curve" smooth="yes"/>
      <point x="442" y="-11"/>
      <point x="511" y="98"/>
      <point x="511" y="264" type="curve" smooth="yes"/>
      <point x="511" y="433"/>
      <point x="450" y="534"/>
      <point x="321" y="534" type="curve" smooth="yes"/>
    </contour>
    <contour>
      <point x="106" y="736" type="line"/>
      <point x="106" y="-205" type="line"/>
      <point x="163" y="-195" type="line"/>
      <point x="163" y="743" type="line"/>
    </contour>
  </outline>
</glyph>
<glyph name="Hbar" format="1">
  <advance width="668"/>
  <unicode hex="0126"/>
  <outline>
    <contour>
      <point x="556" y="557" type="line"/>
      <point x="46" y="557" type="line"/>
      <point x="46" y="514" type="line"/>
      <point x="112" y="514" type="line"/>
      <point x="621" y="514" type="line"/>
      <point x="621" y="557" type="line"/>
    </contour>
    <contour>
      <point x="563" y="0" type="line"/>
      <point x="563" y="685" type="line"/>
      <point x="504" y="685" type="line"/>
      <point x="504" y="386" type="line"/>
      <point x="174" y="386" type="line"/>
      <point x="174" y="685" type="line"/>
      <point x="115" y="685" type="line"/>
      <point x="115" y="0" type="line"/>
      <point x="174" y="0" type="line"/>
      <point x="174" y="335" type="line"/>
      <point x="504" y="335" type="line"/>
      <point x="504" y="0" type="line"/>
    </contour>
  </outline>
</glyph>
<glyph name="hbar" format="1">
  <advance width="589"/>
  <unicode hex="0127"/>
  <outline>
    <contour>
      <point x="36" y="662" type="line"/>
      <point x="36" y="617" type="line"/>
      <point x="113" y="617" type="line"/>
      <point x="332" y="617" type="line"/>
      <point x="339" y="662" type="line"/>
    </contour>
    <contour>
      <point x="261" y="534"/>
      <point x="200" y="487"/>
      <point x="157" y="418" type="curve"/>
      <point x="169" y="380" type="line"/>
      <point x="212" y="443"/>
      <point x="261" y="487"/>
      <point x="332" y="487" type="curve" smooth="yes"/>
      <point x="395" y="487"/>
      <point x="431" y="451"/>
      <point x="431" y="366" type="curve" smooth="yes"/>
      <point x="431" y="0" type="line"/>
      <point x="488" y="0" type="line"/>
      <point x="488" y="373" type="line" smooth="yes"/>
      <point x="488" y="473"/>
      <point x="437" y="534"/>
      <point x="342" y="534" type="curve" smooth="yes"/>
    </contour>
    <contour>
      <point x="112" y="736" type="line"/>
      <point x="112" y="0" type="line"/>
      <point x="169" y="0" type="line"/>
      <point x="169" y="743" type="line"/>
    </contour>
  </outline>
</glyph>
<glyph name="kgreenlandic" format="1">
  <advance width="486"/>
  <unicode hex="0138"/>
  <outline>
    <contour>
      <point x="389" y="523" type="line"/>
      <point x="168" y="276" type="line"/>
      <point x="409" y="0" type="line"/>
      <point x="478" y="0" type="line"/>
      <point x="234" y="279" type="line"/>
      <point x="455" y="523" type="line"/>
    </contour>
    <contour>
      <point x="106" y="523" type="line"/>
      <point x="106" y="0" type="line"/>
      <point x="163" y="0" type="line"/>
      <point x="163" y="523" type="line"/>
    </contour>
  </outline>
</glyph>
<glyph name="Lslash" format="1">
  <advance width="484"/>
  <unicode hex="0141"/>
  <outline>
    <contour>
      <point x="122" y="335" type="line"/>
      <point x="33" y="280" type="line"/>
      <point x="57" y="242" type="line"/>
      <point x="386" y="446" type="line"/>
      <point x="362" y="485" type="line"/>
    </contour>
    <contour>
      <point x="122" y="685" type="line"/>
      <point x="122" y="0" type="line"/>
      <point x="459" y="0" type="line"/>
      <point x="467" y="53" type="line"/>
      <point x="181" y="53" type="line"/>
      <point x="181" y="685" type="line"/>
    </contour>
  </outline>
</glyph>
<glyph name="lslash" format="1">
  <advance width="291"/>
  <unicode hex="0142"/>
  <outline>
    <contour>
      <point x="28" y="336" type="line"/>
      <point x="50" y="295" type="line"/>
      <point x="275" y="433" type="line"/>
      <point x="253" y="475" type="line"/>
    </contour>
    <contour>
      <point x="108" y="736" type="line"/>
      <point x="108" y="89" type="line" smooth="yes"/>
      <point x="108" y="21"/>
      <point x="141" y="-11"/>
      <point x="197" y="-11" type="curve" smooth="yes"/>
      <point x="219" y="-11"/>
      <point x="241" y="-5"/>
      <point x="259" y="3" type="curve"/>
      <point x="244" y="45" type="line"/>
      <point x="232" y="41"/>
      <point x="220" y="38"/>
      <point x="208" y="38" type="curve" smooth="yes"/>
      <point x="177" y="38"/>
      <point x="165" y="55"/>
      <point x="165" y="90" type="curve" smooth="yes"/>
      <point x="165" y="743" type="line"/>
    </contour>
  </outline>
</glyph>
<glyph name="Eng" format="1">
  <advance width="672"/>
  <unicode hex="014A"/>
  <outline>
    <contour>
      <point x="505" y="685" type="line"/>
      <point x="505" y="267" type="line"/>
      <point x="505" y="179"/>
      <point x="511" y="94"/>
      <point x="513" y="65" type="curve"/>
      <point x="511" y="65" type="line"/>
      <point x="189" y="685" type="line"/>
      <point x="111" y="685" type="line"/>
      <point x="111" y="0" type="line"/>
      <point x="167" y="0" type="line"/>
      <point x="167" y="385" type="line"/>
      <point x="167" y="508"/>
      <point x="163" y="572"/>
      <point x="159" y="619" type="curve"/>
      <point x="161" y="619" type="line"/>
      <point x="482" y="0" type="line"/>
      <point x="517" y="0" type="line"/>
      <point x="561" y="18" type="line"/>
      <point x="561" y="685" type="line"/>
    </contour>
    <contour>
      <point x="511" y="16" type="line"/>
      <point x="511" y="-100"/>
      <point x="477" y="-128"/>
      <point x="406" y="-164" type="curve"/>
      <point x="422" y="-203" type="line"/>
      <point x="516" y="-159"/>
      <point x="561" y="-121"/>
      <point x="561" y="18" type="curve"/>
    </contour>
  </outline>
</glyph>
<glyph name="eng" format="1">
  <advance width="584"/>
  <unicode hex="014B"/>
  <outline>
    <contour>
      <point x="255" y="534"/>
      <point x="193" y="487"/>
      <point x="151" y="419" type="curve"/>
      <point x="163" y="379" type="line"/>
      <point x="206" y="443"/>
      <point x="255" y="487"/>
      <point x="326" y="487" type="curve" smooth="yes"/>
      <point x="390" y="487"/>
      <point x="425" y="451"/>
      <point x="425" y="366" type="curve" smooth="yes"/>
      <point x="425" y="90" type="line"/>
      <point x="482" y="90" type="line"/>
      <point x="482" y="373" type="line" smooth="yes"/>
      <point x="482" y="473"/>
      <point x="431" y="534"/>
      <point x="337" y="534" type="curve" smooth="yes"/>
    </contour>
    <contour>
      <point x="106" y="523" type="line"/>
      <point x="106" y="0" type="line"/>
      <point x="163" y="0" type="line"/>
      <point x="163" y="393" type="line"/>
      <point x="155" y="523" type="line"/>
    </contour>
    <contour>
      <point x="425" y="99" type="line"/>
      <point x="425" y="16" type="line" smooth="yes"/>
      <point x="425" y="-99"/>
      <point x="395" y="-127"/>
      <point x="326" y="-161" type="curve"/>
      <point x="343" y="-203" type="line"/>
      <point x="437" y="-159"/>
      <point x="482" y="-121"/>
      <point x="482" y="18" type="curve" smooth="yes"/>
      <point x="482" y="99" type="line"/>
    </contour>
  </outline>
</glyph>
<glyph name="OE" format="1">
  <advance width="874"/>
  <unicode hex="0152"/>
  <outline>
    <contour>
      <point x="181" y="696"/>
      <point x="66" y="567"/>
      <point x="66" y="341" type="curve" smooth="yes"/>
      <point x="66" y="113"/>
      <point x="180" y="-11"/>
      <point x="334" y="-11" type="curve" smooth="yes"/>
      <point x="377" y="-11"/>
      <point x="420" y="1"/>
      <point x="452" y="26" type="curve"/>
      <point x="549" y="75"/>
      <point x="605" y="186"/>
      <point x="605" y="347" type="curve" smooth="yes"/>
      <point x="605" y="500"/>
      <point x="552" y="607"/>
      <point x="460" y="656" type="curve"/>
      <point x="427" y="683"/>
      <point x="382" y="696"/>
      <point x="334" y="696" type="curve" smooth="yes"/>
    </contour>
    <contour>
      <point x="467" y="49" type="line"/>
      <point x="400" y="0" type="line"/>
      <point x="823" y="0" type="line"/>
      <point x="823" y="49" type="line"/>
    </contour>
    <contour>
      <point x="570" y="380" type="line"/>
      <point x="570" y="331" type="line"/>
      <point x="772" y="331" type="line"/>
      <point x="772" y="380" type="line"/>
    </contour>
    <contour>
      <point x="402" y="685" type="line"/>
      <point x="465" y="636" type="line"/>
      <point x="809" y="636" type="line"/>
      <point x="816" y="685" type="line"/>
    </contour>
    <contour>
      <point x="458" y="646"/>
      <point x="543" y="550"/>
      <point x="543" y="347" type="curve" smooth="yes"/>
      <point x="543" y="136"/>
      <point x="460" y="39"/>
      <point x="335" y="39" type="curve" smooth="yes"/>
      <point x="218" y="39"/>
      <point x="128" y="136"/>
      <point x="128" y="341" type="curve" smooth="yes"/>
      <point x="128" y="549"/>
      <point x="216" y="646"/>
      <point x="335" y="646" type="curve"/>
    </contour>
  </outline>
</glyph>
<glyph name="oe" format="1">
  <advance width="920"/>
  <unicode hex="0153"/>
  <outline>
    <contour>
      <point x="149" y="534"/>
      <point x="64" y="429"/>
      <point x="64" y="261" type="curve" smooth="yes"/>
      <point x="64" y="93"/>
      <point x="147" y="-11"/>
      <point x="285" y="-11" type="curve" smooth="yes"/>
      <point x="422" y="-11"/>
      <point x="497" y="102"/>
      <point x="507" y="263" type="curve"/>
      <point x="498" y="428"/>
      <point x="425" y="534"/>
      <point x="286" y="534" type="curve" smooth="yes"/>
    </contour>
    <contour>
      <point x="387" y="486"/>
      <point x="446" y="411"/>
      <point x="446" y="263" type="curve" smooth="yes"/>
      <point x="446" y="113"/>
      <point x="386" y="37"/>
      <point x="285" y="37" type="curve" smooth="yes"/>
      <point x="184" y="37"/>
      <point x="125" y="114"/>
      <point x="125" y="261" type="curve" smooth="yes"/>
      <point x="125" y="411"/>
      <point x="186" y="486"/>
      <point x="286" y="486" type="curve" smooth="yes"/>
    </contour>
    <contour>
      <point x="527" y="534"/>
      <point x="455" y="419"/>
      <point x="446" y="257" type="curve"/>
      <point x="456" y="97"/>
      <point x="531" y="-11"/>
      <point x="667" y="-11" type="curve" smooth="yes"/>
      <point x="737" y="-11"/>
      <point x="790" y="13"/>
      <point x="838" y="53" type="curve"/>
      <point x="811" y="89" type="line"/>
      <point x="766" y="55"/>
      <point x="727" y="38"/>
      <point x="670" y="38" type="curve" smooth="yes"/>
      <point x="576" y="38"/>
      <point x="507" y="103"/>
      <point x="506" y="260" type="curve"/>
      <point x="506" y="419"/>
      <point x="571" y="486"/>
      <point x="657" y="486" type="curve" smooth="yes"/>
      <point x="756" y="486"/>
      <point x="802" y="413"/>
      <point x="802" y="299" type="curve" smooth="yes"/>
      <point x="802" y="290"/>
      <point x="802" y="287"/>
      <point x="802" y="283" type="curve"/>
      <point x="496" y="283" type="line"/>
      <point x="496" y="239" type="line"/>
      <point x="856" y="239" type="line"/>
      <point x="857" y="249"/>
      <point x="858" y="265"/>
      <point x="858" y="281" type="curve" smooth="yes"/>
      <point x="858" y="435"/>
      <point x="790" y="534"/>
      <point x="655" y="534" type="curve" smooth="yes"/>
    </contour>
    <contour>
      <point x="475" y="523" type="move" name="top"/>
    </contour>
  </outline>
</glyph>
<glyph name="Tbar" format="1">
  <advance width="500"/>
  <unicode hex="0166"/>
  <outline>
    <contour>
      <point x="95" y="384" type="line"/>
      <point x="95" y="338" type="line"/>
      <point x="219" y="338" type="line"/>
      <point x="402" y="338" type="line"/>
      <point x="402" y="384" type="line"/>
    </contour>
    <contour>
      <point x="15" y="684" type="line"/>
      <point x="15" y="632" type="line"/>
      <point x="218" y="632" type="line"/>
      <point x="218" y="-1" type="line"/>
      <point x="277" y="-1" type="line"/>
      <point x="277" y="632" type="line"/>
      <point x="477" y="632" type="line"/>
      <point x="484" y="684" type="line"/>
    </contour>
  </outline>
</glyph>
<glyph name="tbar" format="1">
  <advance width="341"/>
  <unicode hex="0167"/>
  <outline>
    <contour>
      <point x="106" y="350" type="line"/>
      <point x="23" y="350" type="line"/>
      <point x="23" y="304" type="line"/>
      <point x="283" y="304" type="line"/>
      <point x="291" y="350" type="line"/>
    </contour>
    <contour>
      <point x="106" y="648" type="line"/>
      <point x="106" y="127" type="line" smooth="yes"/>
      <point x="106" y="35"/>
      <point x="155" y="-11"/>
      <point x="233" y="-11" type="curve" smooth="yes"/>
      <point x="276" y="-11"/>
      <point x="312" y="1"/>
      <point x="344" y="22" type="curve"/>
      <point x="320" y="62" type="line"/>
      <point x="294" y="47"/>
      <point x="269" y="38"/>
      <point x="240" y="38" type="curve" smooth="yes"/>
      <point x="187" y="38"/>
      <point x="163" y="69"/>
      <point x="163" y="130" type="curve" smooth="yes"/>
      <point x="163" y="655" type="line"/>
    </contour>
    <contour>
      <point x="18" y="523" type="line"/>
      <point x="18" y="477" type="line"/>
      <point x="291" y="477" type="line"/>
      <point x="298" y="523" type="line"/>
    </contour>
  </outline>
</glyph>
<glyph name="florin" format="1">
  <advance width="315"/>
  <unicode hex="0192"/>
  <outline>
    <contour>
      <point x="161" y="743"/>
      <point x="106" y="692"/>
      <point x="106" y="609" type="curve" smooth="yes"/>
      <point x="106" y="16" type="line"/>
      <point x="163" y="71" type="line"/>
      <point x="163" y="607" type="line" smooth="yes"/>
      <point x="163" y="669"/>
      <point x="194" y="695"/>
      <point x="254" y="695" type="curve" smooth="yes"/>
      <point x="287" y="695"/>
      <point x="319" y="688"/>
      <point x="353" y="672" type="curve"/>
      <point x="372" y="715" type="line"/>
      <point x="334" y="733"/>
      <point x="296" y="743"/>
      <point x="251" y="743" type="curve" smooth="yes"/>
    </contour>
    <contour>
      <point x="20" y="523" type="line"/>
      <point x="20" y="477" type="line"/>
      <point x="294" y="477" type="line"/>
      <point x="301" y="523" type="line"/>
    </contour>
    <contour>
      <point x="106" y="393" type="line"/>
      <point x="106" y="16" type="line" smooth="yes"/>
      <point x="106" y="-99"/>
      <point x="76" y="-127"/>
      <point x="7" y="-161" type="curve"/>
      <point x="24" y="-203" type="line"/>
      <point x="118" y="-159"/>
      <point x="163" y="-121"/>
      <point x="163" y="18" type="curve" smooth="yes"/>
      <point x="163" y="393" type="line"/>
    </contour>
  </outline>
</glyph>
<glyph name="jdotless" format="1">
  <advance width="269"/>
  <unicode hex="0237"/>
  <outline>
    <contour>
      <point x="106" y="523" type="line"/>
      <point x="106" y="16" type="line" smooth="yes"/>
      <point x="106" y="-99"/>
      <point x="76" y="-127"/>
      <point x="7" y="-161" type="curve"/>
      <point x="24" y="-203" type="line"/>
      <point x="118" y="-159"/>
      <point x="163" y="-121"/>
      <point x="163" y="18" type="curve" smooth="yes"/>
      <point x="163" y="523" type="line"/>
    </contour>
    <contour>
      <point x="134" y="523" type="move" name="top"/>
    </contour>
  </outline>
</glyph>
<glyph name="uni02BC" format="1">
  <advance width="153"/>
  <unicode hex="02BC"/>
  <outline>
    <contour>
      <point x="54" y="743"/>
      <point x="36" y="725"/>
      <point x="36" y="701" type="curve" smooth="yes"/>
      <point x="36" y="684"/>
      <point x="43" y="672"/>
      <point x="58" y="664" type="curve"/>
      <point x="30" y="546" type="line"/>
      <point x="65" y="546" type="line"/>
      <point x="101" y="636" type="line" smooth="yes"/>
      <point x="117" y="673"/>
      <point x="123" y="685"/>
      <point x="123" y="701" type="curve" smooth="yes"/>
      <point x="123" y="725"/>
      <point x="106" y="743"/>
      <point x="79" y="743" type="curve" smooth="yes"/>
    </contour>
    <contour>
      <point x="67" y="523" type="move" name="_topleft"/>
    </contour>
  </outline>
</glyph>
<glyph name="circumflex" format="1">
  <advance width="354"/>
  <unicode hex="02C6"/>
  <outline>
    <contour>
      <point x="177" y="728" type="line"/>
      <point x="298" y="644" type="line"/>
      <point x="324" y="673" type="line"/>
      <point x="194" y="779" type="line"/>
      <point x="159" y="779" type="line"/>
      <point x="30" y="673" type="line"/>
      <point x="55" y="644" type="line"/>
    </contour>
    <contour>
      <point x="175" y="523" type="move" name="_top"/>
    </contour>
  </outline>
</glyph>
<glyph name="caron" format="1">
  <advance width="354"/>
  <unicode hex="02C7"/>
  <outline>
    <contour>
      <point x="177" y="684" type="line"/>
      <point x="56" y="769" type="line"/>
      <point x="30" y="739" type="line"/>
      <point x="160" y="633" type="line"/>
      <point x="195" y="633" type="line"/>
      <point x="324" y="739" type="line"/>
      <point x="299" y="769" type="line"/>
    </contour>
    <contour>
      <point x="175" y="521" type="move" name="_top"/>
    </contour>
  </outline>
</glyph>
<glyph name="dotaccent" format="1">
  <advance width="146"/>
  <unicode hex="02D9"/>
  <outline>
    <contour>
      <point x="47" y="752"/>
      <point x="30" y="734"/>
      <point x="30" y="711" type="curve" smooth="yes"/>
      <point x="30" y="688"/>
      <point x="47" y="670"/>
      <point x="73" y="670" type="curve" smooth="yes"/>
      <point x="99" y="670"/>
      <point x="116" y="688"/>
      <point x="116" y="711" type="curve" smooth="yes"/>
      <point x="116" y="734"/>
      <point x="99" y="752"/>
      <point x="73" y="752" type="curve" smooth="yes"/>
    </contour>
    <contour>
      <point x="73" y="523" type="move" name="_top"/>
    </contour>
    <contour>
      <point x="73" y="712" type="move" name="_center"/>
    </contour>
  </outline>
</glyph>
<glyph name="ring" format="1">
  <advance width="254"/>
  <unicode hex="02DA"/>
  <outline>
    <contour>
      <point x="70" y="820"/>
      <point x="30" y="781"/>
      <point x="30" y="727" type="curve" smooth="yes"/>
      <point x="30" y="672"/>
      <point x="70" y="633"/>
      <point x="128" y="633" type="curve"/>
      <point x="186" y="633"/>
      <point x="226" y="672"/>
      <point x="226" y="727" type="curve" smooth="yes"/>
      <point x="226" y="781"/>
      <point x="186" y="820"/>
      <point x="128" y="820" type="curve"/>
    </contour>
    <contour>
      <point x="163" y="785"/>
      <point x="183" y="763"/>
      <point x="183" y="727" type="curve" smooth="yes"/>
      <point x="183" y="690"/>
      <point x="163" y="668"/>
      <point x="128" y="668" type="curve"/>
      <point x="93" y="668"/>
      <point x="73" y="690"/>
      <point x="73" y="727" type="curve" smooth="yes"/>
      <point x="73" y="763"/>
      <point x="93" y="785"/>
      <point x="128" y="785" type="curve"/>
    </contour>
    <contour>
      <point x="128" y="523" type="move" name="_top"/>
    </contour>
  </outline>
</glyph>
<glyph name="ogonek" format="1">
  <advance width="255"/>
  <unicode hex="02DB"/>
  <outline>
    <contour>
      <point x="51" y="-14"/>
      <point x="-3" y="-59"/>
      <point x="-3" y="-126" type="curve" smooth="yes"/>
      <point x="-3" y="-178"/>
      <point x="35" y="-217"/>
      <point x="108" y="-217" type="curve" smooth="yes"/>
      <point x="130" y="-217"/>
      <point x="146" y="-215"/>
      <point x="166" y="-211" type="curve"/>
      <point x="171" y="-163" type="line"/>
      <point x="149" y="-168"/>
      <point x="134" y="-170"/>
      <point x="115" y="-170" type="curve" smooth="yes"/>
      <point x="70" y="-170"/>
      <point x="50" y="-150"/>
      <point x="50" y="-118" type="curve" smooth="yes"/>
      <point x="50" y="-71"/>
      <point x="84" y="-39"/>
      <point x="172" y="0" type="curve"/>
      <point x="160" y="25" type="line"/>
    </contour>
    <contour>
      <point x="182" y="0" type="move" name="_ogonek"/>
    </contour>
  </outline>
</glyph>
<glyph name="tilde" format="1">
  <advance width="360"/>
  <unicode hex="02DC"/>
  <outline>
    <contour>
      <point x="275" y="667"/>
      <point x="306" y="688"/>
      <point x="330" y="737" type="curve"/>
      <point x="294" y="756" type="line"/>
      <point x="274" y="725"/>
      <point x="259" y="712"/>
      <point x="239" y="712" type="curve" smooth="yes"/>
      <point x="200" y="712"/>
      <point x="167" y="758"/>
      <point x="122" y="758" type="curve" smooth="yes"/>
      <point x="81" y="758"/>
      <point x="52" y="730"/>
      <point x="30" y="691" type="curve"/>
      <point x="65" y="672" type="line"/>
      <point x="83" y="699"/>
      <point x="95" y="712"/>
      <point x="122" y="712" type="curve" smooth="yes"/>
      <point x="156" y="712"/>
      <point x="185" y="667"/>
      <point x="242" y="667" type="curve" smooth="yes"/>
    </contour>
    <contour>
      <point x="180" y="523" type="move" name="_top"/>
    </contour>
  </outline>
</glyph>
<glyph name="hungarumlaut" format="1">
  <advance width="311"/>
  <unicode hex="02DD"/>
  <outline>
    <contour>
      <point x="151" y="660" type="line"/>
      <point x="188" y="642" type="line"/>
      <point x="281" y="784" type="line"/>
      <point x="229" y="811" type="line"/>
    </contour>
    <contour>
      <point x="30" y="664" type="line"/>
      <point x="68" y="647" type="line"/>
      <point x="152" y="783" type="line"/>
      <point x="100" y="810" type="line"/>
    </contour>
    <contour>
      <point x="115" y="523" type="move" name="_top"/>
    </contour>
  </outline>
</glyph>
<glyph name="acutecomb" format="1">
  <advance width="266"/>
  <unicode hex="0301"/>
  <outline>
    <contour>
      <point x="39" y="666" type="line"/>
      <point x="55" y="632" type="line"/>
      <point x="252" y="710" type="line"/>
      <point x="226" y="761" type="line"/>
    </contour>
    <contour>
      <point x="146" y="523" type="move" name="_top"/>
    </contour>
  </outline>
</glyph>
<glyph name="uni0302" format="1">
  <advance width="355"/>
  <unicode hex="0302"/>
  <outline>
    <contour>
      <point x="333" y="666" type="line"/>
      <point x="204" y="767" type="line"/>
      <point x="169" y="767" type="line"/>
      <point x="39" y="666" type="line"/>
      <point x="65" y="636" type="line"/>
      <point x="186" y="716" type="line"/>
      <point x="308" y="636" type="line"/>
    </contour>
    <contour>
      <point x="186" y="523" type="move" name="_top"/>
    </contour>
  </outline>
</glyph>
<glyph name="uni0306" format="1">
  <advance width="308"/>
  <unicode hex="0306"/>
  <outline>
    <contour>
      <point x="237" y="639"/>
      <point x="290" y="682"/>
      <point x="299" y="739" type="curve"/>
      <point x="260" y="747" type="line"/>
      <point x="247" y="711"/>
      <point x="215" y="686"/>
      <point x="168" y="686" type="curve"/>
      <point x="121" y="686"/>
      <point x="91" y="711"/>
      <point x="78" y="747" type="curve"/>
      <point x="39" y="739" type="line"/>
      <point x="48" y="682"/>
      <point x="99" y="639"/>
      <point x="168" y="639" type="curve"/>
    </contour>
    <contour>
      <point x="169" y="523" type="move" name="_top"/>
    </contour>
  </outline>
</glyph>
<glyph name="uni030C" format="1">
  <advance width="347"/>
  <unicode hex="030C"/>
  <outline>
    <contour>
      <point x="186" y="681" type="line"/>
      <point x="65" y="761" type="line"/>
      <point x="39" y="731" type="line"/>
      <point x="169" y="630" type="line"/>
      <point x="204" y="630" type="line"/>
      <point x="333" y="731" type="line"/>
      <point x="308" y="761" type="line"/>
    </contour>
    <contour>
      <point x="186" y="523" type="move" name="_top"/>
    </contour>
  </outline>
</glyph>
<glyph name="uni0313" format="1">
  <advance width="150"/>
  <unicode hex="0313"/>
  <outline>
    <component base="uni0326" yOffset="867"/>
    <contour>
      <point x="44" y="523" type="move" name="_top"/>
    </contour>
  </outline>
</glyph>
<glyph name="uni0326" format="1">
  <advance width="153"/>
  <unicode hex="0326"/>
  <outline>
    <contour>
      <point x="54" y="-85"/>
      <point x="36" y="-103"/>
      <point x="36" y="-127" type="curve" smooth="yes"/>
      <point x="36" y="-144"/>
      <point x="43" y="-156"/>
      <point x="58" y="-164" type="curve"/>
      <point x="26" y="-279" type="line"/>
      <point x="61" y="-279" type="line"/>
      <point x="101" y="-193" type="line" smooth="yes"/>
      <point x="118" y="-156"/>
      <point x="123" y="-143"/>
      <point x="123" y="-127" type="curve" smooth="yes"/>
      <point x="123" y="-103"/>
      <point x="106" y="-85"/>
      <point x="79" y="-85" type="curve" smooth="yes"/>
    </contour>
    <contour>
      <point x="79" y="0" type="move" name="_bottom"/>
    </contour>
  </outline>
</glyph>
<glyph name="tonos" format="1">
  <advance width="157"/>
  <unicode hex="0384"/>
  <outline>
    <contour>
      <point x="30" y="607" type="line"/>
      <point x="72" y="600" type="line"/>
      <point x="127" y="761" type="line"/>
      <point x="64" y="773" type="line"/>
    </contour>
    <contour>
      <point x="50" y="523" type="move" name="_top"/>
    </contour>
  </outline>
</glyph>
<glyph name="dieresistonos" format="1">
  <advance width="336"/>
  <unicode hex="0385"/>
  <outline>
    <contour>
      <point x="146" y="723" type="line"/>
      <point x="187" y="716" type="line"/>
      <point x="238" y="857" type="line"/>
      <point x="175" y="869" type="line"/>
    </contour>
    <contour>
      <point x="47" y="710"/>
      <point x="30" y="694"/>
      <point x="30" y="672" type="curve" smooth="yes"/>
      <point x="30" y="650"/>
      <point x="47" y="633"/>
      <point x="69" y="633" type="curve" smooth="yes"/>
      <point x="92" y="633"/>
      <point x="109" y="650"/>
      <point x="109" y="672" type="curve" smooth="yes"/>
      <point x="109" y="694"/>
      <point x="92" y="710"/>
      <point x="69" y="710" type="curve" smooth="yes"/>
    </contour>
    <contour>
      <point x="244" y="710"/>
      <point x="227" y="694"/>
      <point x="227" y="672" type="curve" smooth="yes"/>
      <point x="227" y="650"/>
      <point x="244" y="633"/>
      <point x="267" y="633" type="curve" smooth="yes"/>
      <point x="290" y="633"/>
      <point x="306" y="650"/>
      <point x="306" y="672" type="curve" smooth="yes"/>
      <point x="306" y="694"/>
      <point x="290" y="710"/>
      <point x="267" y="710" type="curve" smooth="yes"/>
    </contour>
    <contour>
      <point x="169" y="523" type="move" name="_top"/>
    </contour>
  </outline>
</glyph>
<glyph name="Lambda" format="1">
  <advance width="565"/>
  <unicode hex="039B"/>
  <outline>
    <contour>
      <point x="246" y="685" type="line"/>
      <point x="17" y="0" type="line"/>
      <point x="76" y="0" type="line"/>
      <point x="282" y="637" type="line"/>
      <point x="486" y="0" type="line"/>
      <point x="548" y="0" type="line"/>
      <point x="319" y="685" type="line"/>
    </contour>
  </outline>
</glyph>
<glyph name="Xi" format="1">
  <advance width="497"/>
  <unicode hex="039E"/>
  <outline>
    <contour>
      <point x="51" y="56" type="line"/>
      <point x="51" y="0" type="line"/>
      <point x="446" y="0" type="line"/>
      <point x="446" y="56" type="line"/>
    </contour>
    <contour>
      <point x="109" y="382" type="line"/>
      <point x="109" y="328" type="line"/>
      <point x="385" y="328" type="line"/>
      <point x="385" y="382" type="line"/>
    </contour>
    <contour>
      <point x="51" y="685" type="line"/>
      <point x="51" y="631" type="line"/>
      <point x="429" y="631" type="line"/>
      <point x="437" y="685" type="line"/>
    </contour>
  </outline>
</glyph>
<glyph name="Sigma" format="1">
  <advance width="493"/>
  <unicode hex="03A3"/>
  <outline>
    <contour>
      <point x="46" y="685" type="line"/>
      <point x="46" y="642" type="line"/>
      <point x="277" y="339" type="line"/>
      <point x="46" y="43" type="line"/>
      <point x="46" y="0" type="line"/>
      <point x="448" y="0" type="line"/>
      <point x="448" y="50" type="line"/>
      <point x="118" y="50" type="line"/>
      <point x="332" y="323" type="line"/>
      <point x="332" y="357" type="line"/>
      <point x="118" y="635" type="line"/>
      <point x="448" y="635" type="line"/>
      <point x="448" y="685" type="line"/>
    </contour>
  </outline>
</glyph>
<glyph name="Phi" format="1">
  <advance width="790"/>
  <unicode hex="03A6"/>
  <outline>
    <contour>
      <point x="412" y="568" type="line"/>
      <point x="595" y="566"/>
      <point x="689" y="486"/>
      <point x="689" y="344" type="curve" smooth="yes"/>
      <point x="689" y="191"/>
      <point x="596" y="124"/>
      <point x="411" y="116" type="curve"/>
      <point x="413" y="70" type="line"/>
      <point x="631" y="75"/>
      <point x="750" y="167"/>
      <point x="750" y="344" type="curve" smooth="yes"/>
      <point x="750" y="506"/>
      <point x="637" y="611"/>
      <point x="412" y="614" type="curve"/>
    </contour>
    <contour>
      <point x="160" y="610"/>
      <point x="41" y="517"/>
      <point x="41" y="343" type="curve" smooth="yes"/>
      <point x="41" y="178"/>
      <point x="154" y="74"/>
      <point x="378" y="70" type="curve"/>
      <point x="379" y="117" type="line"/>
      <point x="195" y="119"/>
      <point x="101" y="199"/>
      <point x="101" y="343" type="curve" smooth="yes"/>
      <point x="101" y="494"/>
      <point x="194" y="561"/>
      <point x="379" y="569" type="curve"/>
      <point x="377" y="614" type="line"/>
    </contour>
    <contour>
      <point x="366" y="685" type="line"/>
      <point x="366" y="602" type="line"/>
      <point x="368" y="577" type="line"/>
      <point x="368" y="104" type="line"/>
      <point x="366" y="80" type="line"/>
      <point x="366" y="0" type="line"/>
      <point x="424" y="0" type="line"/>
      <point x="424" y="80" type="line"/>
      <point x="422" y="104" type="line"/>
      <point x="422" y="577" type="line"/>
      <point x="424" y="602" type="line"/>
      <point x="424" y="685" type="line"/>
    </contour>
  </outline>
</glyph>
<glyph name="Psi" format="1">
  <advance width="670"/>
  <unicode hex="03A8"/>
  <outline>
    <contour>
      <point x="322" y="250" type="line"/>
      <point x="172" y="252"/>
      <point x="99" y="311"/>
      <point x="99" y="431" type="curve" smooth="yes"/>
      <point x="99" y="685" type="line"/>
      <point x="41" y="685" type="line"/>
      <point x="41" y="426" type="line" smooth="yes"/>
      <point x="41" y="282"/>
      <point x="137" y="205"/>
      <point x="321" y="200" type="curve"/>
    </contour>
    <contour>
      <point x="349" y="200" type="line"/>
      <point x="529" y="205"/>
      <point x="629" y="280"/>
      <point x="629" y="427" type="curve" smooth="yes"/>
      <point x="629" y="685" type="line"/>
      <point x="571" y="685" type="line"/>
      <point x="571" y="431" type="line" smooth="yes"/>
      <point x="571" y="311"/>
      <point x="496" y="252"/>
      <point x="347" y="250" type="curve"/>
    </contour>
    <contour>
      <point x="363" y="239" type="line"/>
      <point x="363" y="685" type="line"/>
      <point x="306" y="685" type="line"/>
      <point x="306" y="239" type="line"/>
      <point x="305" y="211" type="line"/>
      <point x="305" y="0" type="line"/>
      <point x="364" y="0" type="line"/>
      <point x="364" y="211" type="line"/>
    </contour>
  </outline>
</glyph>
<glyph name="Omega" format="1">
  <advance width="691"/>
  <unicode hex="03A9"/>
  <outline>
    <contour>
      <point x="181" y="696"/>
      <point x="66" y="567"/>
      <point x="66" y="345" type="curve" smooth="yes"/>
      <point x="66" y="188"/>
      <point x="110" y="103"/>
      <point x="208" y="52" type="curve"/>
      <point x="88" y="52" type="line"/>
      <point x="88" y="0" type="line"/>
      <point x="286" y="0" type="line"/>
      <point x="286" y="51" type="line"/>
      <point x="185" y="92"/>
      <point x="128" y="176"/>
      <point x="128" y="345" type="curve" smooth="yes"/>
      <point x="128" y="549"/>
      <point x="216" y="646"/>
      <point x="345" y="646" type="curve" smooth="yes"/>
      <point x="478" y="646"/>
      <point x="563" y="550"/>
      <point x="563" y="346" type="curve" smooth="yes"/>
      <point x="563" y="180"/>
      <point x="509" y="89"/>
      <point x="405" y="51" type="curve"/>
      <point x="405" y="0" type="line"/>
      <point x="603" y="0" type="line"/>
      <point x="603" y="52" type="line"/>
      <point x="481" y="52" type="line"/>
      <point x="578" y="102"/>
      <point x="625" y="186"/>
      <point x="625" y="346" type="curve" smooth="yes"/>
      <point x="625" y="573"/>
      <point x="513" y="696"/>
      <point x="345" y="696" type="curve" smooth="yes"/>
    </contour>
    <contour>
      <point x="345" y="685" type="move" name="top"/>
    </contour>
  </outline>
</glyph>
<glyph name="alpha" format="1">
  <advance width="591"/>
  <unicode hex="03B1"/>
  <outline>
    <contour>
      <point x="136" y="534"/>
      <point x="65" y="421"/>
      <point x="65" y="261" type="curve" smooth="yes"/>
      <point x="65" y="79"/>
      <point x="134" y="-11"/>
      <point x="248" y="-11" type="curve" smooth="yes"/>
      <point x="340" y="-11"/>
      <point x="397" y="54"/>
      <point x="425" y="179" type="curve"/>
      <point x="442" y="71" type="line" smooth="yes"/>
      <point x="449" y="20"/>
      <point x="481" y="-1"/>
      <point x="515" y="-8" type="curve"/>
      <point x="535" y="40" type="line"/>
      <point x="513" y="48"/>
      <point x="499" y="60"/>
      <point x="493" y="91" type="curve" smooth="yes"/>
      <point x="463" y="262" type="line"/>
      <point x="522" y="523" type="line"/>
      <point x="468" y="523" type="line"/>
      <point x="429" y="340" type="line"/>
      <point x="403" y="490"/>
      <point x="350" y="534"/>
      <point x="255" y="534" type="curve" smooth="yes"/>
    </contour>
    <contour>
      <point x="336" y="487"/>
      <point x="379" y="440"/>
      <point x="412" y="268" type="curve"/>
      <point x="378" y="82"/>
      <point x="317" y="37"/>
      <point x="254" y="37" type="curve" smooth="yes"/>
      <point x="174" y="37"/>
      <point x="126" y="106"/>
      <point x="126" y="261" type="curve" smooth="yes"/>
      <point x="126" y="408"/>
      <point x="182" y="487"/>
      <point x="259" y="487" type="curve" smooth="yes"/>
    </contour>
    <contour>
      <point x="280" y="523" type="move" name="top"/>
    </contour>
  </outline>
</glyph>
<glyph name="beta" format="1">
  <advance width="588"/>
  <unicode hex="03B2"/>
  <outline>
    <contour>
      <point x="184" y="743"/>
      <point x="106" y="670"/>
      <point x="106" y="541" type="curve" smooth="yes"/>
      <point x="106" y="-206" type="line"/>
      <point x="164" y="-196" type="line"/>
      <point x="164" y="540" type="line" smooth="yes"/>
      <point x="164" y="647"/>
      <point x="218" y="696"/>
      <point x="298" y="696" type="curve" smooth="yes"/>
      <point x="368" y="696"/>
      <point x="431" y="661"/>
      <point x="431" y="565" type="curve"/>
      <point x="431" y="452"/>
      <point x="345" y="421"/>
      <point x="278" y="421" type="curve" smooth="yes"/>
      <point x="233" y="421" type="line"/>
      <point x="227" y="375" type="line"/>
      <point x="274" y="375" type="line" smooth="yes"/>
      <point x="400" y="375"/>
      <point x="478" y="315"/>
      <point x="478" y="201" type="curve" smooth="yes"/>
      <point x="479" y="98"/>
      <point x="409" y="37"/>
      <point x="322" y="37" type="curve" smooth="yes"/>
      <point x="247" y="37"/>
      <point x="203" y="60"/>
      <point x="153" y="118" type="curve"/>
      <point x="139" y="82" type="line"/>
      <point x="192" y="18"/>
      <point x="252" y="-11"/>
      <point x="328" y="-11" type="curve" smooth="yes"/>
      <point x="438" y="-11"/>
      <point x="536" y="68"/>
      <point x="537" y="200" type="curve" smooth="yes"/>
      <point x="537" y="339"/>
      <point x="438" y="396"/>
      <point x="329" y="401" type="curve"/>
      <point x="423" y="411"/>
      <point x="487" y="466"/>
      <point x="487" y="570" type="curve"/>
      <point x="486" y="684"/>
      <point x="396" y="743"/>
      <point x="298" y="743" type="curve" smooth="yes"/>
    </contour>
  </outline>
</glyph>
<glyph name="gamma" format="1">
  <advance width="461"/>
  <unicode hex="03B3"/>
  <outline>
    <contour>
      <point x="6" y="511" type="line"/>
      <point x="70" y="433"/>
      <point x="126" y="287"/>
      <point x="200" y="11" type="curve"/>
      <point x="167" y="-73"/>
      <point x="169" y="-130"/>
      <point x="200" y="-206" type="curve"/>
      <point x="246" y="-198" type="line"/>
      <point x="226" y="-115"/>
      <point x="230" y="-58"/>
      <point x="259" y="19" type="curve" smooth="yes"/>
      <point x="445" y="518" type="line"/>
      <point x="387" y="531" type="line"/>
      <point x="231" y="77" type="line"/>
      <point x="175" y="332"/>
      <point x="111" y="465"/>
      <point x="61" y="531" type="curve"/>
    </contour>
  </outline>
</glyph>
<glyph name="delta" format="1">
  <advance width="567"/>
  <unicode hex="03B4"/>
  <outline>
    <contour>
      <point x="119" y="545"/>
      <point x="157" y="502"/>
      <point x="258" y="464" type="curve" smooth="yes"/>
      <point x="398" y="411"/>
      <point x="442" y="359"/>
      <point x="442" y="238" type="curve" smooth="yes"/>
      <point x="442" y="105"/>
      <point x="387" y="37"/>
      <point x="284" y="37" type="curve" smooth="yes"/>
      <point x="183" y="37"/>
      <point x="125" y="107"/>
      <point x="125" y="238" type="curve" smooth="yes"/>
      <point x="125" y="362"/>
      <point x="193" y="431"/>
      <point x="282" y="468" type="curve"/>
      <point x="242" y="486" type="line"/>
      <point x="136" y="445"/>
      <point x="64" y="366"/>
      <point x="64" y="238" type="curve" smooth="yes"/>
      <point x="64" y="79"/>
      <point x="151" y="-11"/>
      <point x="284" y="-11" type="curve" smooth="yes"/>
      <point x="424" y="-11"/>
      <point x="503" y="88"/>
      <point x="503" y="238" type="curve" smooth="yes"/>
      <point x="503" y="377"/>
      <point x="440" y="442"/>
      <point x="311" y="494" type="curve" smooth="yes"/>
      <point x="202" y="536"/>
      <point x="178" y="561"/>
      <point x="178" y="612" type="curve" smooth="yes"/>
      <point x="178" y="660"/>
      <point x="216" y="696"/>
      <point x="291" y="696" type="curve" smooth="yes"/>
      <point x="341" y="696"/>
      <point x="375" y="685"/>
      <point x="417" y="658" type="curve"/>
      <point x="448" y="694" type="line"/>
      <point x="402" y="725"/>
      <point x="354" y="743"/>
      <point x="284" y="743" type="curve" smooth="yes"/>
      <point x="180" y="743"/>
      <point x="119" y="684"/>
      <point x="119" y="614" type="curve" smooth="yes"/>
    </contour>
  </outline>
</glyph>
<glyph name="epsilon" format="1">
  <advance width="460"/>
  <unicode hex="03B5"/>
  <outline>
    <contour>
      <point x="157" y="534"/>
      <point x="85" y="484"/>
      <point x="85" y="397" type="curve" smooth="yes"/>
      <point x="85" y="336"/>
      <point x="124" y="291"/>
      <point x="196" y="277" type="curve"/>
      <point x="116" y="270"/>
      <point x="64" y="232"/>
      <point x="64" y="141" type="curve" smooth="yes"/>
      <point x="64" y="44"/>
      <point x="145" y="-11"/>
      <point x="257" y="-11" type="curve" smooth="yes"/>
      <point x="334" y="-11"/>
      <point x="391" y="14"/>
      <point x="436" y="52" type="curve"/>
      <point x="407" y="89" type="line"/>
      <point x="363" y="57"/>
      <point x="326" y="37"/>
      <point x="260" y="37" type="curve" smooth="yes"/>
      <point x="178" y="37"/>
      <point x="126" y="77"/>
      <point x="126" y="143" type="curve" smooth="yes"/>
      <point x="126" y="223"/>
      <point x="170" y="250"/>
      <point x="264" y="250" type="curve" smooth="yes"/>
      <point x="320" y="250" type="line"/>
      <point x="327" y="297" type="line"/>
      <point x="268" y="297" type="line" smooth="yes"/>
      <point x="192" y="297"/>
      <point x="144" y="336"/>
      <point x="144" y="392" type="curve" smooth="yes"/>
      <point x="144" y="451"/>
      <point x="187" y="487"/>
      <point x="265" y="487" type="curve" smooth="yes"/>
      <point x="319" y="487"/>
      <point x="356" y="474"/>
      <point x="390" y="450" type="curve"/>
      <point x="420" y="487" type="line"/>
      <point x="381" y="514"/>
      <point x="332" y="534"/>
      <point x="260" y="534" type="curve" smooth="yes"/>
    </contour>
    <contour>
      <point x="257" y="523" type="move" name="top"/>
    </contour>
  </outline>
</glyph>
<glyph name="zeta" format="1">
  <advance width="373"/>
  <unicode hex="03B6"/>
  <outline>
    <contour>
      <point x="49" y="736" type="line"/>
      <point x="42" y="688" type="line"/>
      <point x="210" y="688" type="line" smooth="yes"/>
      <point x="256" y="688"/>
      <point x="314" y="688"/>
      <point x="344" y="695" type="curve"/>
      <point x="168" y="572"/>
      <point x="46" y="399"/>
      <point x="46" y="254" type="curve" smooth="yes"/>
      <point x="46" y="125"/>
      <point x="101" y="77"/>
      <point x="204" y="37" type="curve" smooth="yes"/>
      <point x="303" y="-1"/>
      <point x="326" y="-16"/>
      <point x="326" y="-58" type="curve" smooth="yes"/>
      <point x="326" y="-111"/>
      <point x="283" y="-140"/>
      <point x="225" y="-166" type="curve"/>
      <point x="249" y="-206" type="line"/>
      <point x="342" y="-164"/>
      <point x="387" y="-120"/>
      <point x="387" y="-53" type="curve" smooth="yes"/>
      <point x="387" y="15"/>
      <point x="337" y="41"/>
      <point x="240" y="79" type="curve" smooth="yes"/>
      <point x="140" y="117"/>
      <point x="106" y="150"/>
      <point x="106" y="254" type="curve" smooth="yes"/>
      <point x="106" y="400"/>
      <point x="214" y="533"/>
      <point x="399" y="689" type="curve"/>
      <point x="391" y="736" type="line"/>
    </contour>
  </outline>
</glyph>
<glyph name="eta" format="1">
  <advance width="587"/>
  <unicode hex="03B7"/>
  <outline>
    <contour>
      <point x="163" y="424" type="line"/>
      <point x="159" y="467"/>
      <point x="150" y="503"/>
      <point x="139" y="531" type="curve"/>
      <point x="86" y="524" type="line"/>
      <point x="99" y="482"/>
      <point x="110" y="433"/>
      <point x="110" y="355" type="curve" smooth="yes"/>
      <point x="110" y="0" type="line"/>
      <point x="167" y="0" type="line"/>
      <point x="167" y="387" type="line"/>
    </contour>
    <contour>
      <point x="259" y="534"/>
      <point x="197" y="487"/>
      <point x="155" y="419" type="curve"/>
      <point x="167" y="379" type="line"/>
      <point x="210" y="443"/>
      <point x="258" y="487"/>
      <point x="330" y="487" type="curve" smooth="yes"/>
      <point x="394" y="487"/>
      <point x="429" y="452"/>
      <point x="429" y="366" type="curve" smooth="yes"/>
      <point x="429" y="-197" type="line"/>
      <point x="486" y="-205" type="line"/>
      <point x="486" y="373" type="line" smooth="yes"/>
      <point x="486" y="475"/>
      <point x="436" y="534"/>
      <point x="341" y="534" type="curve" smooth="yes"/>
    </contour>
    <contour>
      <point x="285" y="523" type="move" name="top"/>
    </contour>
  </outline>
</glyph>
<glyph name="theta" format="1">
  <advance width="562"/>
  <unicode hex="03B8"/>
  <outline>
    <contour>
      <point x="140" y="743"/>
      <point x="64" y="610"/>
      <point x="64" y="369" type="curve" smooth="yes"/>
      <point x="64" y="124"/>
      <point x="134" y="-11"/>
      <point x="280" y="-11" type="curve" smooth="yes"/>
      <point x="428" y="-11"/>
      <point x="498" y="127"/>
      <point x="498" y="370" type="curve" smooth="yes"/>
      <point x="498" y="603"/>
      <point x="430" y="743"/>
      <point x="283" y="743" type="curve" smooth="yes"/>
    </contour>
    <contour>
      <point x="391" y="695"/>
      <point x="439" y="594"/>
      <point x="439" y="371" type="curve" smooth="yes"/>
      <point x="438" y="141"/>
      <point x="392" y="37"/>
      <point x="280" y="37" type="curve" smooth="yes"/>
      <point x="173" y="37"/>
      <point x="123" y="141"/>
      <point x="123" y="371" type="curve" smooth="yes"/>
      <point x="124" y="594"/>
      <point x="173" y="695"/>
      <point x="283" y="695" type="curve" smooth="yes"/>
    </contour>
    <contour>
      <point x="449" y="393" type="line"/>
      <point x="113" y="393" type="line"/>
      <point x="113" y="347" type="line"/>
      <point x="449" y="347" type="line"/>
    </contour>
  </outline>
</glyph>
<glyph name="iota" format="1">
  <advance width="263"/>
  <unicode hex="03B9"/>
  <outline>
    <contour>
      <point x="101" y="523" type="line"/>
      <point x="101" y="119" type="line" smooth="yes"/>
      <point x="101" y="44"/>
      <point x="123" y="10"/>
      <point x="188" y="-8" type="curve"/>
      <point x="205" y="37" type="line"/>
      <point x="172" y="51"/>
      <point x="158" y="69"/>
      <point x="158" y="124" type="curve" smooth="yes"/>
      <point x="158" y="523" type="line"/>
    </contour>
    <contour>
      <point x="130" y="523" type="move" name="top"/>
    </contour>
  </outline>
</glyph>
<glyph name="kappa" format="1">
  <advance width="503"/>
  <unicode hex="03BA"/>
  <outline>
    <contour>
      <point x="173" y="275" type="line"/>
      <point x="385" y="50" type="line" smooth="yes"/>
      <point x="411" y="21"/>
      <point x="431" y="1"/>
      <point x="474" y="-10" type="curve"/>
      <point x="492" y="33" type="line"/>
      <point x="461" y="45"/>
      <point x="448" y="59"/>
      <point x="420" y="90" type="curve" smooth="yes"/>
      <point x="242" y="277" type="line"/>
      <point x="464" y="509" type="line"/>
      <point x="416" y="534" type="line"/>
    </contour>
    <contour>
      <point x="86" y="524" type="line"/>
      <point x="99" y="482"/>
      <point x="110" y="433"/>
      <point x="110" y="355" type="curve" smooth="yes"/>
      <point x="110" y="0" type="line"/>
      <point x="167" y="0" type="line"/>
      <point x="167" y="345" type="line"/>
      <point x="167" y="450"/>
      <point x="153" y="493"/>
      <point x="139" y="531" type="curve"/>
    </contour>
  </outline>
</glyph>
<glyph name="lambda" format="1">
  <advance width="470"/>
  <unicode hex="03BB"/>
  <outline>
    <contour>
      <point x="76" y="700" type="line"/>
      <point x="178" y="678"/>
      <point x="210" y="627"/>
      <point x="233" y="523" type="curve"/>
      <point x="208" y="523" type="line"/>
      <point x="31" y="5" type="line"/>
      <point x="86" y="-9" type="line"/>
      <point x="244" y="476" type="line"/>
      <point x="304" y="168"/>
      <point x="360" y="82"/>
      <point x="422" y="-9" type="curve"/>
      <point x="479" y="12" type="line"/>
      <point x="413" y="100"/>
      <point x="359" y="179"/>
      <point x="290" y="506" type="curve" smooth="yes"/>
      <point x="258" y="655"/>
      <point x="216" y="717"/>
      <point x="85" y="744" type="curve"/>
    </contour>
  </outline>
</glyph>
<glyph name="mu" format="1">
  <advance width="585"/>
  <unicode hex="03BC"/>
  <outline>
    <contour>
      <point x="420" y="169" type="line"/>
      <point x="380" y="84"/>
      <point x="328" y="39"/>
      <point x="262" y="39" type="curve" smooth="yes"/>
      <point x="211" y="39"/>
      <point x="163" y="68"/>
      <point x="163" y="150" type="curve" smooth="yes"/>
      <point x="163" y="523" type="line"/>
      <point x="106" y="523" type="line"/>
      <point x="106" y="-203" type="line"/>
      <point x="163" y="-197" type="line"/>
      <point x="163" y="-80" type="line" smooth="yes"/>
      <point x="163" y="-25"/>
      <point x="160" y="10"/>
      <point x="153" y="54" type="curve"/>
      <point x="169" y="10"/>
      <point x="211" y="-11"/>
      <point x="262" y="-11" type="curve" smooth="yes"/>
      <point x="344" y="-11"/>
      <point x="396" y="53"/>
      <point x="430" y="119" type="curve"/>
    </contour>
    <contour>
      <point x="420" y="112" type="line"/>
      <point x="423" y="60"/>
      <point x="429" y="34"/>
      <point x="446" y="-9" type="curve"/>
      <point x="499" y="-2" type="line"/>
      <point x="483" y="45"/>
      <point x="471" y="99"/>
      <point x="471" y="177" type="curve" smooth="yes"/>
      <point x="471" y="523" type="line"/>
      <point x="414" y="523" type="line"/>
      <point x="414" y="138" type="line"/>
    </contour>
  </outline>
</glyph>
<glyph name="nu" format="1">
  <advance width="461"/>
  <unicode hex="03BD"/>
  <outline>
    <contour>
      <point x="6" y="511" type="line"/>
      <point x="70" y="433"/>
      <point x="123" y="283"/>
      <point x="191" y="0" type="curve"/>
      <point x="261" y="0" type="line"/>
      <point x="445" y="518" type="line"/>
      <point x="389" y="531" type="line"/>
      <point x="227" y="49" type="line"/>
      <point x="169" y="321"/>
      <point x="112" y="464"/>
      <point x="61" y="531" type="curve"/>
    </contour>
  </outline>
</glyph>
<glyph name="xi" format="1">
  <advance width="423"/>
  <unicode hex="03BE"/>
  <outline>
    <contour>
      <point x="162" y="743"/>
      <point x="95" y="677"/>
      <point x="95" y="585" type="curve" smooth="yes"/>
      <point x="95" y="505"/>
      <point x="141" y="461"/>
      <point x="214" y="444" type="curve"/>
      <point x="133" y="434"/>
      <point x="56" y="378"/>
      <point x="56" y="261" type="curve" smooth="yes"/>
      <point x="56" y="126"/>
      <point x="128" y="88"/>
      <point x="239" y="44" type="curve" smooth="yes"/>
      <point x="338" y="4"/>
      <point x="360" y="-16"/>
      <point x="360" y="-58" type="curve"/>
      <point x="360" y="-111"/>
      <point x="318" y="-140"/>
      <point x="260" y="-166" type="curve"/>
      <point x="284" y="-206" type="line"/>
      <point x="377" y="-164"/>
      <point x="422" y="-120"/>
      <point x="422" y="-53" type="curve" smooth="yes"/>
      <point x="422" y="14"/>
      <point x="378" y="44"/>
      <point x="270" y="87" type="curve" smooth="yes"/>
      <point x="155" y="131"/>
      <point x="116" y="164"/>
      <point x="116" y="261" type="curve" smooth="yes"/>
      <point x="116" y="348"/>
      <point x="171" y="417"/>
      <point x="275" y="417" type="curve" smooth="yes"/>
      <point x="335" y="417" type="line"/>
      <point x="342" y="466" type="line"/>
      <point x="282" y="466" type="line" smooth="yes"/>
      <point x="202" y="466"/>
      <point x="154" y="508"/>
      <point x="154" y="583" type="curve" smooth="yes"/>
      <point x="154" y="646"/>
      <point x="189" y="696"/>
      <point x="276" y="696" type="curve" smooth="yes"/>
      <point x="329" y="696"/>
      <point x="362" y="683"/>
      <point x="401" y="656" type="curve"/>
      <point x="430" y="693" type="line"/>
      <point x="385" y="725"/>
      <point x="339" y="743"/>
      <point x="270" y="743" type="curve" smooth="yes"/>
    </contour>
  </outline>
</glyph>
<glyph name="omicron" format="1">
  <advance width="571"/>
  <unicode hex="03BF"/>
  <outline>
    <component base="o"/>
    <contour>
      <point x="283" y="523" type="move" name="top"/>
    </contour>
  </outline>
</glyph>
<glyph name="pi" format="1">
  <advance width="586"/>
  <unicode hex="03C0"/>
  <outline>
    <contour>
      <point x="402" y="486" type="line"/>
      <point x="402" y="119" type="line"/>
      <point x="402" y="44"/>
      <point x="424" y="10"/>
      <point x="489" y="-8" type="curve"/>
      <point x="508" y="39" type="line"/>
      <point x="473" y="50"/>
      <point x="459" y="69"/>
      <point x="459" y="124" type="curve"/>
      <point x="459" y="486" type="line"/>
    </contour>
    <contour>
      <point x="130" y="489" type="line"/>
      <point x="130" y="0" type="line"/>
      <point x="187" y="0" type="line"/>
      <point x="187" y="489" type="line"/>
    </contour>
    <contour>
      <point x="65" y="472"/>
      <point x="79" y="474"/>
      <point x="121" y="474" type="curve" smooth="yes"/>
      <point x="542" y="474" type="line"/>
      <point x="542" y="523" type="line"/>
      <point x="115" y="523" type="line"/>
      <point x="76" y="523"/>
      <point x="54" y="521"/>
      <point x="25" y="510" type="curve"/>
      <point x="37" y="464" type="line"/>
    </contour>
  </outline>
</glyph>
<glyph name="rho" format="1">
  <advance width="573"/>
  <unicode hex="03C1"/>
  <outline>
    <contour>
      <point x="165" y="534"/>
      <point x="98" y="437"/>
      <point x="98" y="286" type="curve" smooth="yes"/>
      <point x="98" y="-205" type="line"/>
      <point x="155" y="-197" type="line"/>
      <point x="155" y="84" type="line"/>
      <point x="155" y="116" type="line"/>
      <point x="155" y="277" type="line" smooth="yes"/>
      <point x="155" y="409"/>
      <point x="199" y="487"/>
      <point x="298" y="487" type="curve" smooth="yes"/>
      <point x="393" y="487"/>
      <point x="442" y="411"/>
      <point x="442" y="264" type="curve" smooth="yes"/>
      <point x="442" y="113"/>
      <point x="388" y="38"/>
      <point x="295" y="38" type="curve"/>
      <point x="230" y="38"/>
      <point x="179" y="74"/>
      <point x="149" y="139" type="curve"/>
      <point x="145" y="86" type="line"/>
      <point x="177" y="25"/>
      <point x="233" y="-11"/>
      <point x="305" y="-11" type="curve"/>
      <point x="429" y="-11"/>
      <point x="503" y="96"/>
      <point x="503" y="264" type="curve" smooth="yes"/>
      <point x="503" y="434"/>
      <point x="436" y="534"/>
      <point x="299" y="534" type="curve" smooth="yes"/>
    </contour>
  </outline>
</glyph>
<glyph name="sigmafinal" format="1">
  <advance width="458"/>
  <unicode hex="03C2"/>
  <outline>
    <contour>
      <point x="151" y="534"/>
      <point x="64" y="432"/>
      <point x="64" y="269" type="curve"/>
      <point x="64" y="133"/>
      <point x="129" y="73"/>
      <point x="239" y="32" type="curve" smooth="yes"/>
      <point x="328" y="-1"/>
      <point x="351" y="-15"/>
      <point x="351" y="-58" type="curve" smooth="yes"/>
      <point x="351" y="-111"/>
      <point x="309" y="-140"/>
      <point x="250" y="-166" type="curve"/>
      <point x="274" y="-206" type="line"/>
      <point x="368" y="-164"/>
      <point x="412" y="-120"/>
      <point x="412" y="-53" type="curve" smooth="yes"/>
      <point x="412" y="16"/>
      <point x="363" y="42"/>
      <point x="275" y="75" type="curve" smooth="yes"/>
      <point x="168" y="116"/>
      <point x="125" y="155"/>
      <point x="125" y="269" type="curve"/>
      <point x="125" y="410"/>
      <point x="192" y="485"/>
      <point x="288" y="485" type="curve" smooth="yes"/>
      <point x="336" y="485"/>
      <point x="370" y="471"/>
      <point x="404" y="443" type="curve"/>
      <point x="433" y="481" type="line"/>
      <point x="388" y="518"/>
      <point x="344" y="534"/>
      <point x="285" y="534" type="curve" smooth="yes"/>
    </contour>
  </outline>
</glyph>
<glyph name="sigma" format="1">
  <advance width="576"/>
  <unicode hex="03C3"/>
  <outline>
    <contour>
      <point x="467" y="527"/>
      <point x="388" y="530"/>
      <point x="318" y="530" type="curve" smooth="yes"/>
      <point x="143" y="530"/>
      <point x="64" y="421"/>
      <point x="64" y="261" type="curve"/>
      <point x="64" y="93"/>
      <point x="147" y="-11"/>
      <point x="285" y="-11" type="curve" smooth="yes"/>
      <point x="422" y="-11"/>
      <point x="507" y="94"/>
      <point x="507" y="263" type="curve"/>
      <point x="507" y="383"/>
      <point x="455" y="462"/>
      <point x="389" y="492" type="curve"/>
      <point x="331" y="495" type="line"/>
      <point x="394" y="465"/>
      <point x="446" y="389"/>
      <point x="446" y="263" type="curve"/>
      <point x="446" y="113"/>
      <point x="386" y="37"/>
      <point x="285" y="37" type="curve" smooth="yes"/>
      <point x="184" y="37"/>
      <point x="125" y="114"/>
      <point x="125" y="261" type="curve"/>
      <point x="125" y="411"/>
      <point x="182" y="488"/>
      <point x="346" y="487" type="curve"/>
      <point x="387" y="486" type="line"/>
      <point x="532" y="477" type="line"/>
      <point x="532" y="523" type="line"/>
    </contour>
  </outline>
</glyph>
<glyph name="tau" format="1">
  <advance width="450"/>
  <unicode hex="03C4"/>
  <outline>
    <contour>
      <point x="192" y="486" type="line"/>
      <point x="192" y="119" type="line"/>
      <point x="192" y="44"/>
      <point x="214" y="10"/>
      <point x="279" y="-8" type="curve"/>
      <point x="298" y="39" type="line"/>
      <point x="263" y="50"/>
      <point x="249" y="69"/>
      <point x="249" y="124" type="curve"/>
      <point x="249" y="486" type="line"/>
    </contour>
    <contour>
      <point x="44" y="472"/>
      <point x="57" y="474"/>
      <point x="100" y="474" type="curve" smooth="yes"/>
      <point x="441" y="474" type="line"/>
      <point x="441" y="523" type="line"/>
      <point x="94" y="523" type="line"/>
      <point x="54" y="523"/>
      <point x="33" y="521"/>
      <point x="4" y="510" type="curve"/>
      <point x="15" y="464" type="line"/>
    </contour>
  </outline>
</glyph>
<glyph name="upsilon" format="1">
  <advance width="564"/>
  <unicode hex="03C5"/>
  <outline>
    <contour>
      <point x="398" y="523" type="line"/>
      <point x="414" y="437"/>
      <point x="424" y="348"/>
      <point x="424" y="264" type="curve" smooth="yes"/>
      <point x="424" y="89"/>
      <point x="343" y="37"/>
      <point x="272" y="37" type="curve" smooth="yes"/>
      <point x="207" y="37"/>
      <point x="158" y="75"/>
      <point x="158" y="163" type="curve" smooth="yes"/>
      <point x="158" y="523" type="line"/>
      <point x="101" y="523" type="line"/>
      <point x="101" y="159" type="line" smooth="yes"/>
      <point x="101" y="45"/>
      <point x="175" y="-11"/>
      <point x="270" y="-11" type="curve" smooth="yes"/>
      <point x="380" y="-11"/>
      <point x="482" y="70"/>
      <point x="482" y="261" type="curve" smooth="yes"/>
      <point x="482" y="357"/>
      <point x="471" y="442"/>
      <point x="456" y="523" type="curve"/>
    </contour>
    <contour>
      <point x="282" y="523" type="move" name="top"/>
    </contour>
  </outline>
</glyph>
<glyph name="phi" format="1">
  <advance width="719"/>
  <unicode hex="03C6"/>
  <outline>
    <contour>
      <point x="387" y="534"/>
      <point x="328" y="475"/>
      <point x="328" y="347" type="curve"/>
      <point x="328" y="-205" type="line"/>
      <point x="383" y="-197" type="line"/>
      <point x="383" y="341" type="line"/>
      <point x="383" y="462"/>
      <point x="426" y="488"/>
      <point x="482" y="488" type="curve" smooth="yes"/>
      <point x="554" y="488"/>
      <point x="592" y="432"/>
      <point x="592" y="265" type="curve" smooth="yes"/>
      <point x="592" y="97"/>
      <point x="530" y="39"/>
      <point x="368" y="34" type="curve"/>
      <point x="369" y="-11" type="line"/>
      <point x="569" y="-5"/>
      <point x="650" y="77"/>
      <point x="650" y="266" type="curve" smooth="yes"/>
      <point x="650" y="464"/>
      <point x="584" y="534"/>
      <point x="481" y="534" type="curve" smooth="yes"/>
    </contour>
    <contour>
      <point x="134" y="523" type="line"/>
      <point x="106" y="448"/>
      <point x="76" y="356"/>
      <point x="76" y="244" type="curve" smooth="yes"/>
      <point x="76" y="75"/>
      <point x="159" y="-5"/>
      <point x="342" y="-11" type="curve"/>
      <point x="342" y="34" type="line"/>
      <point x="206" y="42"/>
      <point x="134" y="90"/>
      <point x="134" y="247" type="curve" smooth="yes"/>
      <point x="134" y="361"/>
      <point x="165" y="455"/>
      <point x="191" y="523" type="curve"/>
    </contour>
  </outline>
</glyph>
<glyph name="chi" format="1">
  <advance width="442"/>
  <unicode hex="03C7"/>
  <outline>
    <contour>
      <point x="3" y="511" type="line"/>
      <point x="65" y="443"/>
      <point x="108" y="373"/>
      <point x="191" y="185" type="curve"/>
      <point x="221" y="137" type="line"/>
      <point x="374" y="-203" type="line"/>
      <point x="431" y="-193" type="line"/>
      <point x="251" y="184" type="line"/>
      <point x="222" y="234" type="line"/>
      <point x="154" y="404"/>
      <point x="113" y="469"/>
      <point x="59" y="532" type="curve"/>
    </contour>
    <contour>
      <point x="222" y="234" type="line"/>
      <point x="191" y="185" type="line"/>
      <point x="6" y="-195" type="line"/>
      <point x="63" y="-202" type="line"/>
      <point x="221" y="137" type="line"/>
      <point x="251" y="184" type="line"/>
      <point x="411" y="523" type="line"/>
      <point x="352" y="530" type="line"/>
    </contour>
  </outline>
</glyph>
<glyph name="psi" format="1">
  <advance width="744"/>
  <unicode hex="03C8"/>
  <outline>
    <contour>
      <point x="579" y="523" type="line"/>
      <point x="597" y="429"/>
      <point x="605" y="351"/>
      <point x="605" y="268" type="curve"/>
      <point x="605" y="104"/>
      <point x="534" y="40"/>
      <point x="386" y="36" type="curve"/>
      <point x="387" y="-11" type="line"/>
      <point x="559" y="-5"/>
      <point x="663" y="67"/>
      <point x="663" y="265" type="curve"/>
      <point x="663" y="361"/>
      <point x="654" y="434"/>
      <point x="637" y="523" type="curve"/>
    </contour>
    <contour>
      <point x="92" y="523" type="line"/>
      <point x="91" y="201" type="line" smooth="yes"/>
      <point x="91" y="62"/>
      <point x="180" y="-10"/>
      <point x="359" y="-11" type="curve"/>
      <point x="360" y="36" type="line"/>
      <point x="213" y="38"/>
      <point x="148" y="90"/>
      <point x="148" y="203" type="curve" smooth="yes"/>
      <point x="149" y="523" type="line"/>
    </contour>
    <contour>
      <point x="345" y="523" type="line"/>
      <point x="345" y="-205" type="line"/>
      <point x="400" y="-197" type="line"/>
      <point x="400" y="523" type="line"/>
    </contour>
  </outline>
</glyph>
<glyph name="omega" format="1">
  <advance width="773"/>
  <unicode hex="03C9"/>
  <outline>
    <contour>
      <point x="583" y="523" type="line"/>
      <point x="615" y="440"/>
      <point x="639" y="348"/>
      <point x="639" y="236" type="curve" smooth="yes"/>
      <point x="639" y="74"/>
      <point x="576" y="37"/>
      <point x="516" y="37" type="curve" smooth="yes"/>
      <point x="460" y="37"/>
      <point x="414" y="71"/>
      <point x="414" y="179" type="curve"/>
      <point x="414" y="361" type="line"/>
      <point x="359" y="353" type="line"/>
      <point x="359" y="179" type="line" smooth="yes"/>
      <point x="359" y="68"/>
      <point x="311" y="37"/>
      <point x="253" y="37" type="curve" smooth="yes"/>
      <point x="187" y="37"/>
      <point x="134" y="87"/>
      <point x="134" y="242" type="curve" smooth="yes"/>
      <point x="134" y="338"/>
      <point x="155" y="426"/>
      <point x="192" y="523" type="curve"/>
      <point x="134" y="523" type="line"/>
      <point x="106" y="453"/>
      <point x="76" y="362"/>
      <point x="76" y="238" type="curve" smooth="yes"/>
      <point x="76" y="60"/>
      <point x="150" y="-11"/>
      <point x="248" y="-11" type="curve" smooth="yes"/>
      <point x="322" y="-11"/>
      <point x="372" y="26"/>
      <point x="387" y="113" type="curve"/>
      <point x="397" y="26"/>
      <point x="452" y="-11"/>
      <point x="522" y="-11" type="curve" smooth="yes"/>
      <point x="612" y="-11"/>
      <point x="697" y="49"/>
      <point x="697" y="237" type="curve" smooth="yes"/>
      <point x="697" y="350"/>
      <point x="670" y="449"/>
      <point x="640" y="523" type="curve"/>
    </contour>
    <contour>
      <point x="388" y="523" type="move" name="top"/>
    </contour>
  </outline>
</glyph>
<glyph name="uni0402" format="1">
  <advance width="700"/>
  <unicode hex="0402"/>
  <outline>
    <contour>
      <point x="15" y="685" type="line"/>
      <point x="15" y="633" type="line"/>
      <point x="218" y="633" type="line"/>
      <point x="218" y="0" type="line"/>
      <point x="277" y="0" type="line"/>
      <point x="277" y="633" type="line"/>
      <point x="477" y="633" type="line"/>
      <point x="484" y="685" type="line"/>
    </contour>
    <contour>
      <point x="374" y="436"/>
      <point x="316" y="402"/>
      <point x="269" y="347" type="curve"/>
      <point x="269" y="286" type="line"/>
      <point x="318" y="350"/>
      <point x="372" y="385"/>
      <point x="450" y="385" type="curve" smooth="yes"/>
      <point x="552" y="385"/>
      <point x="595" y="328"/>
      <point x="595" y="238" type="curve" smooth="yes"/>
      <point x="595" y="94" type="line" smooth="yes"/>
      <point x="595" y="2"/>
      <point x="574" y="-35"/>
      <point x="483" y="-75" type="curve"/>
      <point x="499" y="-118" type="line"/>
      <point x="610" y="-75"/>
      <point x="654" y="-29"/>
      <point x="654" y="91" type="curve" smooth="yes"/>
      <point x="654" y="240" type="line" smooth="yes"/>
      <point x="654" y="361"/>
      <point x="587" y="436"/>
      <point x="461" y="436" type="curve" smooth="yes"/>
    </contour>
  </outline>
</glyph>
<glyph name="uni0404" format="1">
  <advance width="558"/>
  <unicode hex="0404"/>
  <outline>
    <contour>
      <point x="191" y="696"/>
      <point x="66" y="577"/>
      <point x="66" y="344" type="curve" smooth="yes"/>
      <point x="66" y="112"/>
      <point x="184" y="-11"/>
      <point x="342" y="-11" type="curve"/>
      <point x="427" y="-11"/>
      <point x="486" y="21"/>
      <point x="527" y="59" type="curve"/>
      <point x="495" y="99" type="line"/>
      <point x="455" y="67"/>
      <point x="415" y="41"/>
      <point x="344" y="41" type="curve"/>
      <point x="224" y="41"/>
      <point x="128" y="135"/>
      <point x="128" y="340" type="curve"/>
      <point x="128" y="361" type="line"/>
      <point x="131" y="564"/>
      <point x="229" y="646"/>
      <point x="347" y="646" type="curve" smooth="yes"/>
      <point x="403" y="646"/>
      <point x="442" y="630"/>
      <point x="487" y="594" type="curve"/>
      <point x="519" y="633" type="line"/>
      <point x="470" y="672"/>
      <point x="423" y="696"/>
      <point x="343" y="696" type="curve" smooth="yes"/>
    </contour>
    <contour>
      <point x="118" y="380" type="line"/>
      <point x="117" y="330" type="line"/>
      <point x="402" y="330" type="line"/>
      <point x="402" y="380" type="line"/>
    </contour>
  </outline>
</glyph>
<glyph name="uni0409" format="1">
  <advance width="889"/>
  <unicode hex="0409"/>
  <outline>
    <contour>
      <point x="450" y="671" type="line"/>
      <point x="450" y="0" type="line"/>
      <point x="607" y="0" type="line" smooth="yes"/>
      <point x="751" y="0"/>
      <point x="853" y="61"/>
      <point x="853" y="215" type="curve" smooth="yes"/>
      <point x="853" y="355"/>
      <point x="757" y="418"/>
      <point x="607" y="418" type="curve" smooth="yes"/>
      <point x="498" y="418" type="line"/>
      <point x="498" y="369" type="line"/>
      <point x="610" y="369" type="line" smooth="yes"/>
      <point x="721" y="369"/>
      <point x="791" y="327"/>
      <point x="791" y="215" type="curve" smooth="yes"/>
      <point x="791" y="91"/>
      <point x="720" y="49"/>
      <point x="615" y="49" type="curve" smooth="yes"/>
      <point x="509" y="49" type="line"/>
      <point x="509" y="685" type="line"/>
    </contour>
    <contour>
      <point x="126" y="297" type="line"/>
      <point x="102" y="102"/>
      <point x="97" y="63"/>
      <point x="29" y="38" type="curve"/>
      <point x="44" y="-9" type="line"/>
      <point x="142" y="24"/>
      <point x="158" y="71"/>
      <point x="185" y="298" type="curve" smooth="yes"/>
      <point x="226" y="636" type="line"/>
      <point x="174" y="685" type="line"/>
    </contour>
    <contour>
      <point x="174" y="685" type="line"/>
      <point x="212" y="634" type="line"/>
      <point x="450" y="634" type="line"/>
      <point x="509" y="685" type="line"/>
    </contour>
  </outline>
</glyph>
<glyph name="uni040A" format="1">
  <advance width="932"/>
  <unicode hex="040A"/>
  <outline>
    <contour>
      <point x="111" y="685" type="line"/>
      <point x="111" y="0" type="line"/>
      <point x="170" y="0" type="line"/>
      <point x="170" y="349" type="line"/>
      <point x="502" y="349" type="line"/>
      <point x="502" y="398" type="line"/>
      <point x="170" y="398" type="line"/>
      <point x="170" y="685" type="line"/>
    </contour>
    <contour>
      <point x="492" y="685" type="line"/>
      <point x="492" y="0" type="line"/>
      <point x="659" y="0" type="line" smooth="yes"/>
      <point x="794" y="0"/>
      <point x="896" y="61"/>
      <point x="896" y="205" type="curve" smooth="yes"/>
      <point x="896" y="335"/>
      <point x="803" y="398"/>
      <point x="662" y="398" type="curve" smooth="yes"/>
      <point x="540" y="398" type="line"/>
      <point x="540" y="349" type="line"/>
      <point x="664" y="349" type="line" smooth="yes"/>
      <point x="765" y="349"/>
      <point x="834" y="307"/>
      <point x="834" y="205" type="curve" smooth="yes"/>
      <point x="834" y="91"/>
      <point x="762" y="49"/>
      <point x="667" y="49" type="curve" smooth="yes"/>
      <point x="551" y="49" type="line"/>
      <point x="551" y="685" type="line"/>
    </contour>
  </outline>
</glyph>
<glyph name="uni040B" format="1">
  <advance width="700"/>
  <unicode hex="040B"/>
  <outline>
    <contour>
      <point x="15" y="685" type="line"/>
      <point x="15" y="633" type="line"/>
      <point x="477" y="633" type="line"/>
      <point x="484" y="685" type="line"/>
    </contour>
    <contour>
      <point x="374" y="436"/>
      <point x="316" y="402"/>
      <point x="269" y="347" type="curve"/>
      <point x="269" y="286" type="line"/>
      <point x="318" y="350"/>
      <point x="372" y="385"/>
      <point x="450" y="385" type="curve" smooth="yes"/>
      <point x="552" y="385"/>
      <point x="595" y="328"/>
      <point x="595" y="238" type="curve" smooth="yes"/>
      <point x="595" y="0" type="line"/>
      <point x="654" y="0" type="line"/>
      <point x="654" y="240" type="line" smooth="yes"/>
      <point x="654" y="361"/>
      <point x="587" y="436"/>
      <point x="461" y="436" type="curve" smooth="yes"/>
    </contour>
    <contour>
      <point x="218" y="685" type="line"/>
      <point x="218" y="0" type="line"/>
      <point x="277" y="0" type="line"/>
      <point x="277" y="685" type="line"/>
    </contour>
  </outline>
</glyph>
<glyph name="uni0411" format="1">
  <advance width="569"/>
  <unicode hex="0411"/>
  <outline>
    <contour>
      <point x="111" y="685" type="line"/>
      <point x="111" y="0" type="line"/>
      <point x="279" y="0" type="line" smooth="yes"/>
      <point x="423" y="0"/>
      <point x="525" y="63"/>
      <point x="525" y="215" type="curve" smooth="yes"/>
      <point x="525" y="351"/>
      <point x="432" y="418"/>
      <point x="280" y="418" type="curve" smooth="yes"/>
      <point x="159" y="418" type="line"/>
      <point x="159" y="369" type="line"/>
      <point x="282" y="369" type="line" smooth="yes"/>
      <point x="395" y="369"/>
      <point x="463" y="324"/>
      <point x="463" y="215" type="curve" smooth="yes"/>
      <point x="463" y="92"/>
      <point x="391" y="49"/>
      <point x="287" y="49" type="curve" smooth="yes"/>
      <point x="170" y="49" type="line"/>
      <point x="170" y="675" type="line"/>
    </contour>
    <contour>
      <point x="111" y="685" type="line"/>
      <point x="157" y="635" type="line"/>
      <point x="448" y="635" type="line"/>
      <point x="457" y="685" type="line"/>
    </contour>
  </outline>
</glyph>
<glyph name="uni0413" format="1">
  <advance width="508"/>
  <unicode hex="0413"/>
  <outline>
    <contour>
      <point x="111" y="0" type="line"/>
      <point x="170" y="0" type="line"/>
      <point x="170" y="646" type="line"/>
      <point x="111" y="685" type="line"/>
    </contour>
    <contour>
      <point x="111" y="685" type="line"/>
      <point x="157" y="632" type="line"/>
      <point x="489" y="632" type="line"/>
      <point x="498" y="685" type="line"/>
    </contour>
    <contour>
      <point x="323" y="685" type="move" name="top"/>
    </contour>
    <contour>
      <point x="180" y="0" type="move" name="bottomright"/>
    </contour>
  </outline>
</glyph>
<glyph name="uni0414" format="1">
  <advance width="600"/>
  <unicode hex="0414"/>
  <outline>
    <contour>
      <point x="171" y="685" type="line"/>
      <point x="139" y="429" type="line" smooth="yes"/>
      <point x="105" y="156"/>
      <point x="84" y="97"/>
      <point x="37" y="50" type="curve"/>
      <point x="37" y="0" type="line"/>
      <point x="489" y="0" type="line"/>
      <point x="489" y="685" type="line"/>
    </contour>
    <contour>
      <point x="430" y="50" type="line"/>
      <point x="89" y="50" type="line"/>
      <point x="144" y="98"/>
      <point x="166" y="168"/>
      <point x="198" y="428" type="curve" smooth="yes"/>
      <point x="223" y="635" type="line"/>
      <point x="430" y="635" type="line"/>
    </contour>
    <contour>
      <point x="440" y="50" type="line"/>
      <point x="448" y="0" type="line"/>
      <point x="482" y="0" type="line"/>
      <point x="495" y="-145" type="line"/>
      <point x="540" y="-145" type="line"/>
      <point x="540" y="50" type="line"/>
    </contour>
    <contour>
      <point x="93" y="50" type="line"/>
      <point x="85" y="0" type="line"/>
      <point x="51" y="0" type="line"/>
      <point x="38" y="-145" type="line"/>
      <point x="-7" y="-145" type="line"/>
      <point x="-7" y="50" type="line"/>
    </contour>
  </outline>
</glyph>
<glyph name="uni0416" format="1">
  <advance width="772"/>
  <unicode hex="0416"/>
  <outline>
    <contour>
      <point x="682" y="685" type="line"/>
      <point x="508" y="386" type="line"/>
      <point x="414" y="386" type="line"/>
      <point x="414" y="685" type="line"/>
      <point x="358" y="685" type="line"/>
      <point x="358" y="386" type="line"/>
      <point x="264" y="386" type="line"/>
      <point x="92" y="685" type="line"/>
      <point x="27" y="685" type="line"/>
      <point x="215" y="363" type="line"/>
      <point x="11" y="0" type="line"/>
      <point x="76" y="0" type="line"/>
      <point x="263" y="336" type="line"/>
      <point x="358" y="336" type="line"/>
      <point x="358" y="0" type="line"/>
      <point x="414" y="0" type="line"/>
      <point x="414" y="336" type="line"/>
      <point x="508" y="336" type="line"/>
      <point x="695" y="0" type="line"/>
      <point x="761" y="0" type="line"/>
      <point x="556" y="363" type="line"/>
      <point x="745" y="685" type="line"/>
    </contour>
    <contour>
      <point x="386" y="685" type="move" name="top"/>
    </contour>
    <contour>
      <point x="728" y="0" type="move" name="bottomright"/>
    </contour>
  </outline>
</glyph>
